<svg width="40" height="40" viewBox="0 0 40 40" fill="none" xmlns="http://www.w3.org/2000/svg">
<rect width="40" height="40" rx="20" fill="#F2F2F2"/>
<path d="M27.7338 25.6134C27.3127 24.616 26.7017 23.7101 25.9347 22.946C25.17 22.1797 24.2642 21.5688 23.2673 21.1469C23.2583 21.1424 23.2494 21.1402 23.2405 21.1357C24.6311 20.1313 25.5351 18.4951 25.5351 16.6491C25.5351 13.5911 23.0575 11.1134 19.9994 11.1134C16.9414 11.1134 14.4637 13.5911 14.4637 16.6491C14.4637 18.4951 15.3677 20.1313 16.7583 21.138C16.7494 21.1424 16.7405 21.1447 16.7316 21.1491C15.7316 21.571 14.8342 22.1759 14.0642 22.9482C13.2979 23.7129 12.6869 24.6187 12.265 25.6157C11.8506 26.5917 11.6271 27.6381 11.6066 28.6982C11.606 28.7221 11.6101 28.7458 11.6189 28.768C11.6276 28.7901 11.6406 28.8104 11.6573 28.8274C11.6739 28.8445 11.6938 28.858 11.7158 28.8673C11.7377 28.8765 11.7613 28.8813 11.7851 28.8813H13.1244C13.2226 28.8813 13.3008 28.8032 13.303 28.7072C13.3476 26.984 14.0396 25.3701 15.2628 24.1469C16.5284 22.8813 18.2092 22.1848 19.9994 22.1848C21.7896 22.1848 23.4704 22.8813 24.736 24.1469C25.9592 25.3701 26.6512 26.984 26.6958 28.7072C26.6981 28.8054 26.7762 28.8813 26.8744 28.8813H28.2137C28.2375 28.8813 28.2611 28.8765 28.2831 28.8673C28.305 28.858 28.3249 28.8445 28.3416 28.8274C28.3582 28.8104 28.3713 28.7901 28.38 28.768C28.3887 28.7458 28.3929 28.7221 28.3923 28.6982C28.37 27.6313 28.149 26.5933 27.7338 25.6134ZM19.9994 20.4884C18.9749 20.4884 18.0106 20.0889 17.2851 19.3634C16.5597 18.638 16.1601 17.6737 16.1601 16.6491C16.1601 15.6246 16.5597 14.6603 17.2851 13.9348C18.0106 13.2094 18.9749 12.8098 19.9994 12.8098C21.024 12.8098 21.9883 13.2094 22.7137 13.9348C23.4391 14.6603 23.8387 15.6246 23.8387 16.6491C23.8387 17.6737 23.4391 18.638 22.7137 19.3634C21.9883 20.0889 21.024 20.4884 19.9994 20.4884Z" fill="#1A1A1A"/>
</svg>
