<svg width="40" height="40" viewBox="0 0 40 40" fill="none" xmlns="http://www.w3.org/2000/svg">
<rect width="40" height="40" rx="20" fill="#7AB054"/>
<path d="M27.1435 15.5385L24.1078 15.5385V15.1814C24.1078 12.9135 22.2685 11.0742 20.0006 11.0742C17.7328 11.0742 15.8935 12.9135 15.8935 15.1814V15.5385H12.8578C12.4627 15.5385 12.1435 15.8577 12.1435 16.2528L12.1435 28.2171C12.1435 28.6122 12.4627 28.9314 12.8578 28.9314L27.1435 28.9314C27.5386 28.9314 27.8578 28.6122 27.8578 28.2171L27.8578 16.2528C27.8578 15.8577 27.5386 15.5385 27.1435 15.5385ZM17.5006 15.1814C17.5006 13.7997 18.6189 12.6814 20.0006 12.6814C21.3823 12.6814 22.5006 13.7997 22.5006 15.1814V15.5385L17.5006 15.5385V15.1814ZM26.2506 27.3242L13.7506 27.3242L13.7506 17.1456H15.8935L15.8935 19.1099C15.8935 19.2081 15.9739 19.2885 16.0721 19.2885H17.3221C17.4203 19.2885 17.5006 19.2081 17.5006 19.1099V17.1456H22.5006V19.1099C22.5006 19.2081 22.581 19.2885 22.6792 19.2885H23.9292C24.0274 19.2885 24.1078 19.2081 24.1078 19.1099V17.1456L26.2506 17.1456V27.3242Z" fill="white"/>
</svg>
