<svg width="15" height="14" viewBox="0 0 15 14" fill="none" xmlns="http://www.w3.org/2000/svg">
<path d="M1.73507 11.3184C1.55098 11.096 1.58205 10.7665 1.80447 10.5824L3.11647 9.49645C3.33888 9.31236 3.66842 9.34343 3.85251 9.56584C4.0366 9.78826 4.00553 10.1178 3.78311 10.3019L2.47111 11.3878C2.2487 11.5719 1.91916 11.5408 1.73507 11.3184Z" fill="#808080"/>
<path d="M2.9659 6.68876C2.9388 6.9762 2.68381 7.18725 2.39637 7.16015L0.700785 7.00029C0.413342 6.97319 0.202294 6.7182 0.229394 6.43076C0.256495 6.14331 0.511482 5.93227 0.798925 5.95937L2.49451 6.11923C2.78195 6.14633 2.993 6.40132 2.9659 6.68876Z" fill="#808080"/>
<path d="M3.63765 3.95811C3.82174 4.18053 4.15128 4.2116 4.37369 4.02751C4.59611 3.84342 4.62718 3.51388 4.44309 3.29146L3.35717 1.97946C3.17308 1.75705 2.84354 1.72598 2.62113 1.91007C2.39871 2.09416 2.36764 2.4237 2.55173 2.64611L3.63765 3.95811Z" fill="#808080"/>
<path d="M6.78031 2.57203C6.75321 2.85947 6.96425 3.11446 7.2517 3.14156C7.53914 3.16866 7.79413 2.95761 7.82123 2.67017L7.98109 0.974585C8.00819 0.687142 7.79714 0.432154 7.5097 0.405054C7.22226 0.377952 6.96727 0.589001 6.94017 0.876444L6.78031 2.57203Z" fill="#808080"/>
<path d="M8.13712 4.80386C8.27354 4.55239 8.18277 4.23319 7.91294 4.1381C7.67865 4.05553 7.43056 4.00003 7.17204 3.97566C5.46972 3.81516 3.9596 5.06506 3.7991 6.76738C3.6954 7.8673 4.18051 8.88698 4.99603 9.51421C5.22296 9.68874 5.54031 9.59095 5.67682 9.3393C5.81552 9.0836 5.71201 8.76762 5.4975 8.57113C5.03992 8.15199 4.77729 7.53093 4.84002 6.86552C4.94632 5.73808 5.94646 4.91028 7.0739 5.01658C7.18393 5.02695 7.29111 5.04584 7.39484 5.07253C7.67675 5.14506 7.99832 5.05973 8.13712 4.80386Z" fill="#808080"/>
<path d="M4.32773 12.873C4.21007 13.1021 4.29644 13.3843 4.52395 13.5077C4.75466 13.6329 5.04314 13.5473 5.1683 13.3166L5.74002 12.2627L6.38176 13.0351C6.54949 13.237 6.84912 13.2647 7.05101 13.0969C7.25289 12.9292 7.28058 12.6296 7.11285 12.4277L6.22815 11.3628L7.808 8.45045L9.40053 10.9111L8.70438 12.7882C8.61312 13.0343 8.73863 13.3077 8.98472 13.399C9.23081 13.4903 9.50429 13.3648 9.59556 13.1187L10.0367 11.9292L10.8701 13.2746C11.0084 13.4978 11.3013 13.5666 11.5244 13.4284C11.7475 13.2902 11.8164 12.9972 11.6782 12.7741L10.927 11.5616L12.0774 11.8173C12.3337 11.8743 12.5875 11.7128 12.6445 11.4565C12.7015 11.2003 12.5399 10.9464 12.2837 10.8895L10.2222 10.4312L8.64437 7.99338L11.5482 7.98667L13.0565 9.46488C13.244 9.6486 13.5448 9.64557 13.7286 9.45812C13.9123 9.27067 13.9093 8.96977 13.7218 8.78605L12.8801 7.96117L14.3061 7.92964C14.5685 7.92384 14.7765 7.70641 14.7707 7.444C14.7649 7.1816 14.5475 6.97358 14.2851 6.97938L12.7028 7.01437L13.4593 5.99601C13.6159 5.78532 13.5719 5.48763 13.3612 5.33111C13.1506 5.17459 12.8529 5.2185 12.6963 5.42919L11.5025 7.03629L8.57146 7.04306L10.0254 4.36287L11.6022 4.29442C11.8644 4.28303 12.0678 4.06123 12.0564 3.79901C12.045 3.53679 11.8232 3.33344 11.561 3.34482L10.5539 3.38854L11.2112 2.1769C11.3363 1.94619 11.2507 1.6577 11.02 1.53255C10.7925 1.40913 10.5088 1.49064 10.381 1.71417L4.32773 12.873Z" fill="#808080"/>
</svg>
