<svg width="16" height="17" viewBox="0 0 16 17" fill="none" xmlns="http://www.w3.org/2000/svg">
<path fill-rule="evenodd" clip-rule="evenodd" d="M7.76698 0.492139C7.69557 0.529857 7.6257 0.601732 7.58729 0.677014C7.52579 0.797576 7.52445 0.857076 7.52439 3.46551L7.52429 6.13082L7.3602 6.21657C7.26995 6.26373 7.13404 6.36217 7.05823 6.43532C6.88635 6.60114 0.0961077 15.6481 0.0365765 15.7906C-0.0567672 16.014 0.0336702 16.2562 0.249514 16.3607L0.38792 16.4277H7.9932H15.5985L15.7369 16.3607C15.9527 16.2562 16.0432 16.014 15.9498 15.7906C15.8903 15.6481 9.10004 6.60114 8.92817 6.43532C8.85235 6.36217 8.71645 6.26373 8.6262 6.21657L8.4621 6.13082L8.46201 4.99876L8.46195 3.86673L10.2142 3.85814L11.9665 3.84958L12.0892 3.71798C12.2245 3.57295 12.2452 3.47767 12.193 3.2402C12.1831 3.19476 11.9647 2.94936 11.6713 2.65383L11.1667 2.14558L11.6547 1.65383C11.9231 1.38336 12.1583 1.13136 12.1774 1.09383C12.2366 0.976982 12.2191 0.760139 12.141 0.643264C11.9914 0.419232 12.0808 0.427639 9.8682 0.429139C7.9542 0.43042 7.87967 0.432639 7.76698 0.492139ZM10.3468 1.65523C10.041 1.97139 9.99916 2.06145 10.0576 2.27845C10.0812 2.36604 10.1642 2.47842 10.3432 2.66483L10.5956 2.9277H9.52876H8.46195V2.14645V1.3652H9.54467H10.6274L10.3468 1.65523ZM8.20304 7.0517C8.30188 7.11195 10.5607 10.0844 10.5679 10.1637C10.5724 10.2127 9.61782 11.2749 9.5866 11.2556C9.57342 11.2474 9.27767 10.9248 8.92935 10.5387C8.56573 10.1355 8.25285 9.81601 8.1946 9.78835C8.06545 9.72707 7.92095 9.72707 7.79179 9.78835C7.73354 9.81601 7.42067 10.1355 7.05704 10.5387C6.70873 10.9248 6.41298 11.2474 6.39979 11.2556C6.36857 11.2749 5.41401 10.2127 5.41848 10.1637C5.42573 10.0844 7.68451 7.11195 7.78335 7.0517C7.8386 7.01801 7.93304 6.99042 7.9932 6.99042C8.05335 6.99042 8.14779 7.01801 8.20304 7.0517ZM8.66582 11.6443C9.05966 12.08 9.35117 12.3764 9.4096 12.4007C9.53967 12.4545 9.72907 12.4429 9.83573 12.3746C9.88398 12.3436 10.2004 12.0124 10.5389 11.6386C10.8774 11.2648 11.1638 10.9596 11.1754 10.9603C11.1869 10.9611 11.9593 11.9806 12.8917 13.2259L14.5871 15.4902H7.9932H1.39929L3.0947 13.2259C4.02714 11.9806 4.79951 10.9611 4.81104 10.9603C4.82257 10.9596 5.10895 11.2648 5.44745 11.6386C5.78595 12.0124 6.10242 12.3436 6.15067 12.3746C6.25732 12.4429 6.44673 12.4545 6.57679 12.4007C6.63523 12.3764 6.92673 12.08 7.32057 11.6443C7.67682 11.2502 7.97948 10.9277 7.9932 10.9277C8.00692 10.9277 8.30957 11.2502 8.66582 11.6443Z" fill="#1A1A1A"/>
</svg>
