<svg width="16" height="17" viewBox="0 0 16 17" fill="none" xmlns="http://www.w3.org/2000/svg">
<path fill-rule="evenodd" clip-rule="evenodd" d="M7.41857 0.43655C7.35842 0.443612 7.17561 0.463862 7.01232 0.481581C5.98129 0.593456 4.83954 0.980331 3.91823 1.53005C2.74567 2.22964 1.79263 3.18268 1.09304 4.35524C0.547821 5.26902 0.185695 6.33093 0.0379453 7.44933C-0.0126484 7.83224 -0.0126484 9.00393 0.0379453 9.38683C0.185695 10.5052 0.547821 11.5671 1.09304 12.4809C1.79263 13.6535 2.74567 14.6065 3.91823 15.3061C4.83201 15.8513 5.89392 16.2135 7.01232 16.3612C7.39523 16.4118 8.56692 16.4118 8.94982 16.3612C10.8957 16.1041 12.5451 15.2495 13.8912 13.8008C14.636 12.9994 15.2186 12.0026 15.5761 10.9181C15.858 10.0632 15.9635 9.38255 15.9635 8.41808C15.9635 7.70458 15.9333 7.38937 15.8053 6.76183C15.3661 4.61024 13.9838 2.68746 12.0439 1.53005C11.1395 0.990394 10.0609 0.620612 8.98107 0.479925C8.70701 0.444237 7.61232 0.413831 7.41857 0.43655ZM9.08576 1.44589C9.28945 1.47986 9.46404 1.51564 9.47376 1.52536C9.48917 1.54074 9.02445 5.01011 9.00429 5.0303C9.00008 5.03452 8.92242 5.01871 8.83173 4.99518C8.29501 4.85596 7.66714 4.85596 7.13042 4.99518C7.03973 5.01871 6.96207 5.03452 6.95786 5.0303C6.93879 5.01121 6.47254 1.54118 6.4871 1.52664C6.51014 1.50361 7.01045 1.41818 7.3092 1.38627C7.70929 1.34352 8.66423 1.37555 9.08576 1.44589ZM5.6647 2.55089C5.72085 2.96771 5.83348 3.79043 5.91492 4.37921L6.06304 5.44971L5.84048 5.62015C5.58976 5.81221 5.33873 6.06711 5.14114 6.33027C5.06773 6.42805 4.99114 6.50274 4.97092 6.49624C4.95073 6.48974 4.13263 6.3758 3.15295 6.24308C2.17326 6.11036 1.3672 5.99836 1.3617 5.99421C1.35616 5.99002 1.38985 5.89033 1.43648 5.77265C1.76951 4.93252 2.43013 3.95483 3.08435 3.33399C3.72129 2.72949 4.49564 2.22258 5.27795 1.89796C5.41545 1.84089 5.53573 1.79396 5.54526 1.79364C5.55479 1.79333 5.60854 2.13411 5.6647 2.55089ZM10.7155 1.90986C11.46 2.21961 12.256 2.74389 12.8778 3.33399C13.532 3.95483 14.1926 4.93252 14.5257 5.77265C14.5723 5.89033 14.606 5.99002 14.6005 5.99421C14.595 5.99836 13.7889 6.11036 12.8092 6.24308C11.8295 6.3758 11.0114 6.48974 10.9912 6.49624C10.971 6.50274 10.8944 6.42805 10.821 6.33027C10.6234 6.06711 10.3724 5.81221 10.1217 5.62015L9.89911 5.44971L10.0472 4.37921C10.1287 3.79043 10.2413 2.96761 10.2975 2.55074C10.4136 1.68886 10.3646 1.76393 10.7155 1.90986ZM8.50095 5.88408C9.29061 6.04705 9.96676 6.58093 10.3172 7.31821C10.9334 8.61465 10.3751 10.1487 9.06342 10.7634C7.78173 11.364 6.25867 10.8091 5.64495 9.51796C5.31176 8.81699 5.30848 8.03418 5.63576 7.33574C6.14935 6.2398 7.32889 5.64218 8.50095 5.88408ZM2.88579 7.15283C3.82088 7.28193 4.58932 7.39093 4.59345 7.39505C4.59757 7.39918 4.5817 7.47674 4.55817 7.56743C4.41895 8.10415 4.41895 8.73202 4.55817 9.26874C4.5817 9.35943 4.59751 9.43709 4.59329 9.4413C4.5731 9.46146 1.10373 9.92618 1.08835 9.91077C1.07863 9.90105 1.04154 9.72646 1.00591 9.52277C0.918883 9.02493 0.910852 7.87521 0.991102 7.40246C1.07154 6.92855 1.0746 6.91808 1.1327 6.91808C1.16179 6.91808 1.9507 7.02371 2.88579 7.15283ZM14.9002 7.00402C15.0017 7.49327 15.024 7.75452 15.0225 8.43371C15.0213 9.01555 15.0086 9.22299 14.9562 9.52277C14.9206 9.72646 14.8835 9.90105 14.8738 9.91077C14.8584 9.92618 11.389 9.46146 11.3689 9.4413C11.3646 9.43709 11.3805 9.35943 11.404 9.26874C11.5432 8.73202 11.5432 8.10415 11.404 7.56743C11.3805 7.47674 11.3647 7.39908 11.3689 7.39487C11.3818 7.38193 14.6775 6.92493 14.7833 6.9214C14.8674 6.91858 14.8851 6.93111 14.9002 7.00402ZM5.17864 10.5528C5.37485 10.809 5.62835 11.0591 5.89326 11.258C5.99104 11.3314 6.06573 11.408 6.05923 11.4282C6.05273 11.4484 5.93879 12.2665 5.80607 13.2462C5.67335 14.2259 5.56135 15.032 5.5572 15.0375C5.55301 15.043 5.45332 15.0093 5.33564 14.9627C4.56917 14.6588 3.72845 14.1134 3.08435 13.5022C2.43013 12.8813 1.76951 11.9036 1.43648 11.0635C1.38985 10.9458 1.35616 10.8461 1.3617 10.8419C1.3672 10.8377 2.18732 10.7212 3.1842 10.5831C4.18107 10.4449 4.99826 10.3301 5.00017 10.3281C5.0021 10.326 5.08239 10.4271 5.17864 10.5528ZM12.8092 10.5931C13.7889 10.7258 14.595 10.8378 14.6005 10.842C14.606 10.8461 14.5723 10.9458 14.5257 11.0635C14.1926 11.9036 13.532 12.8813 12.8778 13.5022C12.2337 14.1134 11.393 14.6588 10.6265 14.9627C10.5088 15.0093 10.4091 15.043 10.405 15.0375C10.4008 15.032 10.2888 14.2259 10.1561 13.2462C10.0234 12.2665 9.90942 11.4484 9.90292 11.4282C9.89642 11.408 9.97111 11.3314 10.0689 11.258C10.3332 11.0596 10.5872 10.8091 10.7819 10.5548C10.8773 10.4303 10.9717 10.3337 10.9917 10.3401C11.0116 10.3465 11.8295 10.4604 12.8092 10.5931ZM7.27795 11.875C7.75051 11.9755 8.36336 11.9625 8.82782 11.842C8.92067 11.8179 9.00008 11.8016 9.00429 11.8059C9.02445 11.8261 9.48917 15.2954 9.47376 15.3108C9.46404 15.3205 9.28945 15.3577 9.08576 15.3934C8.78129 15.4468 8.58489 15.4583 7.98107 15.4583C7.37726 15.4583 7.18085 15.4468 6.87639 15.3934C6.6727 15.3577 6.49807 15.3205 6.48832 15.3108C6.4742 15.2966 6.87023 12.2981 6.93973 11.8928C6.95336 11.8135 6.96936 11.7939 7.00836 11.8089C7.03632 11.8196 7.15764 11.8494 7.27795 11.875Z" fill="#1A1A1A"/>
</svg>
