<svg width="16" height="17" viewBox="0 0 16 17" fill="none" xmlns="http://www.w3.org/2000/svg">
<path fill-rule="evenodd" clip-rule="evenodd" d="M8.83745 0.485017C8.64898 0.585174 8.60232 0.690861 8.54314 1.15195C8.51379 1.38064 8.48314 1.5913 8.47501 1.62005C8.46179 1.66692 8.41276 1.67052 8.00067 1.6548C4.97545 1.53933 1.85985 3.29164 0.595478 5.8197C0.248384 6.51376 -0.0545532 7.61064 0.00832179 7.9458C0.0319155 8.07158 0.161416 8.23336 0.272666 8.27611C0.317166 8.2932 1.31685 8.61454 2.4942 8.99023L4.63482 9.67326L5.95473 9.82582C6.68067 9.90973 7.28414 9.98792 7.29576 9.99954C7.31607 10.0199 7.12736 11.512 7.09842 11.5599C7.09064 11.5729 7.03795 11.5834 6.98135 11.5834C6.74845 11.5834 6.54185 11.8307 6.56717 12.0791C6.58479 12.2519 6.66554 12.3634 6.83064 12.4428C6.91801 12.4848 6.96101 12.5258 6.9617 12.5678C6.96307 12.6508 6.72014 14.3991 6.70517 14.4141C6.69876 14.4205 6.39904 14.4155 6.03917 14.403C5.20676 14.3741 3.78885 14.4059 2.96295 14.472C1.67801 14.5749 0.413072 14.7524 0.239166 14.8542C-0.0669282 15.0335 -0.0804595 15.4378 0.212916 15.6381C0.343572 15.7272 0.426634 15.7266 1.04279 15.6315C3.00092 15.3294 5.36845 15.2429 7.08185 15.4111C7.85995 15.4875 8.70164 15.5996 10.4786 15.8638C13.2196 16.2712 14.0909 16.3757 15.0726 16.4149C15.5778 16.435 15.6107 16.4327 15.7363 16.3687C15.9743 16.2472 16.0575 15.97 15.926 15.7361C15.8151 15.5388 15.6898 15.4995 15.1015 15.4775C14.1924 15.4434 13.3995 15.3503 11.0567 15.0025C9.32007 14.7448 8.28467 14.5998 7.94323 14.5665C7.82067 14.5546 7.70451 14.535 7.6851 14.523C7.65964 14.5073 7.68464 14.2469 7.77514 13.5856C7.84407 13.0821 7.90045 12.6646 7.90045 12.658C7.90045 12.6513 7.94617 12.6459 8.00201 12.6458C8.05789 12.6458 8.15251 12.6212 8.21232 12.5911C8.58864 12.4021 8.52442 11.813 8.11776 11.7237C8.0432 11.7073 8.02836 11.6904 8.04042 11.6356C8.04864 11.5983 8.09964 11.2373 8.15376 10.8334C8.20789 10.4295 8.25389 10.0972 8.25601 10.095C8.25811 10.0929 8.84342 10.159 9.5567 10.242C10.27 10.325 10.9379 10.3938 11.0411 10.3949C11.1442 10.396 12.2059 10.318 13.4004 10.2217C15.827 10.026 15.7513 10.0391 15.8796 9.79023C15.933 9.68645 15.9441 9.58942 15.9565 9.11695C15.9788 8.26929 15.8797 7.60911 15.6144 6.83814C14.9527 4.91483 13.3752 3.23261 11.4312 2.37705C10.8533 2.1227 10.2047 1.92386 9.65045 1.83114C9.52154 1.80958 9.41251 1.78949 9.40814 1.78649C9.40379 1.78352 9.42789 1.57658 9.46173 1.32667C9.5287 0.83233 9.51873 0.725267 9.39339 0.591049C9.23495 0.421392 9.03054 0.382392 8.83745 0.485017ZM7.19898 2.93495C6.35407 3.77864 5.64842 4.87102 5.09201 6.19645C4.81317 6.8607 4.5226 7.78808 4.40042 8.4037C4.38082 8.50255 4.3482 8.58317 4.32792 8.58292C4.30767 8.58267 3.55279 8.34614 2.65045 8.05729L1.00982 7.53208L1.01945 7.41333C1.03645 7.20417 1.23848 6.64242 1.44723 6.22401C2.28007 4.5547 4.10335 3.22183 6.18976 2.75708C6.56339 2.67383 7.14167 2.59283 7.40542 2.58674L7.55104 2.58339L7.19898 2.93495ZM9.16139 3.42327C10.0559 4.92242 10.5124 6.64842 10.5778 8.77751L10.5977 9.42479L10.4913 9.40864C10.4327 9.39976 9.24123 9.26098 7.84351 9.10026C6.44579 8.93958 5.2961 8.80198 5.28867 8.79451C5.26554 8.77139 5.57767 7.58733 5.70676 7.20839C6.29823 5.47239 7.21035 4.09064 8.41498 3.10583L8.75767 2.8257L8.84035 2.92473C8.88582 2.9792 9.03029 3.20355 9.16139 3.42327ZM10.8067 3.1292C12.4024 3.76755 13.7232 4.9798 14.4509 6.47401C14.8155 7.2228 14.9887 7.89811 15.0172 8.68217L15.0338 9.14036L14.8655 9.15961C14.6887 9.17986 11.6477 9.42714 11.5755 9.42714C11.5423 9.42714 11.5301 9.27483 11.516 8.68495C11.469 6.71908 10.8623 4.38395 10.0565 3.06742C9.98786 2.9553 9.9317 2.8583 9.9317 2.85189C9.9317 2.82808 10.52 3.01452 10.8067 3.1292Z" fill="#1A1A1A"/>
</svg>
