<svg width="14" height="12" viewBox="0 0 14 12" fill="none" xmlns="http://www.w3.org/2000/svg">
<path fill-rule="evenodd" clip-rule="evenodd" d="M3.25 0.5H10.7515C11.2148 0.501386 11.6587 0.686047 11.9863 1.01366C12.314 1.34126 12.4986 1.7852 12.5 2.24851L12.5 2.25L12.5 5.21076C12.783 5.33479 13.0433 5.51126 13.266 5.73396C13.7342 6.2021 13.998 6.83648 14 7.49852L14 7.5L14 11C14 11.2761 13.7761 11.5 13.5 11.5C13.2239 11.5 13 11.2761 13 11V10.751C12.9997 10.6845 12.9731 10.6209 12.9261 10.5739C12.8791 10.5269 12.8155 10.5003 12.749 10.5H1.25096C1.18451 10.5003 1.12086 10.5269 1.07386 10.5739C1.02687 10.6208 1.00033 10.6845 1 10.7509V11C1 11.2761 0.776142 11.5 0.5 11.5C0.223858 11.5 0 11.2761 0 11V10.75L2.11596e-06 10.7485L2.17557e-06 7.49852C0.00195894 6.83648 0.265824 6.2021 0.733963 5.73396C0.956663 5.51126 1.21698 5.33479 1.5 5.21075V2.24851C1.50138 1.7852 1.68605 1.34126 2.01366 1.01366C2.34126 0.686047 2.7852 0.501386 3.24851 0.500002L3.25 0.5ZM3 5H6.49999C6.49925 4.86764 6.44635 4.74089 6.35273 4.64727C6.25892 4.55346 6.13183 4.50053 5.99918 4.5H3.50082C3.36816 4.50053 3.24108 4.55346 3.14727 4.64727C3.05365 4.74089 3.00074 4.86764 3 5ZM7.5 5H11C10.9993 4.86764 10.9463 4.74089 10.8527 4.64727C10.7589 4.55346 10.6318 4.50053 10.4992 4.5H8.00081C7.86816 4.50053 7.74107 4.55346 7.64726 4.64727C7.55364 4.74089 7.50074 4.86764 7.5 5ZM2.50026 6C2.10285 6.0015 1.72211 6.16003 1.44107 6.44107C1.1599 6.72224 1.00136 7.10319 1 7.50079V9.52565C1.0812 9.50895 1.16443 9.50025 1.24855 9.5L1.25 9.5L12.7515 9.5C12.8356 9.50024 12.9188 9.50895 13 9.52565V7.50087C12.9987 7.10324 12.8401 6.72226 12.5589 6.44107C12.2779 6.16003 11.8972 6.0015 11.4997 6H2.50026ZM11.5 2.25093V3.88352C11.2262 3.63817 10.871 3.50104 10.5014 3.5L7.99999 3.5L7.99859 3.5C7.62903 3.50104 7.27382 3.63816 7 3.88351C6.72617 3.63816 6.37096 3.50104 6.00139 3.5H3.5L3.4986 3.5C3.12903 3.50104 2.77383 3.63816 2.5 3.88351V2.25084C2.50077 2.05195 2.58011 1.86141 2.72076 1.72076C2.86141 1.58011 3.05195 1.50077 3.25084 1.5H10.7492C10.948 1.50077 11.1386 1.58011 11.2792 1.72076C11.4199 1.86143 11.4993 2.052 11.5 2.25093Z" fill="#1A1A1A"/>
</svg>
