<svg width="16" height="13" viewBox="0 0 16 13" fill="none" xmlns="http://www.w3.org/2000/svg">
<path fill-rule="evenodd" clip-rule="evenodd" d="M10.1037 0.448862C9.96351 0.500112 9.82248 0.706894 9.82248 0.861175C9.82248 0.912737 9.9631 1.45208 10.135 2.05974C10.3069 2.66736 10.4475 3.18142 10.4475 3.20211C10.4475 3.23114 9.94016 3.23789 8.22366 3.23171L5.99985 3.22367L5.86394 2.81742C5.78919 2.59399 5.72079 2.38839 5.71194 2.36055C5.69794 2.31652 5.74025 2.30805 6.0356 2.29589C6.29663 2.28514 6.39929 2.26789 6.47847 2.22155C6.78857 2.03996 6.8066 1.63127 6.51316 1.43524C6.40722 1.36446 6.40413 1.3643 5.16622 1.3643C3.92832 1.3643 3.92522 1.36446 3.81928 1.43524C3.52588 1.63124 3.54388 2.03996 3.85385 2.22146C3.93366 2.26821 4.04094 2.28577 4.33094 2.29958L4.70507 2.31742L4.93566 2.9893L5.16625 3.66117L4.64613 4.89861L4.126 6.13605L3.91957 6.08946C3.64972 6.02858 2.96635 6.02311 2.68185 6.07958C1.41266 6.33149 0.414282 7.26596 0.080907 8.51411C0.00921945 8.78252 -9.30557e-05 8.87674 6.94368e-07 9.33305C9.44444e-05 9.75649 0.0116257 9.89074 0.0645007 10.084C0.39872 11.3054 1.22341 12.1611 2.4006 12.5078C2.74522 12.6093 3.42869 12.6461 3.81457 12.5838C4.84719 12.4172 5.75563 11.7429 6.23641 10.7862C6.35263 10.5549 6.48857 10.1543 6.52422 9.93799L6.54557 9.80858L7.11944 9.79721C7.74147 9.78489 7.77813 9.77502 7.92204 9.58111C7.95313 9.53921 8.4831 8.30961 9.09976 6.84867L10.2209 4.19242H10.4799H10.7389L11.0304 5.22367C11.1907 5.79086 11.322 6.26989 11.3222 6.28821C11.3224 6.30649 11.2698 6.34642 11.2053 6.37696C10.9684 6.48908 10.5739 6.77558 10.3549 6.99458C9.71713 7.63236 9.38498 8.43874 9.38498 9.34933C9.38498 10.2415 9.74335 11.0747 10.3955 11.6988C10.6977 11.9879 10.9116 12.1343 11.3007 12.3182C11.7984 12.5535 12.0263 12.599 12.6975 12.597C13.2347 12.5955 13.2955 12.5893 13.5569 12.5101C14.7686 12.1431 15.6264 11.2299 15.9099 10.0049C15.9457 9.85046 15.96 9.64383 15.9585 9.3018C15.9568 8.88586 15.9453 8.77496 15.8767 8.51683C15.5968 7.46236 14.821 6.60186 13.8216 6.23711C13.4024 6.08414 13.1633 6.04296 12.674 6.03939C12.4291 6.03761 12.2287 6.03193 12.2287 6.02671C12.2287 6.01786 10.9648 1.53852 10.9286 1.41899C10.913 1.36758 10.983 1.3643 12.097 1.3643C13.2769 1.3643 13.2824 1.36461 13.3882 1.43524C13.6811 1.63089 13.6636 2.03996 13.3546 2.22089C13.2755 2.26721 13.1663 2.28474 12.8679 2.29902C12.5464 2.31439 12.4687 2.32805 12.395 2.38214C12.1182 2.58539 12.1466 2.98202 12.4508 3.16117C12.5433 3.21567 12.6089 3.22321 12.9631 3.21999C13.5419 3.21474 13.8203 3.11292 14.1386 2.79005C14.6698 2.2513 14.6698 1.38355 14.1386 0.8448C13.9574 0.661018 13.8139 0.570612 13.5759 0.490456C13.395 0.429518 13.3177 0.426893 11.7688 0.429268C10.8788 0.430612 10.1295 0.439456 10.1037 0.448862ZM9.18369 4.23149C9.17382 4.26158 8.73194 5.31274 8.20179 6.56742L7.23785 8.84867H6.89854H6.55919L6.53179 8.7393C6.29166 7.78039 5.88744 7.14092 5.22091 6.66552C5.10488 6.58277 5.00997 6.5013 5.00997 6.48449C5.00997 6.45517 5.89275 4.34411 5.9521 4.23149C5.97897 4.18049 6.08941 4.1768 7.59132 4.1768C9.11101 4.1768 9.20066 4.17989 9.18369 4.23149ZM3.70297 7.00536C3.74222 7.02042 3.66657 7.22268 3.29635 8.09252C2.91266 8.99399 2.84125 9.18649 2.83981 9.32296C2.83785 9.50883 2.90519 9.62321 3.07575 9.72367C3.17553 9.78246 3.25369 9.78711 4.38988 9.8018L5.59791 9.81742L5.52829 10.0369C5.28238 10.8122 4.64503 11.4159 3.86078 11.6165C3.56422 11.6923 3.01238 11.6984 2.74503 11.6288C2.14019 11.4712 1.65791 11.1395 1.32847 10.6544C0.88497 10.0013 0.797564 9.17677 1.09353 8.43749C1.45716 7.52914 2.3955 6.92593 3.37144 6.97318C3.52728 6.98071 3.67647 6.99521 3.70297 7.00536ZM13.0725 7.00268C14.2681 7.21914 15.1078 8.27199 15.0304 9.45743C14.9938 10.0172 14.8214 10.4436 14.4519 10.8881C14.1889 11.2043 13.6701 11.517 13.2267 11.6262C12.9329 11.6986 12.3977 11.6935 12.0919 11.6153C11.6113 11.4924 11.0857 11.1445 10.801 10.7609C9.98948 9.66711 10.2388 8.13952 11.3531 7.37814C11.4736 7.29586 11.5798 7.23621 11.5892 7.24558C11.5985 7.25496 11.7483 7.76714 11.9219 8.38377C12.2573 9.57467 12.2995 9.67552 12.4975 9.75824C12.6388 9.8173 12.7555 9.81299 12.8855 9.74393C13.0368 9.66349 13.135 9.50924 13.1349 9.35186C13.1349 9.28136 12.9943 8.72714 12.8224 8.12027C12.6506 7.51339 12.51 7.00361 12.51 6.98746C12.51 6.9453 12.7989 6.95311 13.0725 7.00268ZM4.94503 7.6693C5.18053 7.9048 5.24132 7.98889 5.37991 8.27086C5.4685 8.45117 5.54988 8.65846 5.56072 8.73149L5.58047 8.8643H4.79522C4.36335 8.8643 4.00997 8.85383 4.00997 8.84105C4.00997 8.78211 4.61632 7.39555 4.6421 7.39555C4.65816 7.39555 4.79447 7.51874 4.94503 7.6693Z" fill="#1A1A1A"/>
</svg>
