<svg width="13" height="17" viewBox="0 0 13 17" fill="none" xmlns="http://www.w3.org/2000/svg">
<path fill-rule="evenodd" clip-rule="evenodd" d="M1.85316 0.465828C1.72916 0.520672 1.63054 0.647203 1.58766 0.806484C1.56457 0.892203 1.55766 1.39533 1.56616 2.37273C1.57829 3.77286 1.58063 3.81876 1.65038 4.03145C1.80326 4.49758 1.93735 4.67676 2.55316 5.23792C2.83995 5.49923 3.10919 5.7458 3.15148 5.78583L3.22841 5.85858L3.13023 5.96064C2.90751 6.19211 2.79145 6.59383 2.84626 6.94339C2.88704 7.20345 3.01426 7.43414 3.22391 7.62826L3.40763 7.79833L2.55338 10.5086L1.69913 13.2189L1.44935 13.2397C0.478071 13.3205 -0.181554 14.2412 0.0445708 15.2004C0.164946 15.7111 0.553633 16.1392 1.07579 16.3362L1.26207 16.4064L6.07457 16.4158C9.5426 16.4224 10.9394 16.4152 11.0746 16.3899C11.6678 16.2787 12.1852 15.7866 12.3228 15.2026C12.5494 14.2412 11.8917 13.3205 10.9207 13.2399L10.6685 13.2189L9.86429 10.6877C9.42194 9.29551 9.03751 8.07804 9.01004 7.98223L8.96004 7.80801L9.15944 7.60723C9.26913 7.49679 9.38951 7.34051 9.42694 7.25992C9.62251 6.83876 9.54044 6.27536 9.23775 5.96073C9.14066 5.85983 9.14025 5.85814 9.20085 5.80083C9.2345 5.76898 9.50257 5.52411 9.79654 5.2567C10.4357 4.6753 10.569 4.49611 10.7198 4.01583C10.7927 3.78333 10.7933 3.76948 10.7933 2.28145C10.7933 0.837641 10.791 0.777484 10.7308 0.675359C10.6964 0.616984 10.6286 0.539641 10.5801 0.503485C10.4947 0.439797 10.4598 0.437703 9.48082 0.437703C8.50841 0.437703 8.46647 0.440172 8.38347 0.502141C8.33601 0.537578 8.26819 0.605359 8.23276 0.652797C8.17141 0.734891 8.16785 0.786141 8.15851 1.72117L8.14866 2.70333H7.82257H7.49644V1.74711C7.49644 0.689266 7.48922 0.644328 7.29729 0.507391C7.20101 0.438735 7.18447 0.437703 6.18394 0.437703C4.77282 0.437703 4.87144 0.339297 4.87144 1.74711V2.70333H4.54532H4.21923L4.20938 1.72117C4.20004 0.786141 4.19648 0.734891 4.13513 0.652797C4.09969 0.605359 4.03191 0.537578 3.98448 0.502141C3.90223 0.440672 3.85319 0.43736 2.92391 0.430453C2.15629 0.424735 1.9291 0.432235 1.85316 0.465828ZM3.27782 2.33614C3.27791 3.25548 3.28157 3.31867 3.34004 3.41455C3.37419 3.47058 3.44794 3.54433 3.50398 3.57848C3.59948 3.63673 3.66291 3.64061 4.52088 3.6407C5.53494 3.64083 5.58757 3.63242 5.71835 3.44905C5.79319 3.34414 5.79335 3.34211 5.80238 2.35177L5.81144 1.35958H6.18394H6.55644L6.56551 2.35177C6.57813 3.73395 6.4856 3.64089 7.84701 3.6407C8.70497 3.64061 8.76841 3.63673 8.86391 3.57848C8.91994 3.54433 8.99369 3.47058 9.02785 3.41455C9.08632 3.31867 9.08997 3.25548 9.09007 2.33614L9.09019 1.35958H9.48316H9.87613L9.86441 2.52364C9.85147 3.80701 9.84794 3.83245 9.64626 4.09161C9.59172 4.16164 9.21979 4.5178 8.81972 4.88301L8.09232 5.54708H6.18554H4.27879L3.55001 4.88301C3.1492 4.5178 2.77654 4.16164 2.72188 4.09161C2.51998 3.8328 2.51641 3.8073 2.50348 2.52364L2.49176 1.35958H2.88473H3.27769L3.27782 2.33614ZM8.44894 6.51558C8.55907 6.55745 8.62476 6.71576 8.58238 6.8373C8.51941 7.01798 8.54835 7.01583 6.18394 7.01583C3.81954 7.01583 3.84848 7.01798 3.78551 6.8373C3.74482 6.72061 3.80769 6.55805 3.90923 6.51726C4.00926 6.47714 8.34354 6.47551 8.44894 6.51558ZM8.83885 10.5549C9.29201 11.9858 9.66901 13.174 9.67669 13.1955C9.68779 13.2266 8.97613 13.2346 6.18519 13.2346C2.86116 13.2346 2.6806 13.2317 2.69635 13.1799C2.72641 13.0811 4.02726 8.94923 4.18688 8.44551L4.34288 7.95333H6.17891H8.01494L8.83885 10.5549ZM11.1465 14.2772C11.3099 14.3904 11.4342 14.6285 11.4333 14.8266C11.4319 15.1032 11.2277 15.3809 10.9738 15.4514C10.8093 15.4971 1.55857 15.4971 1.39404 15.4514C1.24041 15.4088 1.06379 15.2518 0.992227 15.0942C0.846727 14.7739 1.00391 14.3586 1.32457 14.2159C1.40163 14.1816 2.27244 14.1754 6.21788 14.1809L11.0174 14.1877L11.1465 14.2772Z" fill="#1A1A1A"/>
</svg>
