<svg width="18" height="16" viewBox="0 0 18 16" fill="none" xmlns="http://www.w3.org/2000/svg">
<path d="M17.7489 0.138672H0.248884C0.15067 0.138672 0.0703125 0.219029 0.0703125 0.317243V1.74581C0.0703125 1.84403 0.15067 1.92439 0.248884 1.92439H17.7489C17.8471 1.92439 17.9275 1.84403 17.9275 1.74581V0.317243C17.9275 0.219029 17.8471 0.138672 17.7489 0.138672ZM17.7489 14.0672H0.248884C0.15067 14.0672 0.0703125 14.1476 0.0703125 14.2458V15.6744C0.0703125 15.7726 0.15067 15.853 0.248884 15.853H17.7489C17.8471 15.853 17.9275 15.7726 17.9275 15.6744V14.2458C17.9275 14.1476 17.8471 14.0672 17.7489 14.0672ZM17.7489 7.10296H0.248884C0.15067 7.10296 0.0703125 7.18331 0.0703125 7.28153V8.7101C0.0703125 8.80831 0.15067 8.88867 0.248884 8.88867H17.7489C17.8471 8.88867 17.9275 8.80831 17.9275 8.7101V7.28153C17.9275 7.18331 17.8471 7.10296 17.7489 7.10296Z" fill="#1A1A1A"/>
</svg>
