<svg width="14" height="12" viewBox="0 0 14 12" fill="none" xmlns="http://www.w3.org/2000/svg">
<path d="M4.93822 9.07982L9.06289 9.07982C9.13164 9.07982 9.18788 9.02206 9.18788 8.95146V7.60369C9.18788 7.53309 9.13164 7.47533 9.06289 7.47533H8.43794C8.3692 7.47533 8.31295 7.53309 8.31295 7.60369V8.18131H5.68816V7.60369C5.68816 7.53309 5.63191 7.47533 5.56317 7.47533H4.93822C4.86947 7.47533 4.81323 7.53309 4.81323 7.60369L4.81323 8.95146C4.81323 9.02206 4.86947 9.07982 4.93822 9.07982ZM13.9844 4.41717L13.6141 3.75291C13.5975 3.72363 13.5702 3.7023 13.5383 3.69358C13.5064 3.68486 13.4724 3.68946 13.4438 3.70638L12.6517 4.18131L11.4283 0.712395C11.3637 0.505406 11.2368 0.324853 11.0657 0.196804C10.8947 0.0687549 10.6885 -0.000163128 10.4768 2.89951e-07L3.70706 2.89951e-07C3.16492 2.89951e-07 2.6837 0.359407 2.51653 0.890494L1.351 4.18291L0.557308 3.70798C0.528693 3.69107 0.494722 3.68646 0.462815 3.69518C0.430907 3.7039 0.403655 3.72523 0.387009 3.75451L0.0167251 4.41717C-0.0176473 4.47814 0.00266368 4.55515 0.062034 4.59045L1.00571 5.15523L0.779166 5.79703C0.760417 5.84838 0.751043 5.90293 0.751043 5.95748L0.751043 11.5443C0.751043 11.7962 0.935403 12 1.16195 12H2.21812C2.41029 12 2.57746 11.8508 2.61808 11.6422L2.73839 11.0373L11.2627 11.0373L11.383 11.6422C11.4252 11.8508 11.5908 12 11.783 12H12.8392C13.0657 12 13.2501 11.7962 13.2501 11.5443V5.95748C13.2501 5.90293 13.2407 5.84838 13.2219 5.79703L12.9954 5.15523L13.9375 4.59045C13.9659 4.57364 13.9867 4.54606 13.9954 4.51365C14.0042 4.48124 14.0002 4.4466 13.9844 4.41717ZM12.1252 6.07942V9.88207L1.87595 9.88207L1.87595 6.07942L2.11969 5.38949L11.8814 5.38949L12.1252 6.07942ZM3.57426 1.28359L3.58207 1.26274L3.58832 1.24188C3.60551 1.18893 3.65238 1.15363 3.70706 1.15363L10.3878 1.15363L11.5658 4.49097L2.43841 4.49097L3.57426 1.28359Z" fill="#1A1A1A"/>
</svg>
