<svg width="16" height="17" viewBox="0 0 16 17" fill="none" xmlns="http://www.w3.org/2000/svg">
<path fill-rule="evenodd" clip-rule="evenodd" d="M3.36852 0.458555C2.4008 0.636055 1.52405 1.34249 0.877983 2.46527C0.332358 3.41346 0.00238905 4.63299 1.40456e-05 5.70996C-0.00367346 7.40177 0.718764 8.64302 2.11698 9.34715L2.34255 9.46074L2.34245 9.65568C2.34239 9.76287 2.3148 11.0318 2.28108 12.4756C2.19295 16.25 2.19377 16.0541 2.26611 16.1777C2.36486 16.3464 2.47955 16.4131 2.67067 16.4131C2.86161 16.4131 2.97645 16.3464 3.07486 16.1783C3.13205 16.0806 3.13911 15.9135 3.20608 13.0722C3.24498 11.4206 3.27752 9.83027 3.27833 9.53809C3.2803 8.83774 3.28555 8.8474 2.78177 8.62596C2.01311 8.28805 1.45139 7.75718 1.18058 7.11265C1.00317 6.6904 0.955796 6.3903 0.954202 5.67871C0.952577 4.96502 0.988671 4.6359 1.13058 4.06934C1.32914 3.27662 1.61542 2.72359 2.07467 2.24552C2.76367 1.52824 3.63877 1.30049 4.49911 1.61446C5.63317 2.02834 6.40002 3.31327 6.56099 5.06934C6.66289 6.18087 6.48955 7.04277 6.04139 7.6533C5.7662 8.02815 5.25205 8.40902 4.71464 8.63612C4.42895 8.75684 4.29902 8.86815 4.25661 9.02862C4.24033 9.09024 4.25733 10.3404 4.2988 12.1318C4.33699 13.7818 4.37298 15.3428 4.37883 15.6006C4.38789 16.001 4.39855 16.0848 4.45192 16.1754C4.5527 16.3466 4.66645 16.4131 4.85817 16.4131C5.05364 16.4131 5.16827 16.3445 5.26352 16.1705C5.32489 16.0584 5.32486 16.045 5.25449 12.8605C5.21564 11.1019 5.18442 9.61755 5.18508 9.56193C5.1862 9.46805 5.20258 9.45255 5.41186 9.34715C6.87139 8.61215 7.60783 7.25815 7.51833 5.47434C7.47108 4.5328 7.25617 3.69812 6.84286 2.85059C6.22467 1.58299 5.38139 0.778023 4.38942 0.508711C4.16998 0.449148 3.5783 0.420055 3.36852 0.458555ZM10.6163 0.493148C10.5449 0.530867 10.475 0.602742 10.4366 0.678023C10.3752 0.798555 10.3738 0.858086 10.3738 3.42746V6.05371H9.90505H9.4363V3.45421C9.4363 0.893274 9.43533 0.852711 9.37193 0.721711C9.30336 0.580086 9.11627 0.459961 8.9643 0.459961C8.83274 0.459961 8.61767 0.591336 8.55505 0.709961C8.49983 0.814555 8.49771 0.955117 8.50636 3.92871L8.51542 7.03809L8.59855 7.34068C8.74242 7.86465 9.04117 8.4024 9.40046 8.78418C9.57405 8.96865 9.94468 9.25662 10.1725 9.38402L10.3766 9.49815L10.3586 9.95562C10.3486 10.2072 10.312 11.674 10.2771 13.2151L10.2136 16.0171L10.2785 16.1444C10.3512 16.287 10.5292 16.3975 10.6863 16.3975C10.8343 16.3975 11.0068 16.2933 11.0828 16.1581C11.1499 16.0388 11.1517 15.9955 11.2331 12.5625C11.3113 9.26693 11.3127 9.08184 11.2619 8.97459C11.2002 8.84471 11.1247 8.78899 10.8569 8.67599C10.3151 8.44734 9.84999 7.9788 9.62092 7.43093C9.57371 7.31799 9.52533 7.17287 9.51346 7.1084L9.49183 6.99121H11.7801H14.0683L14.0484 7.09705C13.989 7.41368 13.7179 7.89009 13.4345 8.17584C13.2382 8.37374 12.8879 8.61009 12.6689 8.69243C12.4556 8.77262 12.3592 8.84618 12.2978 8.97543C12.2487 9.07896 12.2495 9.30349 12.3108 12.562C12.3839 16.4542 12.3624 16.1847 12.6109 16.3266C12.8535 16.4651 13.1439 16.3762 13.2528 16.1301C13.3132 15.9934 13.3134 15.9585 13.2669 13.3743C13.241 11.9347 13.2114 10.4744 13.2012 10.1293L13.1827 9.50174L13.4267 9.35927C14.0848 8.97499 14.6035 8.35099 14.859 7.63615C15.0616 7.06934 15.0611 7.07971 15.0612 3.79234L15.0613 0.827836L14.9931 0.706398C14.9211 0.578461 14.7286 0.459961 14.5926 0.459961C14.4566 0.459961 14.264 0.578461 14.1921 0.706398L14.1238 0.827836V3.44077V6.05371H13.6551H13.1863V3.42746C13.1863 0.857055 13.185 0.798586 13.1234 0.677898C13.0526 0.539242 12.8726 0.428711 12.7176 0.428711C12.5625 0.428711 12.3825 0.539242 12.3117 0.677898C12.2501 0.798586 12.2488 0.857055 12.2488 3.42746V6.05371H11.7801H11.3113V3.42746C11.3113 0.857055 11.31 0.798586 11.2484 0.677898C11.1331 0.451867 10.8508 0.369367 10.6163 0.493148Z" fill="#1A1A1A"/>
</svg>
