<svg width="13" height="17" viewBox="0 0 13 17" fill="none" xmlns="http://www.w3.org/2000/svg">
<path fill-rule="evenodd" clip-rule="evenodd" d="M5.99702 0.448761C5.82746 0.476854 5.50396 0.593636 5.34077 0.685667C5.0763 0.834823 4.74968 1.1811 4.60458 1.46623L4.4814 1.70826L4.1989 1.70842C3.86065 1.70857 3.61933 1.76498 3.32514 1.91264C2.92999 2.11098 2.56699 2.50773 2.41955 2.90242C2.36655 3.04423 2.35868 3.05064 2.19508 3.0846C1.56061 3.21632 0.961457 3.80364 0.789488 4.46242C0.722738 4.71807 0.722113 5.16542 0.788144 5.41823L0.838832 5.61226L0.580988 5.87136C0.387644 6.06564 0.293894 6.19004 0.206113 6.36882C-0.0722938 6.93598 -0.068575 7.54136 0.216769 8.09917L0.344644 8.34917L1.05696 12.2419C1.55943 14.9876 1.78583 16.1598 1.82543 16.2202C1.8563 16.2674 1.93539 16.3334 2.00121 16.3669C2.11836 16.4267 2.2078 16.4278 6.33236 16.4198L10.5439 16.4117L10.6416 16.342C10.6953 16.3036 10.7609 16.2263 10.7872 16.1701C10.8135 16.1139 11.1527 14.3283 11.5409 12.202C12.228 8.43945 12.2497 8.33073 12.3562 8.13707C12.5815 7.72717 12.6457 7.21476 12.5291 6.75842C12.4359 6.39414 12.3018 6.16664 12.0059 5.87092L11.7463 5.61139L11.7997 5.43342C11.873 5.1896 11.8718 4.69267 11.7973 4.44292C11.5986 3.77635 11.0289 3.22432 10.3928 3.08198C10.2328 3.04617 10.2206 3.0366 10.1807 2.91573C10.1138 2.71304 9.86837 2.36317 9.66649 2.18276C9.32071 1.87376 8.87793 1.70914 8.3889 1.70776L8.1064 1.70695L7.99783 1.4812C7.8418 1.1567 7.47293 0.788917 7.14749 0.633386C6.78677 0.461011 6.34799 0.390604 5.99702 0.448761ZM6.74993 1.49385C7.04905 1.65329 7.22283 1.92314 7.26421 2.29248C7.29168 2.53732 7.36918 2.66485 7.53674 2.74092C7.7094 2.81929 7.76183 2.81745 8.00965 2.72417C8.39655 2.57854 8.74865 2.63495 9.02965 2.88757C9.21721 3.05623 9.29896 3.20495 9.35727 3.48373C9.43096 3.83589 9.55687 3.94873 9.90327 3.9731C10.2919 4.00042 10.4578 4.0727 10.6694 4.30695C10.9895 4.66123 11.0027 5.12829 10.705 5.56448C10.6441 5.6536 10.622 5.72526 10.622 5.83329C10.622 6.05985 10.7121 6.16664 11.0439 6.33354C11.2652 6.44489 11.3473 6.50582 11.4379 6.62623C11.5696 6.80111 11.6533 7.03273 11.6533 7.22207C11.6533 7.3922 11.5771 7.64651 11.4948 7.75111L11.43 7.83354H6.29377H1.15752L1.09836 7.74761C0.991425 7.59229 0.950144 7.44611 0.95055 7.22417C0.9513 6.81645 1.16555 6.50414 1.57252 6.31748C1.86789 6.18198 1.94111 6.09914 1.9593 5.87985C1.97218 5.72445 1.96261 5.68876 1.86483 5.52804C1.7203 5.29048 1.68452 5.17454 1.68452 4.94382C1.68452 4.65448 1.75977 4.47245 1.96377 4.26823C2.16677 4.06501 2.34074 3.99373 2.67593 3.97645C2.91868 3.96392 2.97368 3.94251 3.09668 3.81279C3.15583 3.75039 3.19443 3.65814 3.22708 3.50107C3.25258 3.37839 3.30196 3.2221 3.3368 3.15379C3.42696 2.97714 3.68714 2.75432 3.87699 2.69126C4.08543 2.62204 4.42302 2.64354 4.63405 2.73951C4.81158 2.82026 4.98186 2.80832 5.12702 2.70498C5.24749 2.6192 5.2988 2.51082 5.32499 2.28664C5.41024 1.5576 6.12424 1.16039 6.74993 1.49385ZM7.65296 4.34135C7.48536 4.45542 7.4189 4.56857 7.4189 4.73979C7.4189 4.9797 7.63677 5.20854 7.86521 5.20854C8.0578 5.20854 8.22534 5.28001 8.37652 5.4267C8.52637 5.5721 8.57043 5.67514 8.60712 5.9662C8.65105 6.31479 9.03568 6.51117 9.31102 6.32564C9.47355 6.2161 9.53705 6.08089 9.53212 5.85498C9.51655 5.14436 8.97655 4.48445 8.27537 4.31917C7.97958 4.24945 7.77743 4.25664 7.65296 4.34135ZM3.16008 4.85426C3.00083 4.93276 2.91889 5.07092 2.91889 5.26095C2.91889 5.61501 3.25693 5.83132 3.57196 5.67882C3.76574 5.58504 3.8529 5.43957 3.83389 5.24179C3.80055 4.89485 3.46696 4.70301 3.16008 4.85426ZM4.3564 6.2577C4.12252 6.37932 4.02765 6.56792 4.08786 6.79154C4.19218 7.17882 4.65133 7.27082 4.91518 6.95726C5.08424 6.75636 4.99724 6.40773 4.7459 6.27885C4.58474 6.1962 4.48502 6.19079 4.3564 6.2577ZM3.60458 8.93511C3.62799 9.14495 4.09077 15.3124 4.09077 15.4144V15.4909L3.34858 15.4825L2.60639 15.4742L2.00605 12.1929C1.67586 10.3882 1.40514 8.88004 1.40449 8.84136L1.40327 8.77104H2.49477H3.58627L3.60458 8.93511ZM8.04427 8.88823C8.03546 8.9527 7.92174 10.4468 7.79155 12.2085C7.66137 13.9703 7.54924 15.4294 7.5424 15.4511C7.53262 15.4821 7.26577 15.4888 6.28724 15.4823L5.04455 15.4742L4.79218 12.146C4.65336 10.3156 4.54505 8.80739 4.55149 8.79448C4.55793 8.78157 5.35005 8.77104 6.31174 8.77104H8.06027L8.04427 8.88823ZM11.1961 8.81792C11.1939 8.8351 10.9199 10.3433 10.5872 12.1695L9.98237 15.4898H9.23971C8.55543 15.4898 8.49702 15.4855 8.49702 15.4355C8.49702 15.3619 8.95896 9.21232 8.98299 8.96595L9.00208 8.77026L10.1011 8.77845C10.8109 8.78376 11.1987 8.79773 11.1961 8.81792Z" fill="#1A1A1A"/>
</svg>
