<svg width="16" height="17" viewBox="0 0 16 17" fill="none" xmlns="http://www.w3.org/2000/svg">
<path fill-rule="evenodd" clip-rule="evenodd" d="M12.4609 0.491975C12.3895 0.529694 12.3196 0.601569 12.2812 0.67685C12.2232 0.790538 12.2183 0.860288 12.2183 1.58163V2.36319L7.78865 2.37338C3.40315 2.38348 3.35631 2.38426 3.09334 2.44957C2.29715 2.64732 1.70297 2.96104 1.17125 3.46435C-0.0549403 4.62507 -0.346065 6.34442 0.429372 7.84585C0.940903 8.83623 1.87737 9.54501 2.99959 9.79117C3.22893 9.84145 3.40603 9.84942 4.29647 9.84942C5.45078 9.84942 5.58081 9.83239 5.98712 9.62798C6.1039 9.5692 6.20843 9.53173 6.21943 9.54467C6.23047 9.55757 6.30822 9.67364 6.39225 9.80254C6.67328 10.2336 7.06481 10.5603 7.48609 10.7152C7.72781 10.804 8.21318 10.8129 8.46834 10.7332C8.88343 10.6034 9.32468 10.2376 9.62831 9.77145C9.71843 9.63307 9.80018 9.52445 9.80993 9.53001C9.81972 9.5356 9.91962 9.58392 10.032 9.63739C10.4207 9.82239 10.5353 9.84057 11.4137 9.85657L12.2183 9.8712V11.0881C12.2183 12.2461 12.2153 12.311 12.1554 12.4284C12.1149 12.5078 12.0486 12.5741 11.9692 12.6146C11.8533 12.6737 11.7863 12.6775 10.8672 12.6775H9.88853L9.67062 12.4569C9.43912 12.2224 9.11815 12.0034 8.85546 11.9006C8.16843 11.6318 7.33543 11.7155 6.73584 12.1138C5.48443 12.945 5.29006 14.6355 6.32293 15.7047C6.88597 16.2875 7.68365 16.5385 8.46178 16.3778C8.93062 16.281 9.28418 16.0872 9.65584 15.7234L9.89021 15.494L11.0777 15.4819C12.1615 15.4708 12.2858 15.4641 12.5006 15.4048C13.1422 15.2277 13.6575 14.9365 14.0714 14.5172C14.4901 14.0929 14.7667 13.6009 14.9467 12.9598C15.0105 12.7329 15.0132 12.6497 15.0235 10.6519L15.0341 8.57945L15.2367 8.32379C15.7512 7.67454 16.0333 6.78329 15.9902 5.94317C15.9502 5.16285 15.6917 4.45123 15.2272 3.84188L15.0308 3.58435V2.19219C15.0308 0.858632 15.0282 0.79485 14.9679 0.676725C14.9274 0.597319 14.8611 0.530944 14.7817 0.490444C14.6652 0.431038 14.6005 0.4276 13.618 0.428913C12.6441 0.430225 12.5702 0.434225 12.4609 0.491975ZM14.0933 2.09941C14.0933 2.50332 14.0873 2.83379 14.08 2.83379C14.0727 2.83379 13.9552 2.77988 13.819 2.71398C13.6827 2.64807 13.4777 2.56738 13.3635 2.53466L13.1558 2.47519V1.9201V1.36504H13.6246H14.0933V2.09941ZM12.9527 3.38823C13.2997 3.48529 13.7354 3.70716 14.0141 3.92866C14.4526 4.27713 14.8229 4.84967 14.9734 5.41192C15.0723 5.78151 15.0727 6.44026 14.9742 6.78692C14.7483 7.58154 14.2015 8.21995 13.4215 8.59948C12.8654 8.87004 12.6904 8.90326 11.734 8.91985C10.86 8.93501 10.7076 8.91907 10.4155 8.78207C10.162 8.6632 9.955 8.45448 9.75737 8.11867C9.52075 7.7166 9.2415 7.44154 8.89803 7.27226C7.90468 6.78263 6.81968 7.1282 6.24065 8.11867C6.04425 8.4546 5.83818 8.6627 5.58372 8.78207C5.29031 8.9197 5.14281 8.93432 4.18709 8.92039C3.16512 8.90548 3.01309 8.87929 2.51522 8.63248C1.94365 8.34914 1.52868 7.93898 1.24868 7.38067C1.01834 6.92138 0.957935 6.66342 0.955935 6.13067C0.954591 5.76563 0.966153 5.65176 1.02565 5.44317C1.3329 4.36645 2.24593 3.56138 3.39772 3.3517C3.60031 3.31479 4.3859 3.30841 8.17146 3.31288L12.7027 3.31826L12.9527 3.38823ZM8.41262 8.07651C8.61893 8.16798 8.84 8.38595 8.96643 8.62257C9.0679 8.81251 9.07147 8.82945 9.0309 8.92742C8.90131 9.24023 8.54765 9.66264 8.30784 9.79101C8.16512 9.86745 7.83406 9.86745 7.69134 9.79101C7.45168 9.66273 7.09787 9.24026 6.9685 8.92795C6.92875 8.83195 6.93212 8.81254 7.0169 8.64957C7.17815 8.33973 7.41447 8.12564 7.69722 8.03317C7.87865 7.97382 8.2289 7.99504 8.41262 8.07651ZM14.0933 10.882C14.0933 12.1761 14.0852 12.4697 14.0436 12.671C13.8536 13.5909 13.1317 14.3128 12.2118 14.5028C12.0272 14.5409 11.779 14.5525 11.1493 14.5525H10.3277V14.0838V13.615H11.0996C11.9429 13.615 12.103 13.5948 12.3863 13.4524C12.7489 13.2703 13.0378 12.8943 13.1212 12.4963C13.1434 12.3903 13.1558 11.8608 13.1558 11.0237V9.71664L13.3668 9.64848C13.4828 9.61098 13.6832 9.52648 13.8121 9.4607C13.941 9.39492 14.057 9.33945 14.0699 9.33745C14.0828 9.33545 14.0933 10.0305 14.0933 10.882ZM8.28712 12.7124C8.55784 12.7693 8.7819 12.8928 8.98534 13.0972C9.79128 13.9068 9.35193 15.2709 8.22287 15.4645C7.77947 15.5405 7.34187 15.3976 7.01384 15.0695C6.459 14.5147 6.459 13.6532 7.01384 13.0979C7.35903 12.7524 7.8175 12.6136 8.28712 12.7124ZM7.77337 13.6795C7.64143 13.7491 7.53084 13.9335 7.53084 14.0838C7.53084 14.2389 7.64137 14.4189 7.78003 14.4896C7.84784 14.5242 7.94665 14.5525 7.99959 14.5525C8.23737 14.5525 8.46834 14.3216 8.46834 14.0838C8.46834 13.9287 8.35781 13.7487 8.21915 13.678C8.06518 13.5994 7.92415 13.5999 7.77337 13.6795Z" fill="#1A1A1A"/>
</svg>
