<svg width="16" height="17" viewBox="0 0 16 17" fill="none" xmlns="http://www.w3.org/2000/svg">
<path fill-rule="evenodd" clip-rule="evenodd" d="M1.07613 0.468609C0.813001 0.534453 0.616032 0.646891 0.417626 0.844547C-0.136905 1.39698 -0.13653 2.2612 0.418501 2.8162C0.866876 3.26458 1.48828 3.35833 2.06763 3.06498L2.23478 2.98036L4.61638 4.64426C5.92628 5.55945 6.998 6.31673 6.998 6.3272C6.998 6.33764 6.2006 6.42826 5.226 6.52858C3.55444 6.70064 3.24906 6.74539 2.85622 6.87564C2.79935 6.89451 2.78847 6.87705 2.75441 6.71217C2.572 5.82901 1.83063 5.0977 0.928939 4.91145C0.441564 4.81076 0.183251 4.87111 0.0590323 5.11458C-0.00437398 5.23886 -0.00556147 5.27442 0.00500103 6.74698C0.0155635 8.22217 0.017251 8.2567 0.0881573 8.47108C0.220751 8.87208 0.398032 9.16836 0.669564 9.44286C0.807251 9.58204 0.958376 9.72267 1.00544 9.75536C1.07313 9.80242 1.10422 9.86698 1.15438 10.0648C1.2715 10.5269 1.48778 10.9116 1.83259 11.271L2.03038 11.4772L1.99769 11.7076C1.9455 12.0756 1.79813 12.3496 1.43991 12.7449C1.32075 12.8764 1.24416 12.991 1.23194 13.0561C1.20366 13.2069 1.69028 15.3752 1.81091 15.6359C1.978 15.9969 2.3695 16.3034 2.77297 16.389C2.87578 16.4109 3.31435 16.4242 3.92972 16.4242C4.83466 16.4242 4.93022 16.4192 5.02872 16.3664C5.2245 16.2614 5.26238 16.177 5.274 15.8204C5.28631 15.443 5.23075 15.1647 5.08303 14.8637C4.96369 14.6205 4.63572 14.2622 4.409 14.1273C4.26475 14.0415 4.24438 14.0143 4.16819 13.8064L4.08494 13.5792L4.21138 13.442C4.61131 13.0082 5.01519 12.3007 5.15763 11.7845L5.23163 11.5163L5.32575 11.5359C5.37753 11.5467 5.75738 11.6652 6.16988 11.7993C6.58238 11.9333 7.0736 12.0805 7.2615 12.1264C7.64753 12.2209 8.34644 12.3301 8.56575 12.3303C8.83313 12.3306 8.81047 12.1966 8.81088 13.7791C8.81128 15.2816 8.81681 15.3473 8.96981 15.6662C9.06741 15.8696 9.38085 16.1761 9.59175 16.2744C9.88281 16.4101 10.029 16.4242 11.1437 16.4242C12.1542 16.4242 12.1969 16.4218 12.3104 16.358C12.4881 16.2581 12.5606 16.1038 12.5601 15.8262C12.5589 15.1529 12.2498 14.4375 11.7617 13.9781L11.623 13.8476V12.6634V11.4792L11.8391 11.1939C12.31 10.5722 12.6533 9.91586 12.9527 9.06483L13.0846 8.68983L14.0335 8.67236C15.0662 8.65333 15.1114 8.64617 15.3836 8.45892C15.5256 8.36123 15.6413 8.22633 15.7287 8.05679C15.812 7.89498 15.998 7.17779 15.998 7.0183C15.998 6.69742 15.8199 6.34339 15.5656 6.15886C15.4882 6.10273 15.149 5.9348 14.8117 5.78567L14.1985 5.51451L14.144 5.30305C13.9843 4.68295 13.5714 4.18273 12.9811 3.8942L12.7298 3.77136L12.4724 3.21395C12.3308 2.90739 12.1889 2.6137 12.157 2.5613C12.0896 2.45036 11.9218 2.3617 11.7793 2.3617C11.5268 2.3617 11.5433 2.34095 10.2405 4.29651C9.56972 5.30345 9.01922 6.12951 9.01725 6.1322C9.01525 6.13489 8.88982 6.1497 8.7385 6.16514L8.46335 6.19317L8.2385 6.0327C8.11481 5.94445 6.95894 5.13611 5.66988 4.23639C4.38081 3.33667 3.1976 2.50967 3.0405 2.39864C2.75906 2.19973 2.75525 2.19533 2.78269 2.09973C2.84797 1.87208 2.79647 1.49892 2.65925 1.20545C2.5545 0.981422 2.25122 0.677453 2.02925 0.573984C1.71406 0.427078 1.38678 0.390891 1.07613 0.468609ZM1.62381 1.42461C1.76247 1.49536 1.873 1.67539 1.873 1.83045C1.873 2.06823 1.64203 2.2992 1.40425 2.2992C1.24919 2.2992 1.06916 2.18867 0.998407 2.05002C0.879345 1.81664 0.94897 1.57139 1.17278 1.43592C1.32241 1.34536 1.46159 1.34186 1.62381 1.42461ZM12.0721 4.51358C12.1043 4.54911 12.1957 4.60151 12.2753 4.63001C12.3548 4.65851 12.4813 4.70373 12.5563 4.73055C12.7222 4.78973 13.0026 5.03955 13.1112 5.2248C13.2046 5.3842 13.2783 5.64076 13.2789 5.80826C13.2791 5.87339 13.3076 5.98226 13.3423 6.05017C13.4155 6.1937 13.4343 6.20417 14.3261 6.59695C14.9646 6.87817 15.0605 6.93198 15.0605 7.00911C15.0605 7.12973 14.8923 7.63304 14.8356 7.68201C14.7779 7.73186 14.675 7.7367 13.6742 7.73683C12.6409 7.73692 12.5702 7.74051 12.4763 7.79783C12.3437 7.87867 12.2938 7.9622 12.2332 8.20545C12.1605 8.49695 11.9653 9.08054 11.9407 9.07992C11.9293 9.07964 11.7652 8.96433 11.5761 8.82367C11.1303 8.49201 10.5055 7.86498 10.2594 7.50233C10.0758 7.23173 9.87475 6.86339 9.82719 6.71036C9.80813 6.64901 9.95825 6.40626 10.7528 5.21395L11.7011 3.79077L11.8573 4.11986C11.9433 4.30086 12.04 4.47801 12.0721 4.51358ZM11.8655 5.55114C11.7336 5.6208 11.623 5.80517 11.623 5.95545C11.623 6.11051 11.7335 6.29055 11.8722 6.3613C12.0264 6.43998 12.1549 6.44108 12.3042 6.36492C12.4398 6.29576 12.5605 6.10289 12.5605 5.95545C12.5605 5.80801 12.4398 5.61514 12.3042 5.54598C12.157 5.47092 12.0143 5.47261 11.8655 5.55114ZM1.22463 6.02461C1.63453 6.28323 1.87181 6.74173 1.87263 7.2767L1.873 7.51983L1.70494 7.71795C1.52325 7.93211 1.34453 8.23058 1.25772 8.46476C1.22778 8.54558 1.19503 8.6117 1.185 8.6117C1.15434 8.6117 1.02347 8.32442 0.978564 8.15858C0.946939 8.04179 0.936157 7.73548 0.935876 6.94555L0.935501 5.88873L1.00581 5.90983C1.04447 5.92142 1.14297 5.97308 1.22463 6.02461ZM9.13253 7.43908C9.23231 7.63617 9.39028 7.90383 9.4836 8.03386C9.62928 8.23695 9.64557 8.27326 9.59903 8.29136C9.56925 8.30295 9.17222 8.44823 8.71675 8.61426L7.88863 8.91611L7.88031 8.0717C7.87572 7.6073 7.87991 7.21939 7.8896 7.20967C7.90313 7.19617 8.54869 7.1168 8.90425 7.08492C8.93435 7.08223 9.016 7.20892 9.13253 7.43908ZM6.9355 9.1742C6.9355 10.2055 6.92653 11.0492 6.9156 11.0492C6.90463 11.0492 6.63394 10.9638 6.31403 10.8594C5.30344 10.5295 4.84122 10.4395 4.64238 10.5339C4.46447 10.6183 4.41103 10.7224 4.34319 11.1166C4.26988 11.5424 4.19897 11.756 4.01788 12.0964C3.84344 12.4243 3.67056 12.6574 3.36791 12.9726C3.02347 13.3314 3.02019 13.3554 3.23188 13.9644C3.49778 14.7293 3.48872 14.7148 3.79488 14.8665C3.898 14.9177 4.02235 14.9973 4.07122 15.0434C4.15797 15.1253 4.3105 15.3884 4.3105 15.4561C4.3105 15.4798 4.099 15.4872 3.60956 15.4805C2.95856 15.4718 2.90253 15.4665 2.82244 15.4066C2.65541 15.2818 2.62769 15.2028 2.41719 14.2514L2.20953 13.3129L2.38519 13.0795C2.71766 12.6377 2.87913 12.2478 2.93472 11.7523C2.96325 11.4979 2.95763 11.2852 2.91713 11.0871C2.90906 11.0479 2.77175 10.8861 2.61194 10.7278C2.38541 10.5033 2.296 10.3882 2.20616 10.2055C2.09 9.96917 1.9991 9.62614 1.9991 9.4242C1.9991 9.21839 2.0905 8.87739 2.20825 8.64395C2.43863 8.18726 2.95516 7.78117 3.44175 7.67423C3.59278 7.64105 6.5966 7.31245 6.83394 7.30317L6.9355 7.2992V9.1742ZM10.5992 9.23939C10.7402 9.36117 11.0071 9.56795 11.1924 9.69889C11.3777 9.82983 11.5293 9.94679 11.5293 9.95883C11.5293 10.0053 11.0939 10.6375 10.9255 10.8357C10.8281 10.9504 10.7342 11.0814 10.7169 11.1268C10.6975 11.1781 10.6855 11.7744 10.6855 12.695C10.6855 14.3804 10.6759 14.3118 10.9382 14.5043C11.2196 14.7109 11.4726 15.0658 11.5549 15.3695L11.5867 15.4867H10.8536C10.1805 15.4867 10.1104 15.4815 9.99719 15.4238C9.91778 15.3833 9.85141 15.3169 9.81091 15.2375C9.75019 15.1185 9.748 15.0562 9.748 13.4516V11.7891L9.67188 11.6591C9.56166 11.4711 9.44494 11.4325 8.91988 11.4102C8.51935 11.3932 8.18069 11.3586 7.95835 11.3121L7.87181 11.294L7.88022 10.6045L7.88863 9.91492L9.10738 9.46833C9.77769 9.2227 10.3299 9.02089 10.3345 9.01983C10.3392 9.0188 10.4583 9.11761 10.5992 9.23939Z" fill="#1A1A1A"/>
</svg>
