<svg width="16" height="17" viewBox="0 0 16 17" fill="none" xmlns="http://www.w3.org/2000/svg">
<path d="M7.53248 1.44881C7.53248 0.662313 7.56433 0.568063 7.86636 0.461001C7.93195 0.437751 8.0067 0.423907 8.03248 0.430251C8.19092 0.469157 8.24345 0.492188 8.30995 0.551876C8.45295 0.680219 8.46998 0.775594 8.46998 1.44881C8.46998 2.14787 8.45152 2.2325 8.27083 2.36141C8.13445 2.45866 7.86801 2.45866 7.73164 2.36141C7.55095 2.2325 7.53248 2.14787 7.53248 1.44881Z" fill="#1A1A1A"/>
<path d="M12.7647 3.98422C12.8147 3.88987 13.6068 3.09831 13.7044 3.04516C13.8043 2.99072 14.0073 3.00366 14.1187 3.07156C14.3228 3.196 14.4081 3.48687 14.3003 3.69047C14.2469 3.79112 13.4839 4.55 13.3861 4.59959C13.2778 4.65456 13.0593 4.64078 12.9463 4.57187C12.7442 4.44866 12.6611 4.17975 12.7647 3.98422Z" fill="#1A1A1A"/>
<path d="M1.53248 3.54047C1.53248 3.39019 1.64307 3.20581 1.77501 3.13616C1.92392 3.05756 2.0667 3.05594 2.21342 3.13119C2.27717 3.16387 2.50723 3.372 2.7246 3.59369C3.02554 3.90056 3.12792 4.02594 3.15367 4.11919C3.24982 4.4675 2.93085 4.78675 2.58035 4.693C2.48151 4.66656 2.36792 4.57409 2.05326 4.26394C1.64035 3.85697 1.53248 3.70709 1.53248 3.54047Z" fill="#1A1A1A"/>
<path fill-rule="evenodd" clip-rule="evenodd" d="M3.16754 8.11859C3.28101 5.76087 5.00645 3.88619 7.39186 3.52884C7.44342 3.52112 7.76686 3.51925 8.11061 3.52472C8.64676 3.53322 8.78226 3.54575 9.06373 3.61284C11.2169 4.126 12.7258 5.9284 12.8343 8.11681C12.908 9.60275 12.237 11.1289 11.1069 12.0458L10.9075 12.2076L10.907 13.5069C10.9065 14.9178 10.8932 15.0578 10.7315 15.355C10.6347 15.5328 10.3807 15.7949 10.2056 15.8975C10.1357 15.9384 9.99436 15.9979 9.89145 16.0296C9.71914 16.0828 9.56851 16.0873 7.98561 16.0873C6.28036 16.0873 6.26533 16.0868 6.07201 16.0168C5.96486 15.9781 5.83126 15.9185 5.77514 15.8845C5.61529 15.7875 5.36148 15.5213 5.27195 15.3567C5.10914 15.0576 5.09595 14.9193 5.09545 13.5069L5.09498 12.2076L4.89554 12.0458C3.76632 11.1296 3.09595 9.60606 3.16754 8.11859ZM11.734 9.47065C12.414 7.24096 10.9729 4.8955 8.6767 4.49509C8.33226 4.43503 7.63879 4.43594 7.30114 4.49694C6.55461 4.63175 5.76395 5.04815 5.23532 5.58497C3.56348 7.28262 3.77076 10.0565 5.67473 11.4645C5.80726 11.5626 5.88816 11.6177 5.93845 11.6933C6.02257 11.8197 6.0211 12.003 6.03248 12.539L6.04811 13.2748H9.95436L9.96999 12.5405C9.98083 12.0301 9.9977 11.7849 10.0253 11.7367C10.0471 11.6986 10.1774 11.5817 10.3149 11.4771C11.0008 10.955 11.4939 10.2578 11.734 9.47065ZM9.7167 15.0873C9.91386 14.9712 9.95311 14.8845 9.96511 14.5383L9.97583 14.228H6.02664L6.03736 14.5383C6.04936 14.8845 6.08861 14.9712 6.28576 15.0873C6.38814 15.1476 6.44804 15.1498 8.00123 15.1498C9.55442 15.1498 9.61433 15.1476 9.7167 15.0873Z" fill="#1A1A1A"/>
<path d="M13.9879 8.35609C13.9853 8.18137 14.0493 8.07047 14.2197 7.95453C14.3187 7.88712 14.3502 7.88422 14.9777 7.88422C15.517 7.88422 15.6513 7.89315 15.7393 7.93493C16.0793 8.09628 16.0772 8.59384 15.7358 8.75912C15.6077 8.82112 15.5582 8.82465 14.943 8.81568C14.3374 8.80684 14.2802 8.80112 14.2007 8.74165C14.0485 8.62793 13.9904 8.52259 13.9879 8.35609Z" fill="#1A1A1A"/>
<path d="M0.270507 8.886C-0.0738991 8.71925 -0.0813053 8.22846 0.258039 8.06118C0.342539 8.01953 0.476695 8.01053 1.02004 8.00993C1.65307 8.00925 1.68363 8.01203 1.78279 8.07953C1.95092 8.19396 2.01326 8.30171 2.01326 8.47796C2.01326 8.6469 1.95667 8.7509 1.80179 8.86665C1.72223 8.92612 1.66507 8.93184 1.05945 8.94068C0.450008 8.94959 0.39382 8.94568 0.270507 8.886Z" fill="#1A1A1A"/>
</svg>
