<svg width="16" height="17" viewBox="0 0 16 17" fill="none" xmlns="http://www.w3.org/2000/svg">
<path fill-rule="evenodd" clip-rule="evenodd" d="M6.70578 0.452036C5.83738 0.580567 5.03109 1.06257 4.49475 1.77379C4.07869 2.32547 3.85909 2.93532 3.79578 3.71473L3.77547 3.96473L3.59866 4.0716C2.672 4.63176 1.59816 5.76057 0.879156 6.93032C0.471281 7.59392 0 8.60861 0 8.82326C0 9.03217 0.478687 10.0679 0.865125 10.695C1.57809 11.8521 2.50531 12.8413 3.48438 13.4894C3.78631 13.6892 4.39066 13.9996 4.69131 14.1093C4.86672 14.1732 4.88059 14.1862 4.968 14.3675C5.26716 14.9882 5.82884 15.5659 6.4475 15.8893C6.7705 16.0581 7.15019 16.1839 7.52375 16.2458C7.77284 16.287 8.03066 16.2944 8.94306 16.2867C10.0126 16.2776 10.0615 16.2746 10.1442 16.2128C10.1917 16.1774 10.2595 16.1095 10.2949 16.0621C10.3577 15.978 10.3596 15.9357 10.368 14.4201L10.3767 12.8644L10.7743 12.4612C11.2095 12.0199 11.6447 11.4954 12.0126 10.9687L12.25 10.6289V11.005C12.25 11.2119 12.2703 11.4872 12.2951 11.6169C12.4713 12.538 13.2014 13.2715 14.1315 13.4622C14.304 13.4976 14.5504 13.5116 14.9999 13.5116C15.7268 13.5116 15.823 13.486 15.9371 13.2624C15.9957 13.1476 16 13.0795 15.9999 12.2707C15.9998 11.3283 15.9676 11.0114 15.8325 10.621C15.7127 10.2746 15.6357 10.1155 15.4564 9.8437C15.2308 9.50164 15.0168 9.27126 14.7097 9.03976C14.5686 8.93345 14.4531 8.83642 14.4531 8.82411C14.4531 8.81179 14.5686 8.71476 14.7097 8.60845C15.2316 8.21514 15.6102 7.6827 15.8334 7.02792C15.9679 6.63338 15.9998 6.31763 15.9999 5.37754C16 4.5687 15.9957 4.50063 15.9371 4.38579C15.823 4.16219 15.7268 4.1366 14.9999 4.1366C14.5504 4.1366 14.304 4.1506 14.1315 4.18598C13.2014 4.37666 12.4713 5.11026 12.2951 6.03135C12.2703 6.16101 12.25 6.43635 12.25 6.6432V7.01929L12.0126 6.67951C11.6536 6.16563 11.2145 5.63482 10.7891 5.20041L10.4062 4.80957V2.79813C10.4062 0.574848 10.4128 0.64988 10.2071 0.503161L10.1094 0.433473L8.5 0.429067C7.61484 0.426629 6.80744 0.436973 6.70578 0.452036ZM9.46875 2.72841V4.10148L9.25781 3.97301C8.76322 3.67179 8.11956 3.42123 7.5 3.28869C7.06609 3.19588 6.11297 3.18694 5.6645 3.27148C5.40853 3.31973 4.95625 3.43841 4.80481 3.49707C4.75753 3.51535 4.75278 3.50416 4.76922 3.41332C4.82775 3.08998 4.99322 2.68088 5.16481 2.43526C5.50119 1.95382 6.00269 1.59435 6.53778 1.45113C6.87319 1.36135 6.82134 1.36419 8.19531 1.3596L9.46875 1.35535V2.72841ZM7.15887 4.18213C8.12222 4.32735 9.07866 4.84904 9.96441 5.71241C10.5418 6.2752 10.9561 6.78285 11.4461 7.52773C11.7381 7.97173 12.1875 8.76042 12.1875 8.82889C12.1875 8.89467 11.6636 9.80004 11.374 10.2347C10.9898 10.8115 10.6569 11.2253 10.1875 11.7094C9.41381 12.5075 8.72222 12.9876 7.95312 13.2605C6.52844 13.7662 5.00656 13.4857 3.64044 12.4657C3.50303 12.3631 3.20003 12.0889 2.96709 11.8563C2.35128 11.2415 1.82066 10.5083 1.36841 9.64726L1.18406 9.29626L1.87109 9.28676C2.62384 9.27632 2.63744 9.27304 2.79316 9.06448C2.87881 8.94973 2.87881 8.69848 2.79316 8.58373C2.6375 8.37526 2.62359 8.37189 1.87334 8.36148L1.18856 8.35198L1.33281 8.0646C1.59966 7.53304 2.01912 6.88023 2.40103 6.40223C2.64856 6.09242 3.19272 5.53848 3.46875 5.31538C4.59963 4.40123 5.92078 3.99548 7.15887 4.18213ZM15.0543 5.75379C15.0418 6.32042 15.0287 6.46842 14.9753 6.64351C14.75 7.38189 14.2098 7.95657 13.5002 8.21251C13.3777 8.2567 13.2573 8.29285 13.2325 8.29285C13.1638 8.29285 13.1666 6.3867 13.2357 6.11973C13.3608 5.63635 13.7699 5.23782 14.2643 5.1177C14.351 5.09663 14.5676 5.07823 14.7456 5.07676L15.0694 5.0741L15.0543 5.75379ZM6.90688 6.06457C6.84706 6.0956 6.76619 6.16876 6.72719 6.22717L6.65625 6.33335V8.82411V11.3149L6.72656 11.4179C6.92316 11.7059 7.29391 11.7002 7.51369 11.4058C7.5775 11.3204 7.57812 11.2957 7.57812 8.82411C7.57812 6.35251 7.5775 6.32785 7.51369 6.24238C7.35575 6.03085 7.11053 5.95898 6.90688 6.06457ZM8.751 6.38007C8.69141 6.41292 8.61406 6.4781 8.57913 6.52485C8.51697 6.60813 8.51544 6.65485 8.50622 8.75607C8.49978 10.2305 8.50744 10.9386 8.53069 11.0186C8.58184 11.1945 8.74912 11.3085 8.95622 11.3085C9.13363 11.3085 9.239 11.252 9.35744 11.0933C9.42109 11.0081 9.42188 10.9801 9.42188 8.82411C9.42188 6.6681 9.42109 6.64013 9.35744 6.55488C9.19781 6.3411 8.95081 6.26988 8.751 6.38007ZM4.06313 6.53332C3.61609 6.76513 3.81044 7.45807 4.30825 7.40738C4.55766 7.38198 4.73078 7.1942 4.73078 6.9491C4.73078 6.60838 4.36169 6.37851 4.06313 6.53332ZM13.5059 9.43695C14.0655 9.63679 14.5364 10.0557 14.8117 10.5985C15.0076 10.9848 15.0378 11.146 15.0543 11.8944L15.0694 12.5741H14.7706C14.6063 12.5741 14.3973 12.5584 14.3062 12.5393C13.7943 12.4316 13.3643 12.0256 13.2357 11.5285C13.1666 11.2615 13.1638 9.35536 13.2325 9.35536C13.2573 9.35536 13.3803 9.39207 13.5059 9.43695ZM9.4375 14.4675V15.361L8.52344 15.347C7.78003 15.3356 7.57438 15.3228 7.42188 15.2788C7.18191 15.2095 6.82594 15.0454 6.64359 14.9199C6.48906 14.8136 6.12494 14.4861 6.12509 14.4535C6.12516 14.4425 6.34663 14.4329 6.61728 14.4321C7.18778 14.4304 7.55744 14.3737 8.07812 14.208C8.44028 14.0927 9.00275 13.8397 9.26562 13.6739C9.35156 13.6197 9.42541 13.575 9.42969 13.5747C9.43397 13.5744 9.4375 13.9762 9.4375 14.4675Z" fill="#1A1A1A"/>
</svg>
