<svg width="16" height="15" viewBox="0 0 16 15" fill="none" xmlns="http://www.w3.org/2000/svg">
<path fill-rule="evenodd" clip-rule="evenodd" d="M8.68673 0.198742C8.65084 0.213152 8.4305 0.373646 8.1971 0.555414C7.31695 1.24076 6.72956 1.75716 6.11558 2.38532C4.63931 3.89572 3.83496 5.42311 3.56493 7.22874C3.50294 7.64331 3.4626 8.44583 3.48817 8.75672C3.50002 8.90102 3.49993 9.01911 3.48794 9.01911C3.47592 9.01911 3.09095 8.91781 2.63242 8.79399C2.17387 8.67021 1.75406 8.56052 1.69952 8.55028C1.57463 8.52684 1.36436 8.61424 1.29658 8.71778C1.21792 8.83791 0.738953 10.6612 0.753892 10.7835C0.769312 10.9096 0.862203 11.0483 0.966063 11.1001C1.0077 11.1209 1.44032 11.2442 1.92743 11.374C2.41456 11.5039 2.80868 11.6146 2.8033 11.62C2.79791 11.6254 2.38862 11.7385 1.89375 11.8714C1.39891 12.0044 0.962577 12.1337 0.924139 12.1589C0.841028 12.2134 0.744141 12.3923 0.744141 12.4913C0.744141 12.6184 1.247 14.4419 1.30321 14.5187C1.38488 14.6303 1.53236 14.6974 1.66539 14.6836C1.72775 14.6771 3.16531 14.2999 4.85999 13.8452C6.55464 13.3907 7.96982 13.0187 8.0048 13.0187C8.03981 13.0187 9.25547 13.3371 10.7063 13.7262C12.157 14.1154 13.5683 14.4937 13.8424 14.5671C14.3899 14.7135 14.482 14.7165 14.6293 14.5924C14.6745 14.5544 14.7258 14.4879 14.7433 14.4446C14.7986 14.3083 15.2574 12.5648 15.2574 12.4911C15.2574 12.3922 15.1604 12.2134 15.0773 12.1588C15.0388 12.1336 14.6019 12.0037 14.1065 11.8702C13.6111 11.7367 13.2019 11.6236 13.1971 11.6188C13.1924 11.6141 13.587 11.5039 14.0741 11.374C14.5612 11.2442 14.9938 11.1209 15.0355 11.1001C15.1393 11.0483 15.2322 10.9096 15.2477 10.7835C15.2639 10.6509 14.7763 8.81641 14.6961 8.70876C14.6664 8.66882 14.5827 8.6114 14.5101 8.58114L14.378 8.52611L13.45 8.77332C12.9396 8.90927 12.5152 9.02019 12.5069 9.01982C12.4986 9.01942 12.5018 8.90102 12.5139 8.75672C12.5746 8.0356 12.4006 7.12761 12.079 6.48737C11.7509 5.83424 11.462 5.46574 10.4893 4.45995C9.58661 3.52657 9.31749 3.14559 9.14846 2.56199C9.00965 2.08258 9.02351 1.57193 9.19325 0.913136C9.26199 0.646327 9.27191 0.569739 9.24875 0.483705C9.18636 0.251843 8.90712 0.11024 8.68673 0.198742ZM8.25603 2.48753C8.34771 2.94651 8.51659 3.35612 8.78234 3.7641C9.02181 4.13175 9.21068 4.3517 9.97776 5.15622C10.3598 5.55686 10.771 6.01604 10.8916 6.17659C11.4244 6.88619 11.6656 7.59554 11.6649 8.45179C11.6636 10.2296 10.4678 11.6869 8.69526 12.071C8.38025 12.1392 7.62131 12.1392 7.30629 12.071C5.97496 11.7825 4.9357 10.87 4.5162 9.62117C4.35936 9.15424 4.30755 8.66005 4.34658 8.0031C4.40741 6.97909 4.62766 6.13992 5.07006 5.24645C5.64923 4.07678 6.54945 3.01127 7.92991 1.86152L8.18503 1.64906L8.20422 1.98656C8.21476 2.17218 8.23806 2.39761 8.25603 2.48753ZM7.80998 5.69006C7.75961 5.71491 7.5874 5.87118 7.4273 6.03734C6.54367 6.95444 5.96087 7.93928 5.80168 8.78438C5.739 9.11697 5.7589 9.60577 5.84641 9.88426C6.041 10.5035 6.46231 11.0002 7.02629 11.2754C7.62439 11.5673 8.3718 11.5672 8.97835 11.2753C9.53094 11.0093 9.96154 10.5003 10.1551 9.88426C10.2427 9.60577 10.2625 9.11697 10.1999 8.78438C10.0403 7.93698 9.45998 6.95776 8.5677 6.02997C8.19305 5.64042 8.04511 5.57405 7.80998 5.69006ZM8.18415 6.8633C8.40156 7.10759 8.63945 7.42126 8.83041 7.71553C9.50426 8.75386 9.56821 9.61487 9.01501 10.2002C8.73095 10.5008 8.40987 10.64 8.00078 10.64C7.59168 10.64 7.27061 10.5008 6.98655 10.2002C6.43397 9.61556 6.49743 8.75372 7.1693 7.71839C7.423 7.32742 7.95843 6.65615 8.0033 6.67274C8.01251 6.67614 8.09387 6.76189 8.18415 6.8633ZM2.85341 9.73364L3.72965 9.96687L3.77359 10.0816C3.85222 10.2868 4.08293 10.7306 4.21525 10.9312C4.28634 11.039 4.34125 11.1298 4.33722 11.1331C4.33116 11.1379 3.10535 10.8111 1.98429 10.5058C1.8027 10.4563 1.70791 10.4169 1.70791 10.3909C1.70791 10.3692 1.74536 10.2144 1.79117 10.0469C1.83694 9.87944 1.88845 9.68817 1.90563 9.62188C1.92281 9.55559 1.94594 9.50113 1.95705 9.50087C1.96813 9.50065 2.3715 9.6054 2.85341 9.73364ZM14.0892 9.59352C14.2206 10.0789 14.3 10.4122 14.2873 10.4249C14.2788 10.4333 13.8399 10.5561 13.3119 10.6976C12.7839 10.8391 12.1957 10.9968 12.0047 11.0481C11.8137 11.0993 11.6574 11.1304 11.6574 11.1172C11.6574 11.104 11.6695 11.0857 11.6844 11.0765C11.7382 11.0432 12.0133 10.5578 12.143 10.2673L12.2759 9.96968L13.1217 9.73883C13.587 9.61187 13.9894 9.50649 14.0159 9.50465C14.0477 9.50246 14.0728 9.5329 14.0892 9.59352ZM5.15456 11.972C5.23688 12.063 5.68883 12.3576 5.94 12.484C6.06328 12.546 6.15884 12.6021 6.15235 12.6086C6.13574 12.6252 2.01949 13.7278 1.97408 13.7278C1.95362 13.7278 1.92249 13.6736 1.90489 13.6073C1.88732 13.541 1.83581 13.3493 1.79043 13.1813C1.74505 13.0134 1.70791 12.8594 1.70791 12.8393C1.70791 12.8151 2.0293 12.7165 2.65042 12.5501C3.16879 12.4112 3.90545 12.2122 4.28742 12.108C4.66939 12.0038 5.00863 11.9171 5.04129 11.9155C5.07394 11.9138 5.12494 11.9392 5.15456 11.972ZM12.5574 12.3359C13.4266 12.5688 14.1728 12.7681 14.2157 12.7787C14.2585 12.7892 14.2936 12.8155 14.2936 12.8369C14.2936 12.8584 14.2565 13.0134 14.2111 13.1813C14.1657 13.3493 14.1138 13.5424 14.0958 13.6104C14.0645 13.7284 14.059 13.7333 13.9768 13.7169C13.8496 13.6914 9.85958 12.619 9.84765 12.607C9.84206 12.6014 9.93127 12.5498 10.0459 12.4923C10.2721 12.3789 10.6424 12.1435 10.8181 12.0015C10.8787 11.9525 10.9392 11.9124 10.9526 11.9124C10.966 11.9124 11.6882 12.103 12.5574 12.3359Z" fill="#1A1A1A"/>
</svg>
