<svg width="31" height="7" viewBox="0 0 31 7" fill="none" xmlns="http://www.w3.org/2000/svg">
<path d="M4.23901 3.58631H5.4525V5.9149C5.14093 6.14994 4.78016 6.33033 4.3702 6.45605C3.96024 6.58177 3.54754 6.64463 3.13211 6.64463C2.5363 6.64463 2.00062 6.51891 1.52506 6.26747C1.0495 6.01056 0.675072 5.65799 0.401763 5.20976C0.133921 4.75607 0 4.24499 0 3.6765C0 3.10802 0.133921 2.59967 0.401763 2.15144C0.675072 1.69775 1.05224 1.34518 1.53326 1.09374C2.01428 0.836829 2.55543 0.708374 3.15671 0.708374C3.6596 0.708374 4.11602 0.7931 4.52599 0.96255C4.93595 1.132 5.28032 1.37798 5.55909 1.70048L4.70637 2.48761C4.29641 2.05578 3.80172 1.83987 3.22231 1.83987C2.85607 1.83987 2.53084 1.9164 2.2466 2.06945C1.96235 2.2225 1.74097 2.43842 1.58246 2.71719C1.42394 2.99597 1.34468 3.31574 1.34468 3.6765C1.34468 4.0318 1.42394 4.34884 1.58246 4.62762C1.74097 4.90639 1.95962 5.12504 2.2384 5.28356C2.52264 5.43661 2.84514 5.51314 3.20591 5.51314C3.58854 5.51314 3.93291 5.43114 4.23901 5.26716V3.58631Z" fill="black"/>
<path d="M8.73618 0.806765H10.0645V5.46394H12.9424V6.54624H8.73618V0.806765Z" fill="black"/>
<path d="M19.5623 5.31635H16.8975L16.3892 6.54624H15.0281L17.5862 0.806765H18.8981L21.4645 6.54624H20.0706L19.5623 5.31635ZM19.1441 4.30785L18.234 2.11045L17.3239 4.30785H19.1441Z" fill="black"/>
<path d="M29.3327 6.54624L29.3245 3.10256L27.6355 5.9395H27.0369L25.3561 3.17635V6.54624H24.1098V0.806765H25.2085L27.3567 4.37344L29.4721 0.806765H30.5626L30.579 6.54624H29.3327Z" fill="black"/>
</svg>
