<svg width="9" height="17" viewBox="0 0 9 17" fill="none" xmlns="http://www.w3.org/2000/svg">
<path fill-rule="evenodd" clip-rule="evenodd" d="M1.59165 0.467727C1.53661 0.495821 1.4663 0.556071 1.4354 0.601571C1.38177 0.680539 1.37846 1.02741 1.36355 8.10623L1.34793 15.5281L0.811021 15.5437C0.331552 15.5577 0.264677 15.5663 0.186021 15.6241C-0.0154165 15.7721 -0.0591354 16.0326 0.0837709 16.2333C0.215396 16.4181 0.221021 16.4187 1.80786 16.4186C3.19593 16.4185 3.25827 16.416 3.35602 16.3564C3.64102 16.1826 3.65402 15.7761 3.37999 15.6067C3.28849 15.5502 3.22486 15.5437 2.7583 15.5437H2.23855V11.3468V7.14979L5.49952 5.84554C8.01015 4.84138 8.77968 4.52123 8.84386 4.4542C9.00765 4.28326 9.01246 4.02107 8.8549 3.85107C8.80427 3.79645 7.83727 3.3957 5.51111 2.46532L2.23855 1.15641L2.23849 0.967258C2.23846 0.752821 2.17383 0.596508 2.0468 0.503446C1.93371 0.420602 1.71724 0.403602 1.59165 0.467727ZM4.93533 3.18476C6.2553 3.71285 7.33108 4.14898 7.32596 4.15388C7.32086 4.15882 6.17411 4.61982 4.77761 5.17835L2.23855 6.19388V4.15051V2.10713L2.38699 2.16585C2.46865 2.19816 3.6154 2.65666 4.93533 3.18476ZM7.1448 13.3756C6.75849 13.4418 6.46658 13.5884 6.22293 13.8387C5.6273 14.4506 5.63561 15.3696 6.24221 15.973C6.61086 16.3397 7.17086 16.498 7.65408 16.3722C8.2253 16.2234 8.65161 15.7906 8.78524 15.2237C8.84683 14.9625 8.84399 14.7872 8.77386 14.52C8.60499 13.8768 8.06958 13.4328 7.3948 13.3765C7.30027 13.3686 7.18777 13.3682 7.1448 13.3756ZM7.58168 14.3328C8.12418 14.6099 8.01174 15.4054 7.41461 15.5146C7.14583 15.5637 6.84468 15.4052 6.72415 15.1512C6.62818 14.949 6.68236 14.6273 6.84161 14.4541C7.01649 14.2639 7.34227 14.2105 7.58168 14.3328Z" fill="#1A1A1A"/>
</svg>
