<svg width="16" height="17" viewBox="0 0 16 17" fill="none" xmlns="http://www.w3.org/2000/svg">
<path fill-rule="evenodd" clip-rule="evenodd" d="M7.77378 0.488776C7.59416 0.58362 7.53125 0.736807 7.53125 1.07934V1.36184L5.63281 1.36237C3.49541 1.36299 3.48075 1.36424 3.03125 1.58481C2.65853 1.76768 2.31209 2.11412 2.12922 2.48684C1.93919 2.87409 1.90744 3.07159 1.90678 3.86965L1.90625 4.54934H1.13937C0.432469 4.54934 0.362875 4.55424 0.249187 4.61225C0.110531 4.683 0 4.86303 0 5.01809C0 5.17315 0.110531 5.35318 0.249187 5.42393C0.362812 5.4819 0.432469 5.48684 1.13459 5.48684H1.89669L1.91625 5.82278C2.00081 7.27446 2.99731 8.46624 4.43372 8.83362C4.56163 8.86634 4.70619 8.89309 4.755 8.89309C4.80381 8.89309 4.84375 8.90371 4.84375 8.91668C4.84375 8.92965 4.32344 10.5011 3.6875 12.4087C3.05156 14.3163 2.53125 15.9165 2.53125 15.9645C2.53125 16.1937 2.76634 16.4243 3 16.4243C3.15219 16.4243 3.33528 16.3137 3.4015 16.1817C3.43372 16.1175 3.80772 15.0208 4.23266 13.7447L5.00522 11.4243H8H10.9948L11.2787 12.2759C11.4348 12.7443 11.5625 13.142 11.5625 13.1598C11.5625 13.1776 11.5168 13.2191 11.4609 13.252C11.1658 13.4259 10.8693 13.8052 10.7446 14.1684C10.6427 14.4648 10.6427 14.9463 10.7446 15.2428C10.9203 15.7546 11.3074 16.144 11.8306 16.3355C12.096 16.4326 12.654 16.4326 12.9194 16.3355C13.4426 16.144 13.8297 15.7546 14.0054 15.2428C14.1073 14.9463 14.1073 14.4648 14.0054 14.1684C13.8067 13.5897 13.3322 13.1657 12.7347 13.0328L12.5034 12.9813L11.8298 10.9607C11.4593 9.84928 11.1562 8.93125 11.1562 8.92056C11.1562 8.9099 11.2376 8.89196 11.3371 8.88071C11.7961 8.82878 12.4857 8.51203 12.9219 8.15275C13.6236 7.57481 14.0938 6.57959 14.0938 5.67209V5.48684H14.8606C15.5675 5.48684 15.6371 5.48193 15.7508 5.42393C15.8895 5.35318 16 5.17315 16 5.01809C16 4.86303 15.8895 4.683 15.7508 4.61225C15.6371 4.55424 15.5675 4.54934 14.8606 4.54934H14.0938L14.0932 3.86965C14.0926 3.07159 14.0608 2.87409 13.8708 2.48684C13.6879 2.11412 13.3415 1.76768 12.9688 1.58481C12.5192 1.36424 12.5046 1.36299 10.3672 1.36237L8.46875 1.36184V1.07934C8.46875 0.731245 8.40613 0.582432 8.21956 0.487245C8.06559 0.408713 7.92456 0.409182 7.77378 0.488776ZM12.5037 2.39731C12.8975 2.58193 13.1243 2.92121 13.1499 3.36387L13.1643 3.61184H8H2.83572L2.84978 3.36903C2.87884 2.86712 3.16644 2.49137 3.63394 2.34446C3.74094 2.31084 4.56828 2.30418 8.04688 2.30903L12.3281 2.31496L12.5037 2.39731ZM13.1477 5.30715C13.1319 6.1089 13.1129 6.23518 12.9557 6.58428C12.7123 7.12496 12.2469 7.57978 11.7031 7.8085C11.2756 7.98825 11.3048 7.98684 8 7.98684C4.69662 7.98684 4.72397 7.98815 4.29856 7.80909C3.74094 7.5744 3.25603 7.08984 3.02209 6.53365C2.88019 6.19615 2.84375 5.92518 2.84375 5.2069V4.54934H8.00322H13.1627L13.1477 5.30715ZM10.4246 9.7134L10.6826 10.4868H7.99991H5.31722L5.56481 9.74465C5.701 9.33646 5.81906 8.98478 5.82719 8.96318C5.83887 8.93206 6.29091 8.92559 8.00422 8.93193L10.1665 8.93996L10.4246 9.7134ZM12.6407 13.9761C12.929 14.0743 13.1562 14.3959 13.1562 14.7056C13.1562 15.1176 12.787 15.4868 12.375 15.4868C12.1862 15.4868 11.9676 15.3936 11.8273 15.2533C11.5214 14.9473 11.5216 14.4636 11.8279 14.1573C12.0449 13.9403 12.3416 13.8742 12.6407 13.9761Z" fill="#1A1A1A"/>
</svg>
