<svg width="12" height="17" viewBox="0 0 12 17" fill="none" xmlns="http://www.w3.org/2000/svg">
<path fill-rule="evenodd" clip-rule="evenodd" d="M4.10647 1.81108C4.30959 1.16996 4.84472 0.658301 5.49703 0.481488C5.79591 0.400457 6.32207 0.414145 6.59263 0.509957C7.05144 0.672457 7.45029 0.994519 7.68641 1.39311C8.08044 2.05824 8.03751 2.92496 7.57891 3.56355C7.52438 3.63949 7.48566 3.70542 7.49285 3.71008C7.50004 3.71471 7.62347 3.77452 7.76719 3.84292C8.37863 4.13405 8.55054 4.28402 10.4175 6.15483C11.8179 7.55811 11.8522 7.60077 11.9476 8.0528C12.0029 8.31499 11.9868 8.54883 11.8949 8.8158C11.7625 9.20061 11.5099 9.47739 11.121 9.66364C10.9242 9.75789 10.8518 9.77527 10.601 9.78836C10.2611 9.80614 9.98623 9.7392 9.72466 9.57492C9.63873 9.52095 9.20563 9.11608 8.76226 8.6752L7.95607 7.87358L7.96538 9.0142C7.97444 10.1275 7.97638 10.1586 8.04638 10.3111C8.10422 10.4372 8.46107 10.8112 9.89444 12.2486C10.8714 13.2283 11.709 14.0916 11.7556 14.1671C11.9568 14.4926 12.0278 14.8954 11.9458 15.2454C11.753 16.0681 10.9512 16.5778 10.1699 16.3743C10.1025 16.3567 10.0468 16.3425 9.99305 16.3231C9.72762 16.2273 9.50732 16.0065 8.14269 14.6468L6.592 13.1017L6.19419 13.6855C5.94103 14.0571 5.75497 14.2981 5.68241 14.3484C5.38956 14.5514 2.73475 16.1887 2.57319 16.266C2.31565 16.3891 2.02797 16.4325 1.75487 16.3895C1.00965 16.2723 0.490277 15.6689 0.490277 14.9205C0.490277 14.4836 0.662496 14.1012 0.981653 13.8295C1.06375 13.7596 1.68622 13.3471 2.36494 12.9129L3.599 12.1234L3.73397 11.6863C3.97809 10.896 3.99528 10.7435 4.01209 9.21733L4.02688 7.87358L3.18828 8.70298C2.52731 9.35667 2.30994 9.55283 2.16215 9.62889C1.8979 9.76489 1.68847 9.80652 1.36228 9.78792C1.12903 9.77461 1.0494 9.7547 0.848903 9.65948C0.400808 9.44667 0.0996831 9.0447 0.0180267 8.55027C-0.0304421 8.25674 0.0184954 7.96805 0.168871 7.66036C0.271058 7.4513 0.381683 7.33327 1.79981 5.92046C2.8409 4.88324 3.40291 4.34652 3.58025 4.22011C3.80234 4.0618 4.30925 3.77733 4.45903 3.72696C4.49659 3.71433 4.48653 3.68386 4.40847 3.57364C4.28634 3.40127 4.17244 3.17414 4.09653 2.95171C4.00816 2.69277 4.01328 2.10521 4.10647 1.81108ZM6.75275 1.7048C6.67272 1.61577 6.538 1.51224 6.4395 1.46405C6.31253 1.40193 6.20725 1.37671 6.04257 1.36896C5.6915 1.35243 5.44422 1.45755 5.21097 1.72255C4.76641 2.22761 4.93478 3.02714 5.55028 3.33358C5.66906 3.39271 5.74394 3.40483 5.99028 3.40483C6.23928 3.40483 6.31103 3.39296 6.43516 3.33127C7.05769 3.02193 7.21457 2.21846 6.75275 1.7048ZM5.04438 5.45171C5.23197 5.17061 5.45903 4.6298 5.45903 4.46405C5.45903 4.40936 5.42913 4.41105 5.17778 4.47974C4.882 4.56055 4.61169 4.67686 4.32294 4.84755C4.10038 4.97911 3.87706 5.18827 2.54512 6.51245C0.909841 8.13827 0.895309 8.15545 0.941903 8.4113C0.989497 8.67252 1.20984 8.85795 1.47265 8.85795C1.55281 8.85795 1.65634 8.83783 1.70278 8.81324C1.82122 8.75042 4.92988 5.62324 5.04438 5.45171ZM6.97079 5.08561C6.90219 4.88361 6.769 4.69699 6.60985 4.57996C6.4516 4.46355 6.39653 4.4578 6.39653 4.55758C6.39653 4.69771 6.23869 5.18561 6.09888 5.47767C5.90416 5.88442 5.68572 6.18792 5.29497 6.59467L4.95903 6.94436V8.24097H4.95703V10.3892C4.93767 10.3892 4.40788 12.6329 4.35269 12.7171C4.32778 12.7551 3.85988 13.072 3.31291 13.4213C1.56297 14.5389 1.53868 14.5555 1.48053 14.6781C1.41562 14.8149 1.41228 15.0498 1.47353 15.1683C1.5839 15.3817 1.85962 15.5123 2.07622 15.4536C2.14069 15.4362 2.85319 15.0103 3.65963 14.5071L5.12581 13.5923C5.76623 12.6473 6.4008 11.6987 7.03151 10.7471V8.24097H7.02154V7.34342C7.02154 5.47989 7.01563 5.21777 6.97079 5.08561ZM11.021 8.19652C10.9894 8.07595 10.8269 7.90202 9.54254 6.61361C8.74897 5.81752 8.0645 5.14052 8.02154 5.10921L7.94341 5.05224L7.96201 6.52983L9.07772 7.64905C9.69135 8.26464 10.2314 8.78845 10.2778 8.81311C10.4012 8.87867 10.6331 8.86952 10.7678 8.7938C10.9841 8.67224 11.0841 8.43645 11.021 8.19652ZM11.0543 14.9586C11.0719 14.7672 10.8539 14.5542 9.3396 13.0376C8.43432 12.131 7.68654 11.3893 7.67791 11.3893C7.66925 11.3894 7.63688 11.4509 7.60597 11.5261C7.57507 11.6012 7.45369 11.8103 7.33625 11.9907L7.12275 12.3188L8.65807 13.8529C9.71629 14.9102 10.2295 15.4019 10.3096 15.435C10.6153 15.5612 10.927 15.4046 11.0257 15.0753C11.0389 15.0312 11.0509 14.9953 11.0543 14.9586Z" fill="#1A1A1A"/>
</svg>
