<svg width="16" height="17" viewBox="0 0 16 17" fill="none" xmlns="http://www.w3.org/2000/svg">
<path d="M8.26208 0.504543C8.09523 0.40041 7.88283 0.403766 7.71936 0.513118L0.244577 5.51312C0.0150516 5.66665 -0.0465523 5.97718 0.106981 6.20671C0.260515 6.43623 0.571046 6.49784 0.800571 6.3443L8.00676 1.52397L15.2099 6.01955C15.4442 6.16575 15.7526 6.09437 15.8988 5.86011C16.045 5.62584 15.9736 5.31742 15.7394 5.17121L8.26208 0.504543Z" fill="#1A1A1A"/>
<path fill-rule="evenodd" clip-rule="evenodd" d="M3.31393 7.42618C3.41699 6.93615 3.7788 6.53111 4.26305 6.36368C4.50187 6.28108 4.91221 6.28877 5.16502 6.38052C5.54184 6.5173 5.78971 6.74993 5.97462 7.14036L6.07596 7.35433L6.10721 9.72933H8.01346L8.02915 8.54183C8.04418 7.40374 8.04774 7.34718 8.11471 7.18246C8.26715 6.80749 8.62515 6.47783 9.01205 6.35615C9.14715 6.31365 9.26159 6.3033 9.49209 6.31271C9.75159 6.32327 9.8248 6.33918 10.0059 6.42411C10.4211 6.61883 10.7386 7.03515 10.8108 7.47933C10.8275 7.58246 10.8413 8.13443 10.8414 8.70589L10.8416 9.74496H15.6761L15.7823 9.8159C16.0677 10.0066 16.0604 10.3834 15.7671 10.6024C15.6819 10.666 15.6495 10.667 13.2612 10.6754L10.8416 10.684V14.8941L10.99 14.9154C11.2834 14.9576 11.52 15.0349 11.9155 15.2179C12.4298 15.4559 12.5848 15.495 13.0135 15.495C13.4394 15.495 13.621 15.4505 14.0916 15.231C14.5658 15.0098 14.8114 14.9381 15.217 14.9025C15.6185 14.8673 15.7376 14.8925 15.8673 15.0403C16.022 15.2165 16.0357 15.4611 15.9005 15.633C15.8038 15.756 15.6955 15.7986 15.4197 15.8221C15.0618 15.8526 14.8359 15.9153 14.4978 16.0778C13.8703 16.3795 13.5439 16.4488 12.8669 16.4241C12.3305 16.4045 12.1243 16.3518 11.5611 16.0905C11.0808 15.8675 10.9173 15.8275 10.4978 15.8302C10.072 15.833 9.9484 15.8643 9.42109 16.1031C8.77262 16.3968 8.68427 16.4162 7.99784 16.4162C7.31184 16.4162 7.22646 16.3974 6.57787 16.1037C6.04543 15.8626 5.92368 15.8323 5.48221 15.8307C5.06877 15.8291 4.90452 15.8708 4.40343 16.1045C3.81393 16.3795 3.64402 16.4168 2.98221 16.4168C2.35262 16.4168 2.20174 16.3891 1.76346 16.193C1.13568 15.9121 1.0159 15.8722 0.699492 15.8389C0.29143 15.796 0.269149 15.7901 0.157055 15.6958C-0.0326951 15.5361 -0.0463826 15.2393 0.126961 15.0419C0.258149 14.8925 0.376274 14.8672 0.77868 14.9025C1.18424 14.9381 1.42984 15.0098 1.90409 15.231C2.37465 15.4505 2.5563 15.495 2.98221 15.495C3.41274 15.495 3.58065 15.4525 4.0878 15.2157C4.47509 15.0349 4.71062 14.9578 5.00565 14.9154L5.15409 14.8941V10.684L2.73449 10.6754C0.34618 10.667 0.313774 10.666 0.228617 10.6024C-0.0646951 10.3834 -0.0720076 10.0066 0.213399 9.8159L0.319586 9.74496H3.27909V8.66836C3.27909 7.99674 3.29218 7.52949 3.31393 7.42618ZM5.06059 7.41735C5.03591 7.38609 5.00473 7.35997 4.9653 7.3268C4.7788 7.16986 4.44171 7.23243 4.29337 7.45149C4.23555 7.53693 4.23221 7.6014 4.23221 8.63558V9.72933L5.15409 9.74661V8.66611C5.15409 7.72924 5.15438 7.53616 5.06059 7.41735ZM9.84415 7.50908C9.80752 7.42627 9.74212 7.34649 9.67965 7.3084C9.52299 7.2129 9.28062 7.2214 9.15537 7.3268C9.11594 7.35997 9.08475 7.38609 9.06008 7.41735C8.96629 7.53616 8.96659 7.72924 8.96659 8.66611V9.74661L9.88846 9.72933L9.89671 8.68793C9.9044 7.71393 9.90099 7.63761 9.84415 7.50908ZM9.90409 12.37V10.6825H6.09159V12.37H9.90409ZM9.90409 14.93V13.3075H6.09159V14.93L6.2244 14.9643C6.48062 15.0303 6.57893 15.0678 6.93534 15.2357C7.3809 15.4455 7.58024 15.494 7.99784 15.494C8.41665 15.494 8.61796 15.4452 9.06524 15.235C9.42721 15.065 9.52296 15.0282 9.77127 14.9643L9.90409 14.93Z" fill="#1A1A1A"/>
</svg>
