<svg width="30" height="30" viewBox="0 0 30 30" fill="none" xmlns="http://www.w3.org/2000/svg">
<rect width="30" height="30" rx="15" fill="#808080"/>
<g clip-path="url(#clip0_137_1580)">
<path d="M14.9996 11.3349C12.9728 11.3349 11.3371 12.9706 11.3371 14.9974C11.3371 17.0242 12.9728 18.6599 14.9996 18.6599C17.0263 18.6599 18.6621 17.0242 18.6621 14.9974C18.6621 12.9706 17.0263 11.3349 14.9996 11.3349ZM14.9996 17.3778C13.6888 17.3778 12.6192 16.3081 12.6192 14.9974C12.6192 13.6867 13.6888 12.617 14.9996 12.617C16.3103 12.617 17.3799 13.6867 17.3799 14.9974C17.3799 16.3081 16.3103 17.3778 14.9996 17.3778ZM18.8121 10.3313C18.3388 10.3313 17.9567 10.7135 17.9567 11.1867C17.9567 11.6599 18.3388 12.042 18.8121 12.042C19.2853 12.042 19.6674 11.6617 19.6674 11.1867C19.6676 11.0743 19.6455 10.963 19.6026 10.8592C19.5597 10.7554 19.4967 10.661 19.4172 10.5815C19.3377 10.5021 19.2434 10.4391 19.1396 10.3962C19.0357 10.3532 18.9244 10.3312 18.8121 10.3313ZM22.1388 14.9974C22.1388 14.0117 22.1478 13.0349 22.0924 12.051C22.0371 10.9081 21.7763 9.89383 20.9406 9.05812C20.1031 8.22062 19.0906 7.96169 17.9478 7.90633C16.9621 7.85098 15.9853 7.85991 15.0013 7.85991C14.0156 7.85991 13.0388 7.85098 12.0549 7.90633C10.9121 7.96169 9.89777 8.22241 9.06206 9.05812C8.22456 9.89562 7.96563 10.9081 7.91027 12.051C7.85491 13.0367 7.86384 14.0135 7.86384 14.9974C7.86384 15.9813 7.85491 16.9599 7.91027 17.9438C7.96563 19.0867 8.22634 20.101 9.06206 20.9367C9.89956 21.7742 10.9121 22.0331 12.0549 22.0885C13.0406 22.1438 14.0174 22.1349 15.0013 22.1349C15.9871 22.1349 16.9638 22.1438 17.9478 22.0885C19.0906 22.0331 20.1049 21.7724 20.9406 20.9367C21.7781 20.0992 22.0371 19.0867 22.0924 17.9438C22.1496 16.9599 22.1388 15.9831 22.1388 14.9974ZM20.5674 19.2081C20.4371 19.5331 20.2799 19.776 20.0281 20.026C19.7763 20.2778 19.5353 20.4349 19.2103 20.5653C18.271 20.9385 16.0406 20.8545 14.9996 20.8545C13.9585 20.8545 11.7263 20.9385 10.7871 20.567C10.4621 20.4367 10.2192 20.2795 9.9692 20.0278C9.71741 19.776 9.56027 19.5349 9.42991 19.2099C9.05849 18.2688 9.14241 16.0385 9.14241 14.9974C9.14241 13.9563 9.05849 11.7242 9.42991 10.7849C9.56027 10.4599 9.71741 10.217 9.9692 9.96705C10.221 9.71705 10.4621 9.55812 10.7871 9.42776C11.7263 9.05633 13.9585 9.14026 14.9996 9.14026C16.0406 9.14026 18.2728 9.05633 19.2121 9.42776C19.5371 9.55812 19.7799 9.71526 20.0299 9.96705C20.2817 10.2188 20.4388 10.4599 20.5692 10.7849C20.9406 11.7242 20.8567 13.9563 20.8567 14.9974C20.8567 16.0385 20.9406 18.2688 20.5674 19.2081Z" fill="#1A1A1A"/>
</g>
<defs>
<clipPath id="clip0_137_1580">
<rect width="16" height="16" fill="white" transform="translate(7 7)"/>
</clipPath>
</defs>
</svg>
