<svg width="16" height="10" viewBox="0 0 16 10" fill="none" xmlns="http://www.w3.org/2000/svg">
<path fill-rule="evenodd" clip-rule="evenodd" d="M7.69807 0.436487C7.14857 0.542924 6.66635 0.909424 6.43538 1.39614C6.13066 2.03839 6.23182 2.54598 6.67444 2.59586C6.96641 2.62877 7.15363 2.44724 7.19816 2.08802C7.21363 1.96345 7.25463 1.83242 7.3051 1.7463C7.69347 1.08355 8.69078 1.31586 8.75238 2.08342C8.77628 2.38139 8.69291 2.54473 8.36488 2.84255C7.9451 3.22367 7.69132 3.63061 7.58141 4.09898L7.52957 4.31983L4.16851 5.57936C0.492509 6.95686 0.556509 6.92876 0.287134 7.28348C0.0594468 7.58329 -0.000865653 7.77211 9.34611e-06 8.1826C0.000603096 8.45576 0.0146031 8.56435 0.0682905 8.71132C0.256072 9.22551 0.684759 9.60089 1.19466 9.69757C1.30579 9.71867 3.61148 9.72932 7.99138 9.72901C13.7294 9.7286 14.6462 9.72235 14.8158 9.68235C15.3226 9.56289 15.7058 9.21651 15.8903 8.71132C15.944 8.56435 15.958 8.45576 15.9586 8.1826C15.9595 7.77211 15.8992 7.58329 15.6715 7.28348C15.3994 6.92526 15.4675 6.9552 11.8161 5.58779C8.77 4.44708 8.4825 4.33345 8.49803 4.27636C8.55378 4.07114 8.71653 3.81064 8.89272 3.64461C9.26278 3.29583 9.38419 3.15489 9.49306 2.94767C9.83588 2.29533 9.73685 1.51624 9.24341 0.983267C8.91494 0.628487 8.53153 0.450299 8.05744 0.432143C7.90275 0.426205 7.74103 0.428174 7.69807 0.436487ZM11.4028 6.43517C15.1204 7.82932 14.9344 7.7462 15.0152 8.04979C15.0879 8.32276 14.9564 8.62364 14.7168 8.73245C14.5932 8.78857 14.3581 8.7906 7.97932 8.7906C1.60057 8.7906 1.36548 8.78857 1.24185 8.73245C1.00248 8.62373 0.870884 8.3231 0.94304 8.04979C1.02298 7.74717 0.84654 7.82626 4.54182 6.43664C6.38947 5.74183 7.92819 5.17189 7.96119 5.17017C7.99419 5.16842 9.54294 5.73767 11.4028 6.43517Z" fill="#1A1A1A"/>
</svg>
