<svg width="14" height="16" viewBox="0 0 14 16" fill="none" xmlns="http://www.w3.org/2000/svg">
<path d="M13.1181 4.0207C12.7819 3.24548 12.2972 2.54359 11.6914 1.95463C11.0835 1.36034 10.3669 0.888659 9.58064 0.565341C8.76278 0.226055 7.89492 0.0546265 7.00028 0.0546265C6.10564 0.0546265 5.23778 0.226055 4.41992 0.563555C3.62885 0.890341 2.91992 1.3582 2.30921 1.95284C1.70371 2.54214 1.21906 3.24395 0.882422 4.01891C0.534207 4.82248 0.357422 5.67605 0.357422 6.55463C0.357422 7.81534 0.659208 9.0707 1.25206 10.2814C1.72885 11.2546 2.39492 12.2028 3.23421 13.1046C4.66814 14.6439 6.17171 15.585 6.59849 15.8368C6.71964 15.9083 6.8578 15.9459 6.99849 15.9457C7.13778 15.9457 7.27528 15.91 7.39849 15.8368C7.82528 15.585 9.32885 14.6439 10.7628 13.1046C11.6021 12.2046 12.2681 11.2546 12.7449 10.2814C13.3414 9.07248 13.6431 7.81891 13.6431 6.55641C13.6431 5.67784 13.4664 4.82427 13.1181 4.0207ZM7.00028 14.5761C5.82349 13.8278 1.64314 10.8653 1.64314 6.55641C1.64314 5.16534 2.19849 3.8582 3.20742 2.87248C4.21992 1.88498 5.56635 1.34034 7.00028 1.34034C8.43421 1.34034 9.78064 1.88498 10.7931 2.87427C11.8021 3.8582 12.3574 5.16534 12.3574 6.55641C12.3574 10.8653 8.17706 13.8278 7.00028 14.5761ZM7.00028 3.55463C5.26456 3.55463 3.85742 4.96177 3.85742 6.69748C3.85742 8.4332 5.26456 9.84034 7.00028 9.84034C8.73599 9.84034 10.1431 8.4332 10.1431 6.69748C10.1431 4.96177 8.73599 3.55463 7.00028 3.55463ZM8.41457 8.11177C8.22907 8.2978 8.00862 8.44532 7.7659 8.54584C7.52319 8.64636 7.26299 8.69789 7.00028 8.69748C6.46635 8.69748 5.96456 8.48855 5.58599 8.11177C5.39996 7.92627 5.25245 7.70582 5.15193 7.46311C5.05141 7.22039 4.99987 6.96019 5.00028 6.69748C5.00028 6.16355 5.20921 5.66177 5.58599 5.2832C5.96456 4.90463 6.46635 4.69748 7.00028 4.69748C7.53421 4.69748 8.03599 4.90463 8.41457 5.2832C8.79314 5.66177 9.00028 6.16355 9.00028 6.69748C9.00028 7.23141 8.79314 7.7332 8.41457 8.11177Z" fill="#808080"/>
</svg>
