<svg width="30" height="30" viewBox="0 0 30 30" fill="none" xmlns="http://www.w3.org/2000/svg">
<rect width="30" height="30" rx="15" fill="#808080"/>
<g clip-path="url(#clip0_137_1584)">
<path d="M22.4286 8.71094H7.57143C7.25536 8.71094 7 8.96629 7 9.28237V20.7109C7 21.027 7.25536 21.2824 7.57143 21.2824H22.4286C22.7446 21.2824 23 21.027 23 20.7109V9.28237C23 8.96629 22.7446 8.71094 22.4286 8.71094ZM21.7143 10.6895V19.9967H8.28571V10.6895L7.79286 10.3056L8.49464 9.40379L9.25893 9.99844H20.7429L21.5071 9.40379L22.2089 10.3056L21.7143 10.6895ZM15 14.4609L8.49286 9.40201L7.79107 10.3038L14.3839 15.4306C14.5594 15.5669 14.7752 15.6409 14.9973 15.6409C15.2195 15.6409 15.4353 15.5669 15.6107 15.4306L21.7143 10.6895L22.2071 10.3056L21.5054 9.40379L15 14.4609Z" fill="#1A1A1A"/>
<path d="M22.4286 8.71094H7.57143C7.25536 8.71094 7 8.96629 7 9.28237V20.7109C7 21.027 7.25536 21.2824 7.57143 21.2824H22.4286C22.7446 21.2824 23 21.027 23 20.7109V9.28237C23 8.96629 22.7446 8.71094 22.4286 8.71094ZM21.7143 10.6895V19.9967H8.28571V10.6895L7.79286 10.3056L8.49464 9.40379L9.25893 9.99844H20.7429L21.5071 9.40379L22.2089 10.3056L21.7143 10.6895ZM15 14.4609L8.49286 9.40201L7.79107 10.3038L14.3839 15.4306C14.5594 15.5669 14.7752 15.6409 14.9973 15.6409C15.2195 15.6409 15.4353 15.5669 15.6107 15.4306L21.7143 10.6895L22.2071 10.3056L21.5054 9.40379L15 14.4609Z" fill="#1A1A1A"/>
</g>
<defs>
<clipPath id="clip0_137_1584">
<rect width="16" height="16" fill="white" transform="translate(7 7)"/>
</clipPath>
</defs>
</svg>
