<svg width="14" height="12" viewBox="0 0 14 12" fill="none" xmlns="http://www.w3.org/2000/svg">
<path fill-rule="evenodd" clip-rule="evenodd" d="M4.55796 0.9839C4.57314 0.886509 4.65701 0.814697 4.75557 0.814697H9.24443C9.34299 0.814697 9.42686 0.886509 9.44204 0.9839L10.1084 5.25956C10.1273 5.38083 10.0335 5.49036 9.91076 5.49036H4.08924C3.96651 5.49036 3.87273 5.38083 3.89163 5.25956L4.55796 0.9839ZM5.02357 4.49036H8.97643L8.55944 1.8147H5.44056L5.02357 4.49036Z" fill="#808080"/>
<path fill-rule="evenodd" clip-rule="evenodd" d="M0.888846 6.67897C0.904023 6.58158 0.987894 6.50977 1.08646 6.50977H5.57531C5.67388 6.50977 5.75775 6.58158 5.77293 6.67897L6.43926 10.9546C6.45816 11.0759 6.36438 11.1854 6.24164 11.1854H0.420129C0.297394 11.1854 0.203615 11.0759 0.222514 10.9546L0.888846 6.67897ZM1.35446 10.1854H5.30731L4.89033 7.50977H1.77144L1.35446 10.1854Z" fill="#808080"/>
<path fill-rule="evenodd" clip-rule="evenodd" d="M8.42469 6.50977C8.32612 6.50977 8.24225 6.58158 8.22707 6.67897L7.56074 10.9546C7.54184 11.0759 7.63562 11.1854 7.75836 11.1854H13.5799C13.7026 11.1854 13.7964 11.0759 13.7775 10.9546L13.1112 6.67897C13.096 6.58158 13.0121 6.50977 12.9135 6.50977H8.42469ZM12.6455 10.1854H8.69269L9.10967 7.50977H12.2286L12.6455 10.1854Z" fill="#808080"/>
</svg>
