<svg width="14" height="12" viewBox="0 0 14 12" fill="none" xmlns="http://www.w3.org/2000/svg">
<path fill-rule="evenodd" clip-rule="evenodd" d="M4.55809 0.9839C4.57327 0.886509 4.65714 0.814697 4.7557 0.814697H9.24456C9.34312 0.814697 9.42699 0.886509 9.44217 0.9839L10.1085 5.25956C10.1274 5.38083 10.0336 5.49036 9.91089 5.49036H4.08937C3.96664 5.49036 3.87286 5.38083 3.89176 5.25956L4.55809 0.9839ZM5.0237 4.49036H8.97656L8.55957 1.8147H5.44069L5.0237 4.49036Z" fill="black"/>
<path fill-rule="evenodd" clip-rule="evenodd" d="M0.888975 6.67897C0.904153 6.58158 0.988023 6.50977 1.08659 6.50977H5.57544C5.67401 6.50977 5.75788 6.58158 5.77306 6.67897L6.43939 10.9546C6.45829 11.0759 6.36451 11.1854 6.24177 11.1854H0.420259C0.297524 11.1854 0.203745 11.0759 0.222644 10.9546L0.888975 6.67897ZM1.35459 10.1854H5.30744L4.89046 7.50977H1.77157L1.35459 10.1854Z" fill="black"/>
<path fill-rule="evenodd" clip-rule="evenodd" d="M8.42482 6.50977C8.32625 6.50977 8.24238 6.58158 8.2272 6.67897L7.56087 10.9546C7.54197 11.0759 7.63575 11.1854 7.75848 11.1854H13.58C13.7027 11.1854 13.7965 11.0759 13.7776 10.9546L13.1113 6.67897C13.0961 6.58158 13.0122 6.50977 12.9137 6.50977H8.42482ZM12.6457 10.1854H8.69282L9.1098 7.50977H12.2287L12.6457 10.1854Z" fill="black"/>
</svg>
