<svg width="16" height="17" viewBox="0 0 16 17" fill="none" xmlns="http://www.w3.org/2000/svg">
<path fill-rule="evenodd" clip-rule="evenodd" d="M5.34639 0.460598C4.81614 0.564723 4.3772 0.999817 4.28067 1.51697C4.26245 1.6146 4.24926 2.30213 4.24926 3.15382V4.62232L4.09858 4.39173C4.01567 4.26491 3.84561 4.0666 3.72061 3.95101C3.41904 3.67216 2.93729 3.43507 2.09301 3.1501C1.3166 2.88801 1.33579 2.89551 0.985135 2.71744C0.582198 2.51282 0.342354 2.53104 0.193541 2.7776C0.0465721 3.02104 -0.050678 4.15719 0.0280096 4.71141C0.223166 6.08619 1.08717 7.05498 2.56542 7.5566L2.86595 7.65857L2.88601 7.94113C2.89704 8.09651 2.93145 8.32913 2.96248 8.45804C2.99348 8.58695 3.33282 9.58401 3.71657 10.6737L4.41429 12.6551L4.36283 12.9237C4.26423 13.4383 4.32548 13.9261 4.54279 14.3576C4.71648 14.7026 4.86745 14.8616 5.5782 15.4483C6.34033 16.0774 6.53311 16.2062 6.88923 16.324C7.10673 16.396 7.19158 16.407 7.53052 16.407C7.86945 16.407 7.9543 16.396 8.1718 16.324C8.30967 16.2784 8.50986 16.188 8.6167 16.123C8.89811 15.952 10.1356 14.9188 10.2865 14.7289C10.5605 14.3841 10.749 13.8387 10.7495 13.389C10.7496 13.2809 10.7262 13.07 10.6975 12.9204L10.6454 12.6483L11.3439 10.6704C11.728 9.58251 12.0676 8.58695 12.0986 8.45804C12.1296 8.32913 12.164 8.09635 12.1751 7.94076L12.1951 7.65785L12.5113 7.55126C13.1538 7.33463 13.7077 7.00335 14.1266 6.58504C14.6348 6.07773 14.9181 5.48998 15.0328 4.70507C15.0801 4.38191 15.0544 3.54051 14.9862 3.17679C14.925 2.85051 14.8644 2.72635 14.724 2.6396C14.552 2.53329 14.4022 2.55172 14.0708 2.72001C13.7326 2.89172 13.5378 2.96726 12.843 3.19576C12.1319 3.42966 11.633 3.68044 11.3404 3.95101C11.2154 4.0666 11.0454 4.26491 10.9625 4.39173L10.8118 4.62232L10.811 3.1261C10.8106 2.23194 10.7975 1.57475 10.7786 1.49288C10.6058 0.743004 9.81124 0.275691 9.04745 0.474629C8.77839 0.544723 8.51467 0.697348 8.35417 0.875848C8.0368 1.22885 8.00033 1.40069 7.99974 2.54554C7.9992 3.54716 7.99433 3.57197 7.78108 3.65729C7.50905 3.76613 7.20392 3.69026 7.10173 3.48835C7.07333 3.43222 7.06242 3.17251 7.06177 2.53616C7.06077 1.58044 7.03701 1.39016 6.88367 1.10844C6.61742 0.619223 5.95661 0.340754 5.34639 0.460598ZM5.87205 1.41904C5.93098 1.44907 6.00833 1.51332 6.04392 1.56179C6.10523 1.64529 6.10951 1.70185 6.12523 2.63991C6.1408 3.56751 6.1462 3.64076 6.21095 3.80179C6.29676 4.01519 6.47408 4.25185 6.64695 4.38369C7.03617 4.68057 7.6948 4.73041 8.21161 4.5021C8.43064 4.40532 8.72667 4.10744 8.83627 3.87354L8.92114 3.69241L8.93677 2.67116C8.95161 1.70063 8.95561 1.64554 9.01711 1.56179C9.21155 1.29704 9.62067 1.30644 9.80333 1.57985L9.87427 1.68604V3.45013C9.87427 5.47519 9.85399 5.33066 10.1739 5.58523C10.7238 6.02279 11.1058 6.66554 11.2211 7.34713C11.2605 7.57988 11.2425 8.04204 11.1857 8.25491C11.1236 8.48792 9.98477 11.708 9.96446 11.708C9.95339 11.708 9.80877 11.596 9.64308 11.4591C9.15464 11.0554 8.79286 10.8659 8.25511 10.7321C7.87214 10.6369 7.19108 10.6363 6.81177 10.7309C6.27348 10.8651 5.86801 11.0812 5.36326 11.503C5.22829 11.6158 5.10817 11.708 5.09626 11.708C5.06239 11.708 3.91036 8.40591 3.85889 8.16116C3.67161 7.27107 4.06486 6.26288 4.85192 5.61526C4.97592 5.51323 5.09848 5.39744 5.12426 5.35794C5.16411 5.29694 5.17348 5.01119 5.18676 3.45272L5.20239 1.61925L5.28051 1.53466C5.43648 1.36579 5.67586 1.31897 5.87205 1.41904ZM1.73729 4.02179C2.50595 4.28219 2.87082 4.44698 3.08529 4.63054C3.31739 4.82923 3.46061 5.1266 3.51645 5.52591C3.53445 5.65463 3.52589 5.68791 3.44407 5.80716C3.32132 5.98604 3.14614 6.33985 3.07926 6.54398C3.04967 6.63419 3.01201 6.70804 2.99557 6.70804C2.97911 6.70804 2.83611 6.65804 2.67776 6.59691C1.78339 6.25169 1.25004 5.71998 1.02845 4.95269C0.952073 4.68822 0.900542 3.77054 0.962073 3.77054C0.980573 3.77054 1.32942 3.8836 1.73729 4.02179ZM14.1157 4.2471C14.1031 4.59913 14.0814 4.78351 14.0326 4.95269C13.8166 5.70063 13.2873 6.23994 12.4368 6.57876C12.0355 6.7386 12.0458 6.73932 11.9826 6.54651C11.915 6.3401 11.7403 5.98685 11.617 5.80716C11.5351 5.68791 11.5266 5.65463 11.5446 5.52591C11.623 4.9656 11.8299 4.66779 12.3224 4.40666C12.5356 4.29366 13.9501 3.78313 14.0738 3.7746C14.1297 3.77072 14.1318 3.79416 14.1157 4.2471ZM5.34255 7.5596C5.17417 7.64495 5.08779 7.78401 5.08779 7.96973C5.08779 8.24751 5.26483 8.42645 5.53989 8.42666C5.82939 8.42688 5.99905 8.25951 5.99905 7.97366C5.99905 7.76963 5.91311 7.62888 5.7408 7.55066C5.5698 7.47304 5.51073 7.47435 5.34255 7.5596ZM9.32024 7.55066C9.14792 7.62888 9.06199 7.76963 9.06199 7.97366C9.06199 8.25951 9.23164 8.42688 9.52114 8.42666C9.79621 8.42645 9.97324 8.24751 9.97324 7.96973C9.97324 7.78401 9.88686 7.64495 9.71849 7.5596C9.5503 7.47435 9.49124 7.47304 9.32024 7.55066ZM7.90398 11.6169C7.99077 11.6355 8.06177 11.6556 8.06177 11.6615C8.06177 11.6674 8.02664 11.8034 7.98373 11.9636C7.89123 12.3089 7.88733 12.406 7.96027 12.5512C8.10508 12.8394 8.51177 12.8907 8.73108 12.6484C8.76399 12.612 8.82074 12.4695 8.85721 12.3316L8.92355 12.081L9.2192 12.3262C9.68414 12.7118 9.78955 12.9082 9.79364 13.3962C9.79596 13.6705 9.78833 13.7095 9.69617 13.8962C9.57452 14.1425 9.43574 14.2798 8.70586 14.8755C8.0483 15.4122 7.93573 15.4691 7.53052 15.4691C7.12517 15.4691 7.01808 15.4145 6.34192 14.8628C5.58245 14.2431 5.47817 14.1402 5.36164 13.8955C5.27361 13.7108 5.26511 13.6656 5.26739 13.3955C5.27148 12.9083 5.37708 12.7117 5.84183 12.3262L6.13748 12.081L6.20383 12.3316C6.2403 12.4695 6.29705 12.612 6.32995 12.6484C6.53114 12.8707 6.91795 12.8464 7.07852 12.6014C7.1797 12.4469 7.16227 12.2114 7.01192 11.7024C6.99989 11.6616 7.02648 11.643 7.13064 11.6198C7.31758 11.5779 7.71555 11.5765 7.90398 11.6169Z" fill="#1A1A1A"/>
</svg>
