<svg width="16" height="12" viewBox="0 0 16 12" fill="none" xmlns="http://www.w3.org/2000/svg">
<path fill-rule="evenodd" clip-rule="evenodd" d="M9.67689 0.491801C9.54495 0.561457 9.43435 0.745832 9.43435 0.896113C9.43435 1.05118 9.54489 1.23121 9.68354 1.30196C9.78023 1.35127 9.86792 1.36486 10.0894 1.36486H10.3719V1.83361V2.30236H9.60729C8.94914 2.30236 8.82707 2.30983 8.73017 2.35605C8.64389 2.39717 8.55207 2.50667 8.33714 2.8248L8.0567 3.23986H6.10586H4.15502L4.00089 3.0133C3.79108 2.70486 3.61545 2.54358 3.35623 2.42124L3.13748 2.31799L1.75636 2.30867C0.41358 2.29961 0.371768 2.30114 0.248987 2.36377C0.164018 2.40711 0.100768 2.47117 0.0557055 2.55955C-0.00332569 2.67524 -0.00888818 2.72236 0.00895555 2.95461C0.0508305 3.49952 0.306924 4.04242 0.705893 4.43214C1.0507 4.76898 1.43149 4.97467 1.87274 5.06245L2.07499 5.10267L2.39486 5.57533L2.71473 6.04798L2.53548 6.06811C1.36583 6.19948 0.395299 7.02911 0.0863305 8.16173C-0.0114507 8.52013 -0.0114507 9.20957 0.0863305 9.56798C0.352018 10.5419 1.13233 11.3222 2.10624 11.5879C2.46005 11.6844 3.15458 11.6856 3.50305 11.5903C4.33605 11.3624 5.0063 10.8006 5.36108 10.0327L5.46751 9.80235H6.90251C7.85414 9.80235 8.39332 9.79041 8.50314 9.76691C8.88782 9.68457 9.22964 9.42738 9.39798 9.0936C9.44973 8.99098 9.52689 8.74148 9.57504 8.5211C9.72014 7.8571 9.8856 7.45014 10.2098 6.95976C10.3883 6.68986 10.7977 6.23076 10.8457 6.24676C10.8603 6.25164 10.9559 6.3812 11.058 6.5347L11.2437 6.81379L11.1499 6.92526C10.7757 7.36967 10.5859 7.71445 10.4606 8.17735C10.3609 8.54592 10.3613 9.19888 10.4616 9.56798C10.7259 10.5407 11.5072 11.3222 12.4812 11.5879C12.8396 11.6857 13.5291 11.6857 13.8875 11.5879C14.8614 11.3222 15.6417 10.5419 15.9074 9.56798C16.0052 9.20957 16.0052 8.52013 15.9074 8.16173C15.476 6.58029 13.8262 5.69017 12.2859 6.20776L12.025 6.29542L11.8379 6.01704C11.7349 5.86392 11.643 5.71861 11.6336 5.69411C11.5978 5.60089 12.3272 5.30123 12.8486 5.19492C12.9819 5.16773 13.242 5.13661 13.4267 5.12576C13.8316 5.10201 13.9667 5.04642 14.0589 4.86567C14.1158 4.75417 14.1219 4.68208 14.1219 4.11427C14.1219 3.76883 14.1067 3.38508 14.0883 3.26149C13.8701 1.80233 12.7469 0.679113 11.2877 0.460957C11.1641 0.442489 10.7774 0.427989 10.4284 0.428739C9.85842 0.429989 9.78182 0.436426 9.67689 0.491801ZM11.6278 1.50858C11.9485 1.62261 12.2596 1.82396 12.5004 2.07336C12.9765 2.56655 13.1473 2.98895 13.1755 3.74355L13.1926 4.20039L13.0088 4.22245C11.338 4.4232 9.79739 5.53458 9.07451 7.06057C8.88801 7.45432 8.79523 7.7296 8.68654 8.21179C8.58398 8.66667 8.55976 8.72148 8.42454 8.80392C8.28373 8.88976 7.54151 8.89429 7.39679 8.81017C7.32129 8.76626 7.22695 8.60451 6.91842 7.98985C6.70704 7.56876 6.50261 7.19104 6.46417 7.15048C6.32342 7.00198 6.24211 6.98986 5.38692 6.98986C4.73136 6.98986 4.57092 6.98126 4.49527 6.94217C4.4288 6.90779 4.16005 6.53054 3.53239 5.59061C2.59783 4.19105 2.58614 4.17736 2.32545 4.17736C1.86261 4.17736 1.34239 3.86764 1.12727 3.46402C1.07274 3.3617 1.02811 3.26942 1.02811 3.25892C1.02811 3.24845 1.45067 3.23986 1.96717 3.23986C2.74792 3.23986 2.92177 3.24789 2.99845 3.28755C3.06492 3.32192 3.33367 3.69917 3.96133 4.63911C4.70539 5.75339 4.84867 5.95092 4.94673 5.99767C5.04892 6.04639 5.17576 6.05236 6.10623 6.05236C7.03667 6.05236 7.16354 6.04639 7.26576 5.99767C7.36401 5.95086 7.51048 5.74836 8.28295 4.59142L9.18536 3.23986H10.05C10.8508 3.23986 10.9242 3.23524 11.0437 3.17736C11.126 3.13752 11.1976 3.0708 11.2411 2.99342C11.3058 2.8783 11.3094 2.83436 11.3094 2.14967C11.3094 1.54174 11.3165 1.42736 11.3544 1.42736C11.3791 1.42736 11.5022 1.46389 11.6278 1.50858ZM7.12186 4.64611L6.80836 5.11486H6.10623H5.40411L5.09061 4.64611L4.77711 4.17736H6.10623H7.43536L7.12186 4.64611ZM2.93436 7.02542C2.89139 7.04267 2.75439 7.10629 2.62992 7.16686C2.24405 7.35461 1.97236 7.73392 1.89667 8.19054C1.77583 8.91992 2.30758 9.65073 3.04727 9.77185C3.14845 9.78845 3.5028 9.80207 3.83473 9.80216L4.43823 9.80235L4.33473 9.94707C3.99417 10.4232 3.38623 10.7388 2.80936 10.7388C1.79824 10.7388 0.935455 9.87598 0.935455 8.86485C0.935455 8.0106 1.57274 7.21761 2.40311 7.03861C2.64795 6.98582 3.05845 6.97564 2.93436 7.02542ZM13.575 7.03686C14.4183 7.21392 15.0583 8.00264 15.0583 8.86485C15.0583 9.87598 14.1955 10.7388 13.1844 10.7388C12.3221 10.7388 11.5334 10.0988 11.3564 9.25548C11.248 8.73926 11.3578 8.20264 11.657 7.78592C11.7123 7.70901 11.768 7.6461 11.781 7.6461C11.7939 7.6461 12.0429 8.00126 12.3342 8.43532C12.8949 9.27057 12.9547 9.3336 13.1867 9.3336C13.4222 9.3336 13.6531 9.10157 13.6531 8.86485C13.6531 8.73038 13.5966 8.63242 13.0493 7.81798C12.5666 7.09973 12.5664 7.0992 12.6488 7.0742C12.9407 6.98554 13.2678 6.97239 13.575 7.03686ZM6.05205 8.38076C6.17639 8.63013 6.27811 8.84107 6.27811 8.84951C6.27811 8.85795 5.58145 8.86485 4.72998 8.86485C3.24008 8.86485 3.17723 8.86248 3.05855 8.80195C2.91989 8.7312 2.80936 8.55117 2.80936 8.3961C2.80936 8.24582 2.91995 8.06145 3.05189 7.99179C3.1628 7.93326 3.23633 7.93004 4.49736 7.92873L5.82598 7.92735L6.05205 8.38076Z" fill="#1A1A1A"/>
</svg>
