<svg width="16" height="17" viewBox="0 0 16 17" fill="none" xmlns="http://www.w3.org/2000/svg">
<path fill-rule="evenodd" clip-rule="evenodd" d="M13.4997 1.78566C13.4983 0.80209 12.8133 0.752984 11.9776 1.14403C11.2116 1.50247 10.6811 2.22847 10.5684 3.0725C10.5449 3.24856 10.4602 3.40978 9.59578 4.92363L8.64891 6.58187L8.45347 6.67422C7.77944 6.99269 6.95404 6.94853 6.33144 6.56075L6.141 6.44212L4.64101 6.44219C3.31066 6.44228 3.11669 6.4485 2.92613 6.49734C1.98138 6.7395 1.33685 7.38162 1.06813 8.34837C1.02338 8.50928 1.01601 8.71606 1.01601 9.80697C1.01601 11.042 1.01782 11.0805 1.08044 11.1644C1.21782 11.3485 1.29444 11.3801 1.58904 11.3742C2.02023 11.3654 2.46813 11.2187 2.86972 10.9546C2.96591 10.8913 2.92954 10.9742 2.36991 12.0939C2.03798 12.7581 1.75394 13.3015 1.73876 13.3015C1.70441 13.3015 1.28154 12.9462 0.969132 12.6548C0.689851 12.3943 0.637789 12.364 0.469632 12.364C0.149289 12.364 -0.0643986 12.6495 0.0271951 12.9552C0.0526326 13.0401 0.161633 13.1689 0.429664 13.4307C2.23101 15.1904 4.76326 16.2455 7.46132 16.3606C9.33994 16.4407 11.0785 16.1112 12.7408 15.3599C13.428 15.0494 14.3133 14.5064 14.9066 14.0316C15.353 13.6745 15.9336 13.0887 15.9736 12.9551C16.066 12.6469 15.8512 12.3637 15.5254 12.3642C15.3599 12.3644 15.3038 12.4004 14.917 12.7549C14.553 13.0884 14.3163 13.2841 14.2983 13.2662C14.2913 13.259 13.8838 12.4832 13.3929 11.542L12.5004 9.83072V8.34737V6.864C12.7706 6.864 12.8755 6.91405 13.0803 7.11397C13.741 7.75881 14.2096 7.82228 14.8234 7.21191C15.121 6.91597 15.4855 6.58647 15.5693 6.40956C15.7199 6.09158 15.7202 5.69511 15.5655 5.37897C15.471 5.18588 15.3574 5.05866 14.5743 4.26916L13.4997 3.17684V1.78566ZM12.5976 3.59263C12.6167 3.63016 13.1088 4.13947 13.6913 4.72444C14.661 5.69819 14.7504 5.79684 14.7504 5.89287C14.7504 6.12296 14.2504 6.614 14.0223 6.614C13.9089 6.614 13.8746 6.58953 13.5629 6.28587C13.3776 6.10541 13.2209 5.95631 13.2148 5.95456C13.2086 5.95278 12.9855 5.94178 12.7191 5.93009C12.1324 5.90435 11.6204 5.70181 11.5032 5.06822C11.4612 4.84094 11.4599 3.49663 11.5014 3.17684C11.5568 2.74981 12.0085 1.9265 12.536 1.9265C12.6031 1.9265 12.5166 3.43327 12.5976 3.59263ZM11.5629 6.62453L11.5637 8.34581L11.5646 10.0671L12.5456 11.9421L13.5265 13.8171L13.4432 13.8875C13.2676 14.0357 13.3488 14.102 11.7386 12.4945C10.3832 11.1415 10.2225 10.9911 10.111 10.9708C9.96969 10.9451 9.87619 10.9689 9.4955 11.1274C8.55322 11.5197 7.4505 11.5188 6.50038 11.1249C6.12388 10.9688 6.03044 10.9452 5.88975 10.9708C5.77822 10.9911 5.61754 11.1415 4.26219 12.4945C2.68754 14.0665 2.73419 14.027 2.58466 13.9132C2.53204 13.8732 2.57432 13.7789 3.22529 12.4843L3.92226 11.0984L3.93788 9.64525L3.95351 8.19212L4.04429 7.99553C4.1541 7.75772 4.39972 7.51994 4.61644 7.44156C4.71363 7.40644 4.89957 7.38209 5.14741 7.37203L5.52882 7.35656L5.53804 8.23359L5.54725 9.11062L5.65363 9.22034C5.72322 9.29209 5.85482 9.368 6.03397 9.43969C6.8455 9.7645 7.67635 9.81828 8.49335 9.59887C8.84453 9.50456 9.20853 9.35337 9.30803 9.26053C9.46638 9.11272 9.46913 9.09178 9.46913 8.03044V7.03753L10.5465 5.14931C10.7152 5.78172 11.0132 6.26843 11.5629 6.62453ZM3.20326 7.55931C3.06607 7.85969 3.02854 8.07219 3.0031 8.69212C2.98257 9.19225 2.96782 9.31409 2.90948 9.46478C2.81773 9.70181 2.60766 9.98225 2.41885 10.1198C2.25435 10.2396 2.02466 10.364 1.96785 10.364C1.94248 10.364 1.93623 10.1198 1.94516 9.48119C1.95651 8.6705 1.96307 8.58344 2.02523 8.41553C2.14544 8.0909 2.35079 7.82341 2.62432 7.63522C2.77632 7.53066 3.09832 7.39953 3.2096 7.39687L3.27816 7.39525L3.20326 7.55931ZM6.77135 7.74509C7.16366 7.84262 7.8371 7.84262 8.22941 7.74509C8.38116 7.70737 8.51122 7.6765 8.51847 7.6765C8.52572 7.6765 8.53163 7.88687 8.53163 8.144V8.6115L8.32147 8.67641C8.20591 8.71209 7.97388 8.75744 7.80585 8.77716C7.448 8.81913 7.01644 8.78053 6.67929 8.67641L6.46913 8.6115V8.144C6.46913 7.88687 6.47504 7.6765 6.48229 7.6765C6.48954 7.6765 6.6196 7.70737 6.77135 7.74509ZM6.32472 12.0694C6.69122 12.2018 7.14741 12.2993 7.58632 12.339C8.27057 12.401 9.03203 12.302 9.68463 12.0663L9.91575 11.9828L11.1456 13.2123C11.822 13.8886 12.3715 14.4538 12.3666 14.4684C12.352 14.5121 11.6736 14.7961 11.2284 14.9448C10.1501 15.3051 9.18925 15.4577 8.00038 15.4577C6.81366 15.4577 5.85475 15.3047 4.762 14.9409C4.39232 14.8178 3.77716 14.5665 3.65663 14.4892C3.61935 14.4654 3.86247 14.2063 4.84397 13.2241C5.52282 12.5448 6.0836 11.989 6.09019 11.989C6.09679 11.989 6.20232 12.0252 6.32472 12.0694Z" fill="#1A1A1A"/>
</svg>
