<svg width="16" height="17" viewBox="0 0 16 17" fill="none" xmlns="http://www.w3.org/2000/svg">
<path fill-rule="evenodd" clip-rule="evenodd" d="M6.75287 5.49047C6.78884 5.44194 6.86475 5.37062 6.92156 5.33194C7.02165 5.26381 7.04837 5.26162 7.77931 5.26162C8.80893 5.26162 9.00819 5.31866 9.42906 5.73391C9.92765 6.22581 10.0494 6.91991 9.74593 7.53959C9.52906 7.98234 9.07409 8.33197 8.60131 8.41919C8.49675 8.43847 8.12131 8.44844 7.70506 8.44294C7.03368 8.43409 6.98325 8.42937 6.90065 8.36772C6.85215 8.33156 6.78437 8.25422 6.75 8.19584C6.69031 8.0945 6.6875 8.03356 6.6875 6.83422C6.6875 5.60925 6.68909 5.57656 6.75287 5.49047ZM8.85365 6.48975C8.79903 6.40719 8.71253 6.3345 8.60534 6.28109C8.45359 6.20547 8.40987 6.19912 8.04075 6.19912H7.64062V7.51162L7.99218 7.51087C8.52162 7.50975 8.63803 7.46959 8.84193 7.21762C8.93009 7.10872 8.9375 7.08084 8.9375 6.858C8.9375 6.64825 8.92647 6.59975 8.85365 6.48975Z" fill="#1A1A1A"/>
<path fill-rule="evenodd" clip-rule="evenodd" d="M4.67059 3.89422C4.8885 3.47428 5.29868 3.17169 5.78125 3.07481C5.96359 3.03822 8.35437 3.0385 8.70312 3.07516C10.6304 3.27778 12.1087 4.909 12.1093 6.83375C12.1095 7.6099 11.9086 8.29437 11.4973 8.91872C10.9613 9.73222 10.1746 10.2935 9.23668 10.5314C8.91662 10.6126 8.39825 10.6666 7.9309 10.6674L7.64309 10.6679L7.63403 12.0507C7.62543 13.3684 7.62206 13.4385 7.5625 13.5396C7.52812 13.598 7.46031 13.6753 7.41181 13.7115C7.32622 13.7753 7.28793 13.7775 6.10356 13.7861C4.93081 13.7947 4.8784 13.7925 4.75218 13.7314C4.66775 13.6906 4.59653 13.6245 4.55262 13.5464L4.48437 13.425V8.928C4.48437 4.62034 4.47664 4.28624 4.60573 4.01798C4.62435 3.97927 4.64583 3.94193 4.67059 3.89422ZM10.3615 4.87531C9.9579 4.45372 9.48903 4.18981 8.90215 4.05397C8.72837 4.01375 8.43462 4.00231 7.35937 3.99391C6.6289 3.98819 5.98906 3.9945 5.9375 4.00797C5.69428 4.07141 5.51197 4.23537 5.4545 4.44228C5.43306 4.51953 5.42215 5.94972 5.42206 8.70694L5.42187 12.8554H6.66887L6.67818 11.4569C6.68712 10.1157 6.69009 10.0541 6.75109 9.95022C6.78609 9.89068 6.86343 9.81334 6.92297 9.77834C7.02272 9.71975 7.10272 9.71318 7.9375 9.6949C8.62765 9.67981 8.88534 9.66315 9.01815 9.625C10.2745 9.26428 11.1025 8.2369 11.162 6.96475C11.1987 6.18206 10.9225 5.46134 10.3615 4.87531Z" fill="#1A1A1A"/>
<path fill-rule="evenodd" clip-rule="evenodd" d="M0 2.42871C0 1.32414 0.895431 0.428711 2 0.428711H14C15.1046 0.428711 16 1.32414 16 2.42871V14.4287C16 15.5333 15.1046 16.4287 14 16.4287H2C0.895431 16.4287 0 15.5333 0 14.4287V2.42871ZM2 1.42871H14C14.5523 1.42871 15 1.87643 15 2.42871V14.4287C15 14.981 14.5523 15.4287 14 15.4287H2C1.44772 15.4287 1 14.981 1 14.4287V2.42871C1 1.87643 1.44772 1.42871 2 1.42871Z" fill="#1A1A1A"/>
</svg>
