<svg width="16" height="17" viewBox="0 0 16 17" fill="none" xmlns="http://www.w3.org/2000/svg">
<path fill-rule="evenodd" clip-rule="evenodd" d="M5.51775 0.483367C5.45882 0.513398 5.38147 0.57768 5.34588 0.626211C5.2821 0.713117 5.28094 0.749024 5.26553 3.07934L5.24991 5.44424L2.885 5.45987C0.554688 5.47528 0.518781 5.47643 0.431875 5.54021C0.383344 5.57581 0.319063 5.65315 0.289031 5.71209C0.238281 5.81156 0.234375 6.00609 0.234375 8.42862C0.234375 10.8512 0.238281 11.0457 0.289031 11.1452C0.319063 11.2041 0.383344 11.2814 0.431875 11.317C0.518781 11.3808 0.554688 11.382 2.885 11.3974L5.24991 11.413L5.26553 13.7779C5.28094 16.1082 5.2821 16.1441 5.34588 16.231C5.38147 16.2796 5.45882 16.3438 5.51775 16.3739C5.61722 16.4246 5.81175 16.4285 8.23429 16.4285C10.6568 16.4285 10.8513 16.4246 10.9508 16.3739C11.0098 16.3438 11.0871 16.2796 11.1227 16.231C11.1865 16.1441 11.1876 16.1082 11.203 13.7779L11.2187 11.413L13.5836 11.3974C15.9139 11.382 15.9498 11.3808 16.0367 11.317C16.0852 11.2814 16.1495 11.2041 16.1795 11.1452C16.2303 11.0457 16.2342 10.8512 16.2342 8.42862C16.2342 6.00609 16.2303 5.81156 16.1795 5.71209C16.1495 5.65315 16.0852 5.57581 16.0367 5.54021C15.9498 5.47643 15.9139 5.47528 13.5836 5.45987L11.2187 5.44424L11.203 3.07934C11.1876 0.749024 11.1865 0.713117 11.1227 0.626211C11.0871 0.57768 11.0098 0.513398 10.9508 0.483367C10.8513 0.432617 10.6568 0.428711 8.23429 0.428711C5.81175 0.428711 5.61722 0.432617 5.51775 0.483367ZM10.2655 3.67199V5.97787L10.3358 6.11731C10.3872 6.21918 10.4437 6.27568 10.5456 6.32706L10.685 6.39737H12.9909H15.2968V8.42862V10.4599H12.9909H10.685L10.5456 10.5302C10.4437 10.5816 10.3872 10.6381 10.3358 10.7399L10.2655 10.8794V13.1853V15.4911H8.23429H6.20303V13.1853V10.8794L6.13272 10.7399C6.08135 10.6381 6.02485 10.5816 5.92297 10.5302L5.78353 10.4599H3.47766H1.17178V8.42862V6.39737H3.47766H5.78353L5.92297 6.32706C6.02485 6.27568 6.08135 6.21918 6.13272 6.11731L6.20303 5.97787V3.67199V1.36612H8.23429H10.2655V3.67199Z" fill="#1A1A1A"/>
</svg>
