<svg width="26" height="7" viewBox="0 0 26 7" fill="none" xmlns="http://www.w3.org/2000/svg">
<path d="M2.3921 0.806764C3.12457 0.806764 3.69852 0.981681 4.11394 1.33152C4.52937 1.68135 4.73709 2.16237 4.73709 2.77458C4.73709 3.3868 4.52937 3.86782 4.11394 4.21765C3.69852 4.56202 3.12457 4.73421 2.3921 4.73421H0.850641V6.54624H0.243896V0.806764H2.3921ZM2.3757 4.20125C2.94418 4.20125 3.37874 4.07827 3.67938 3.83229C3.98002 3.58084 4.13034 3.22828 4.13034 2.77458C4.13034 2.30996 3.98002 1.95466 3.67938 1.70868C3.37874 1.45724 2.94418 1.33152 2.3757 1.33152H0.850641V4.20125H2.3757Z" fill="#AE924E"/>
<path d="M8.09884 0.806764H8.70559V6.54624H8.09884V0.806764Z" fill="#AE924E"/>
<path d="M17.4194 0.806764V6.54624H16.9193L13.2296 1.88907V6.54624H12.6229V0.806764H13.123L16.8209 5.46394V0.806764H17.4194Z" fill="#AE924E"/>
<path d="M25.3848 3.6765H25.9669V5.8657C25.6991 6.10075 25.3821 6.28113 25.0158 6.40685C24.6496 6.53258 24.2642 6.59544 23.8597 6.59544C23.2858 6.59544 22.7692 6.46971 22.3101 6.21827C21.8509 5.96683 21.4901 5.61972 21.2278 5.17697C20.9654 4.72874 20.8342 4.22859 20.8342 3.6765C20.8342 3.12442 20.9654 2.627 21.2278 2.18424C21.4901 1.73601 21.8509 1.38618 22.3101 1.13473C22.7692 0.88329 23.2885 0.757568 23.8679 0.757568C24.3052 0.757568 24.707 0.828629 25.0732 0.970749C25.4394 1.1074 25.7483 1.31238 25.9997 1.58569L25.6226 1.97106C25.1689 1.52283 24.5922 1.29872 23.8925 1.29872C23.4279 1.29872 23.007 1.40258 22.6298 1.61029C22.2581 1.81254 21.9657 2.09678 21.7525 2.46301C21.5393 2.82378 21.4327 3.22828 21.4327 3.6765C21.4327 4.12473 21.5393 4.52922 21.7525 4.88999C21.9657 5.25076 22.2581 5.535 22.6298 5.74271C23.0015 5.95043 23.4197 6.05429 23.8843 6.05429C24.4747 6.05429 24.9748 5.9067 25.3848 5.61153V3.6765Z" fill="#AE924E"/>
</svg>
