<svg width="16" height="17" viewBox="0 0 16 17" fill="none" xmlns="http://www.w3.org/2000/svg">
<path fill-rule="evenodd" clip-rule="evenodd" d="M4.25 0.448905C4.20703 0.463061 4.11562 0.503467 4.04688 0.538686C3.87497 0.626749 0.108219 4.44178 0.0459062 4.59094C0.00609375 4.68619 0 5.45366 0 10.3638C0 16.018 9.37507e-05 16.027 0.064375 16.1598C0.134625 16.3049 0.320813 16.4216 0.482188 16.4216C0.6175 16.4216 0.811531 16.296 0.878219 16.1653C0.934875 16.0542 0.9375 15.9448 0.9375 13.7041V11.3591H1.46875H2V13.7294V16.0998L2.07094 16.206C2.22244 16.4328 2.10806 16.4231 4.52116 16.414C6.64941 16.4061 6.68428 16.4049 6.76922 16.3415C6.81669 16.3061 6.8845 16.2383 6.91994 16.1908C6.98353 16.1057 6.9845 16.0729 6.99275 13.7318L7.00116 11.3591H7.51544H8.02972L8.03831 13.7318C8.04675 16.0727 8.04775 16.1057 8.11131 16.1908C8.2775 16.4134 8.49141 16.4708 8.71644 16.3532C8.98916 16.2107 8.96875 16.5026 8.96875 12.7424V9.42156H9.29463H9.6205L9.68103 9.58563C9.71431 9.67585 10.2446 11.1591 10.8593 12.8818C12.0735 16.2838 12.0292 16.1792 12.3237 16.3367C12.4521 16.4054 12.4648 16.4059 13.9375 16.4059H15.4219L15.589 16.3134C15.7792 16.208 15.917 16.0305 15.9691 15.8239C15.9916 15.7343 16.0004 15.3854 15.9941 14.8273C15.9849 14.0183 15.9805 13.9612 15.9172 13.843C15.8318 13.6835 15.7065 13.5583 15.5473 13.4733C15.4321 13.4118 15.3658 13.4055 14.733 13.3958L14.0442 13.3853L12.986 10.4893C12.404 8.8966 11.8722 7.44806 11.8042 7.27038C11.6745 6.93106 11.5713 6.7835 11.3806 6.66494C11.2676 6.59469 11.2458 6.59316 10.125 6.57781L8.98438 6.56219L8.96875 5.57781C8.95941 4.98937 8.94022 4.57172 8.92103 4.53944C8.90334 4.50975 8.02103 3.60753 6.96028 2.5345C5.51022 1.06769 4.99584 0.566249 4.88747 0.51378C4.73222 0.438624 4.38772 0.403561 4.25 0.448905ZM4.50631 4.28891C2.93322 4.29331 1.6395 4.29022 1.63134 4.28206C1.62319 4.27391 2.26178 3.61328 3.05044 2.81403L4.48438 1.36084L5.92541 2.82087L7.36647 4.28094L4.50631 4.28891ZM8.03125 7.82781V10.4216H7.51891H7.00659L6.99181 9.695C6.97553 8.8935 6.95025 8.74344 6.76256 8.33281C6.49884 7.75588 6.01759 7.29163 5.44244 7.05931C5.08656 6.91556 4.88231 6.87797 4.46875 6.88006C4.13844 6.88172 4.03472 6.89506 3.79688 6.96638C2.92316 7.22838 2.26947 7.90869 2.06269 8.77125C2.01022 8.99016 2.00041 9.14009 2.00022 9.72625L2 10.4216H1.46875H0.9375V7.82781V5.23406H4.48438H8.03125V7.82781ZM10.9062 7.52513C10.9062 7.5305 11.4326 8.97375 12.076 10.7323C12.9399 13.0938 13.2696 13.9593 13.3371 14.0428C13.3874 14.105 13.5025 14.1946 13.5929 14.2419C13.7568 14.3276 13.7585 14.3278 14.4098 14.3278H15.0625V14.9059V15.4841H13.9241H12.7858L12.7253 15.32C12.6921 15.2298 12.1612 13.7458 11.5456 12.0223C10.3312 8.62206 10.3746 8.72456 10.0826 8.56938C9.96828 8.50863 9.89544 8.49928 9.46094 8.48956L8.96875 8.47856V7.99694V7.51531H9.9375C10.4703 7.51531 10.9062 7.51972 10.9062 7.52513ZM4.76769 7.83019C5.21684 7.91159 5.65616 8.23166 5.86869 8.63228C6.02316 8.92347 6.06134 9.16116 6.06197 9.83563L6.0625 10.4216H4.5H2.9375L2.93788 9.77313C2.93828 9.05438 2.95931 8.92469 3.12606 8.61178C3.24981 8.37963 3.55291 8.08644 3.78816 7.97134C3.96731 7.88369 4.28638 7.80316 4.47081 7.79903C4.53212 7.79769 4.66572 7.81169 4.76769 7.83019ZM6.0625 12.1559V12.9528H4.5H2.9375V12.1559V11.3591H4.5H6.0625V12.1559ZM6.0625 14.6872V15.4841H4.5H2.9375V14.6872V13.8903H4.5H6.0625V14.6872Z" fill="#1A1A1A"/>
</svg>
