<svg width="12" height="12" viewBox="0 0 12 12" fill="none" xmlns="http://www.w3.org/2000/svg">
<path d="M6.5356 0.461151H5.46417C5.36894 0.461151 5.32132 0.50877 5.32132 0.604008V5.32226H0.889195C0.793957 5.32226 0.746338 5.36988 0.746338 5.46512V6.53655C0.746338 6.63179 0.793957 6.67941 0.889195 6.67941H5.32132V11.3977C5.32132 11.4929 5.36894 11.5405 5.46417 11.5405H6.5356C6.63084 11.5405 6.67846 11.4929 6.67846 11.3977V6.67941H11.1114C11.2067 6.67941 11.2543 6.63179 11.2543 6.53655V5.46512C11.2543 5.36988 11.2067 5.32226 11.1114 5.32226H6.67846V0.604008C6.67846 0.50877 6.63084 0.461151 6.5356 0.461151Z" fill="#1A1A1A"/>
</svg>
