<svg width="16" height="16" viewBox="0 0 16 16" fill="none" xmlns="http://www.w3.org/2000/svg">
<path d="M11.2342 7.43832H8.56236L8.56236 4.76645C8.56236 4.68911 8.49908 4.62582 8.42174 4.62582L7.57799 4.62582C7.50064 4.62582 7.43736 4.68911 7.43736 4.76645V7.43832H4.76549C4.68814 7.43832 4.62486 7.50161 4.62486 7.57895L4.62486 8.4227C4.62486 8.50004 4.68814 8.56332 4.76549 8.56332L7.43736 8.56332V11.2352C7.43736 11.3125 7.50064 11.3758 7.57799 11.3758H8.42174C8.49908 11.3758 8.56236 11.3125 8.56236 11.2352V8.56332H11.2342C11.3116 8.56332 11.3749 8.50004 11.3749 8.4227V7.57895C11.3749 7.50161 11.3116 7.43832 11.2342 7.43832Z" fill="#7AB054"/>
<path d="M8 0.125C3.65117 0.125 0.125 3.65117 0.125 8C0.125 12.3488 3.65117 15.875 8 15.875C12.3488 15.875 15.875 12.3488 15.875 8C15.875 3.65117 12.3488 0.125 8 0.125ZM8 14.5391C4.38945 14.5391 1.46094 11.6105 1.46094 8C1.46094 4.38945 4.38945 1.46094 8 1.46094C11.6105 1.46094 14.5391 4.38945 14.5391 8C14.5391 11.6105 11.6105 14.5391 8 14.5391Z" fill="#7AB054"/>
</svg>
