<svg width="16" height="17" viewBox="0 0 16 17" fill="none" xmlns="http://www.w3.org/2000/svg">
<path fill-rule="evenodd" clip-rule="evenodd" d="M14.1839 2.79836C14.1839 4.10708 13.1229 5.16801 11.8142 5.16801C10.5055 5.16801 9.44456 4.10708 9.44456 2.79836C9.44456 1.48964 10.5055 0.428711 11.8142 0.428711C13.1229 0.428711 14.1839 1.48964 14.1839 2.79836ZM13.1839 2.79836C13.1839 3.5548 12.5707 4.16801 11.8142 4.16801C11.0578 4.16801 10.4446 3.5548 10.4446 2.79836C10.4446 2.04192 11.0578 1.42871 11.8142 1.42871C12.5707 1.42871 13.1839 2.04192 13.1839 2.79836Z" fill="#1A1A1A"/>
<path fill-rule="evenodd" clip-rule="evenodd" d="M3.31002 7.42618C3.41309 6.93615 3.7749 6.53111 4.25915 6.36368C4.49796 6.28108 4.9083 6.28877 5.16112 6.38052C5.53793 6.5173 5.7858 6.74993 5.97071 7.14036L6.07205 7.35433L6.1033 9.72933H8.00955L8.02524 8.54183C8.04027 7.40374 8.04383 7.34718 8.1108 7.18246C8.26324 6.80749 8.62124 6.47783 9.00815 6.35615C9.14324 6.31365 9.25768 6.3033 9.48818 6.31271C9.74768 6.32327 9.8209 6.33918 10.002 6.42411C10.4171 6.61883 10.7347 7.03515 10.8069 7.47933C10.8236 7.58246 10.8374 8.13443 10.8375 8.70589L10.8377 9.74496H15.6722L15.7784 9.8159C16.0638 10.0066 16.0565 10.3834 15.7631 10.6024C15.678 10.666 15.6456 10.667 13.2573 10.6754L10.8377 10.684V14.8941L10.9861 14.9154C11.2795 14.9576 11.5161 15.0349 11.9116 15.2179C12.4259 15.4559 12.5809 15.495 13.0096 15.495C13.4355 15.495 13.6171 15.4505 14.0877 15.231C14.5619 15.0098 14.8075 14.9381 15.2131 14.9025C15.6146 14.8673 15.7336 14.8925 15.8634 15.0403C16.0181 15.2165 16.0318 15.4611 15.8966 15.633C15.7999 15.756 15.6916 15.7986 15.4158 15.8221C15.0579 15.8526 14.832 15.9153 14.4939 16.0778C13.8664 16.3795 13.54 16.4488 12.863 16.4241C12.3266 16.4045 12.1204 16.3518 11.5572 16.0905C11.0769 15.8675 10.9134 15.8275 10.4939 15.8302C10.0681 15.833 9.94449 15.8643 9.41718 16.1031C8.76871 16.3968 8.68037 16.4162 7.99393 16.4162C7.30793 16.4162 7.22255 16.3974 6.57396 16.1037C6.04152 15.8626 5.91977 15.8323 5.4783 15.8307C5.06487 15.8291 4.90062 15.8708 4.39952 16.1045C3.81002 16.3795 3.64012 16.4168 2.9783 16.4168C2.34871 16.4168 2.19784 16.3891 1.75955 16.193C1.13177 15.9121 1.01199 15.8722 0.695586 15.8389C0.287524 15.796 0.265242 15.7901 0.153149 15.6958C-0.0366014 15.5361 -0.0502888 15.2393 0.123055 15.0419C0.254242 14.8925 0.372367 14.8672 0.774774 14.9025C1.18034 14.9381 1.42593 15.0098 1.90018 15.231C2.37074 15.4505 2.5524 15.495 2.9783 15.495C3.40884 15.495 3.57674 15.4525 4.0839 15.2157C4.47118 15.0349 4.70671 14.9578 5.00174 14.9154L5.15018 14.8941V10.684L2.73059 10.6754C0.342273 10.667 0.309867 10.666 0.224711 10.6024C-0.0686013 10.3834 -0.0759139 10.0066 0.209492 9.8159L0.31568 9.74496H3.27518V8.66836C3.27518 7.99674 3.28827 7.52949 3.31002 7.42618ZM5.05668 7.41735C5.03201 7.38609 5.00082 7.35997 4.9614 7.3268C4.7749 7.16986 4.4378 7.23243 4.28946 7.45149C4.23165 7.53693 4.2283 7.6014 4.2283 8.63558V9.72933L5.15018 9.74661V8.66611C5.15018 7.72924 5.15047 7.53616 5.05668 7.41735ZM9.84024 7.50908C9.80362 7.42627 9.73821 7.34649 9.67574 7.3084C9.51908 7.2129 9.27671 7.2214 9.15146 7.3268C9.11204 7.35997 9.08085 7.38609 9.05617 7.41735C8.96238 7.53616 8.96268 7.72924 8.96268 8.66611V9.74661L9.88455 9.72933L9.8928 8.68793C9.90049 7.71393 9.89709 7.63761 9.84024 7.50908ZM9.90018 12.37V10.6825H6.08768V12.37H9.90018ZM9.90018 14.93V13.3075H6.08768V14.93L6.22049 14.9643C6.47671 15.0303 6.57502 15.0678 6.93143 15.2357C7.37699 15.4455 7.57634 15.494 7.99393 15.494C8.41274 15.494 8.61405 15.4452 9.06134 15.235C9.4233 15.065 9.51905 15.0282 9.76737 14.9643L9.90018 14.93Z" fill="#1A1A1A"/>
</svg>
