<svg width="16" height="14" viewBox="0 0 16 14" fill="none" xmlns="http://www.w3.org/2000/svg">
<path fill-rule="evenodd" clip-rule="evenodd" d="M0.241188 0.470553C0.184781 0.499334 0.107437 0.566616 0.0693125 0.620053L0 0.71724V6.73286V12.7485L0.0696875 12.8462C0.22425 13.0629 -0.471281 13.0454 7.98959 13.0454C15.3657 13.0454 15.6297 13.0434 15.7349 12.9874C15.7947 12.9555 15.8752 12.8747 15.9136 12.8077L15.9833 12.686L15.9839 10.4876C15.9844 8.07917 15.9897 8.15033 15.8008 8.01777C15.7557 7.98608 12.3227 6.26902 8.17188 4.20211C2.289 1.27268 0.594 0.44121 0.484375 0.431147C0.39225 0.42271 0.308375 0.436272 0.241188 0.470553ZM3.73438 4.60792C3.73438 5.46727 3.72762 6.17036 3.71934 6.17036C3.71109 6.17036 3.07828 5.85783 2.31309 5.47583L0.921875 4.7813V3.21014V1.63899L2.32812 2.34224L3.73438 3.04549V4.60792ZM7.48428 6.47505C7.48434 7.3387 7.47738 8.04536 7.46884 8.04536C7.46031 8.04536 6.8275 7.73255 6.06259 7.3502L4.67188 6.65505V5.08717V3.5193L6.07803 4.21202L7.48416 4.90474L7.48428 6.47505ZM9.84366 6.08427L11.2344 6.77942V8.34958V9.91976L9.97656 9.29067C9.28478 8.94467 8.65228 8.63192 8.57106 8.59564L8.42334 8.52973L8.42262 6.95942C8.42222 6.09577 8.42887 5.38911 8.43741 5.38911C8.44594 5.38911 9.07875 5.70192 9.84366 6.08427ZM5.03125 7.88027C7.26562 8.99323 10.0852 10.399 11.2969 11.004L13.5 12.1042L7.21094 12.106L0.921875 12.1079V8.98286C0.921875 7.26411 0.932406 5.85758 0.945312 5.85727C0.958219 5.85692 2.79688 6.76727 5.03125 7.88027ZM13.6202 7.96808L15.0469 8.67204V10.2494V11.8267L13.6094 11.1079L12.1719 10.389V8.82654C12.1719 7.9672 12.1767 7.26411 12.1827 7.26411C12.1886 7.26411 12.8355 7.58089 13.6202 7.96808Z" fill="#1A1A1A"/>
</svg>
