<svg width="16" height="14" viewBox="0 0 16 14" fill="none" xmlns="http://www.w3.org/2000/svg">
<path fill-rule="evenodd" clip-rule="evenodd" d="M7.61819 0.472276C7.05078 0.609839 6.57119 1.08003 6.42041 1.64659C6.32378 2.00962 6.38594 2.56756 6.55172 2.8249C6.57756 2.86506 6.59409 2.90109 6.58844 2.905C6.58275 2.90887 6.46562 2.93768 6.32812 2.969C4.88391 3.29784 3.40072 4.25987 2.44712 5.48625C1.664 6.49337 1.10122 7.89331 1.01178 9.05666L0.990781 9.33H0.681656C0.304719 9.33 0.160375 9.38813 0.0629063 9.57919C0.0035625 9.69553 0 9.76185 0 10.7519C0 11.7223 0.00446875 11.81 0.0595312 11.9172C0.170969 12.1343 0.247031 12.1561 0.953125 12.1738L1.57812 12.1894L1.76647 12.7363C1.87006 13.037 1.9725 13.3147 1.99409 13.3533C2.01569 13.3919 2.08856 13.4517 2.15606 13.4862C2.2775 13.5481 2.33731 13.5488 8.00184 13.5488C13.2548 13.5488 13.7338 13.5445 13.8336 13.4972C13.8933 13.4689 13.9658 13.41 13.9945 13.3664C14.0233 13.3228 14.1329 13.0402 14.238 12.7383L14.429 12.1894L15.0505 12.1738C15.7535 12.1561 15.8123 12.1398 15.93 11.9304C15.9986 11.8083 16 11.7854 16 10.7542C16 9.76247 15.9964 9.6955 15.9372 9.57941C15.8439 9.39663 15.7291 9.34835 15.3438 9.33L15.0156 9.31438L15.0077 9.205C14.9745 8.74422 14.8337 8.06163 14.6677 7.55659C14.524 7.11953 14.1238 6.30181 13.8643 5.91537C13.1567 4.8615 12.2578 4.07122 11.123 3.50543C10.686 3.28753 9.99747 3.03493 9.61497 2.95218C9.4725 2.92134 9.43669 2.90215 9.44978 2.86359C9.459 2.83653 9.50344 2.70962 9.54859 2.58159C9.70731 2.1315 9.64097 1.58821 9.37709 1.177C9.00978 0.60462 8.27941 0.311963 7.61819 0.472276ZM8.31622 1.44853C8.60072 1.59715 8.73831 1.882 8.68163 2.205C8.64644 2.40547 8.51409 2.57668 8.31197 2.68322C8.16384 2.76128 8.11625 2.77137 7.96094 2.75784C7.73453 2.73809 7.52819 2.62125 7.41337 2.44775C7.33787 2.33365 7.32812 2.2895 7.32812 2.06153C7.32812 1.82568 7.33603 1.7929 7.42241 1.67C7.54556 1.49475 7.79534 1.36125 8 1.36125C8.10253 1.36125 8.20134 1.38853 8.31622 1.44853ZM8.61841 3.73806C10.733 3.9684 12.5495 5.23712 13.4704 7.12688C13.7752 7.75244 14.0036 8.52466 14.0516 9.09197L14.0717 9.33H8.00009H1.92853L1.94953 9.10394C2.00553 8.5016 2.22644 7.74847 2.5295 7.12688C3.64253 4.84397 6.11881 3.46578 8.61841 3.73806ZM15.0625 10.7519V11.2363H14.5282C13.9303 11.2363 13.8212 11.2632 13.715 11.4369C13.6826 11.4898 13.5756 11.7758 13.4772 12.0723L13.2982 12.6114L8.00362 12.6035L2.70913 12.5956L2.51863 12.0469C2.41384 11.7451 2.30456 11.4624 2.27578 11.4188C2.173 11.2628 2.05587 11.2363 1.47184 11.2363H0.9375V10.7519V10.2675H8H15.0625V10.7519Z" fill="#1A1A1A"/>
</svg>
