<svg width="16" height="16" viewBox="0 0 16 16" fill="none" xmlns="http://www.w3.org/2000/svg">
<path fill-rule="evenodd" clip-rule="evenodd" d="M12.7808 0.447075C12.5599 0.471138 12.1331 0.592044 11.8745 0.703794C10.9659 1.09651 10.2696 1.90911 10.0094 2.88051C9.93004 3.1767 9.92569 3.23339 9.91335 4.1283C9.90135 4.99926 9.89594 5.07386 9.83691 5.1793C9.80197 5.24173 9.72041 5.32258 9.65563 5.35898L9.53788 5.42517H6.36653C2.89147 5.42517 2.89444 5.42505 2.41675 5.61052C2.03666 5.75811 1.75716 5.94308 1.44978 6.25045C0.897939 6.8023 0.625001 7.46842 0.624251 8.2652C0.623533 9.01061 0.447814 9.80458 0.124845 10.5219C0.0559073 10.675 -0.000280199 10.846 1.05128e-06 10.9018C0.0011573 11.1298 0.23172 11.3627 0.456407 11.3627C0.691408 11.3627 1.3921 11.0641 1.78794 10.7953C1.89444 10.723 2.0981 10.5519 2.24053 10.4152L2.4995 10.1665V10.3104C2.4995 10.4299 2.44635 10.5611 2.18572 11.0855L1.87194 11.7169L1.88103 13.0007L1.89013 14.2846L1.97247 14.4602C2.08825 14.7071 2.2536 14.8766 2.49428 14.9952L2.70106 15.0971L3.66078 15.1065C4.57916 15.1156 4.62594 15.1132 4.74707 15.0514C4.93303 14.9566 4.9995 14.8061 4.9995 14.4799C4.9995 14.0231 4.8631 13.6482 4.58678 13.3459L4.42869 13.1729L4.49794 12.8225C4.63653 12.121 4.59928 12.202 4.85844 12.0379C5.17266 11.8388 5.49178 11.4904 5.65903 11.1638L5.79247 10.9032L5.98191 10.961C6.22453 11.035 6.73197 11.132 7.02294 11.1598C7.21882 11.1786 7.2495 11.1897 7.2495 11.2421C7.2495 11.4456 7.49794 11.6752 7.71825 11.6752C7.94522 11.6752 8.187 11.4451 8.187 11.2291C8.187 11.1599 8.21097 11.1506 8.58544 11.0737C8.80457 11.0288 9.01504 10.9825 9.05313 10.9708L9.12241 10.9497L9.13125 12.6171L9.14013 14.2846L9.22247 14.4602C9.33825 14.7071 9.5036 14.8766 9.74429 14.9952L9.95107 15.0971L10.9108 15.1065C11.8292 15.1156 11.8759 15.1132 11.9971 15.0514C12.183 14.9566 12.2495 14.8061 12.2495 14.4799C12.2495 14.015 12.1115 13.6434 11.8231 13.332L11.6528 13.148L11.7813 11.9981C11.852 11.3656 11.9124 10.8471 11.9156 10.8459C11.9188 10.8446 12.0152 10.7702 12.1298 10.6805C12.7452 10.1992 13.2106 9.44945 13.4134 8.61267C13.472 8.37083 13.4789 8.22595 13.491 6.99486L13.5042 5.64267L13.7085 5.82986C13.9566 6.05717 14.1698 6.14658 14.4705 6.14942C14.5901 6.15055 14.749 6.12836 14.8416 6.09758C15.0257 6.03642 15.5469 5.66127 15.7283 5.45933C15.9498 5.21267 16.0474 4.8372 15.9704 4.52883C15.9496 4.44601 15.7157 3.88948 15.4505 3.29205C15.1853 2.69458 14.9683 2.19692 14.9683 2.18614C14.9683 2.17536 15.1068 1.94698 15.2763 1.67867C15.6553 1.07829 15.6871 1.01686 15.6865 0.887669C15.6858 0.744544 15.5674 0.552231 15.4375 0.483106C15.3363 0.429263 15.2422 0.425513 14.1094 0.430169C13.4388 0.432919 12.8409 0.440544 12.7808 0.447075ZM14.3433 1.38101C14.3433 1.39111 14.2589 1.53395 14.1558 1.69839C14.0038 1.94073 13.9683 2.02229 13.9683 2.1287C13.9683 2.23098 14.0896 2.53336 14.5176 3.49776C14.884 4.32336 15.0605 4.75573 15.0476 4.7962C15.0273 4.86023 14.6006 5.19758 14.527 5.20783C14.5033 5.21114 14.4637 5.21217 14.4389 5.21011C14.4142 5.20808 14.14 4.95386 13.8295 4.64517L13.2651 4.08392L12.7964 3.89236C12.4113 3.73495 12.3044 3.70333 12.1977 3.71508C11.864 3.75173 11.6769 4.11386 11.8473 4.39336C11.9353 4.53776 11.9681 4.56008 12.2904 4.6952L12.5658 4.81064L12.5549 6.54758L12.544 8.28455L12.459 8.55945C12.2541 9.22158 11.9013 9.70736 11.3389 10.1018C11.1886 10.2073 11.083 10.3068 11.0537 10.3706C11.0247 10.4337 10.9449 11.037 10.8427 11.9652C10.6784 13.458 10.6783 13.4583 10.7365 13.5872C10.7771 13.6773 10.8434 13.7473 10.9569 13.8199C11.1131 13.9198 11.2495 14.0695 11.2495 14.1409C11.2495 14.1645 11.0788 14.1752 10.7048 14.1752C10.2514 14.1752 10.152 14.167 10.1111 14.1261C10.0673 14.0823 10.062 13.8152 10.062 11.6561C10.062 9.29145 10.0605 9.23233 9.9991 9.11186C9.92835 8.9732 9.74832 8.86267 9.59326 8.86267C9.43819 8.86267 9.25816 8.9732 9.18741 9.11186C9.1351 9.21442 9.1245 9.29605 9.1245 9.59658V9.95799L9.0391 9.99042C8.94379 10.0267 8.44575 10.1563 8.28857 10.1858L8.187 10.2049V9.22127V8.23767H8.782C9.31629 8.23767 9.38957 8.23127 9.5001 8.17486C9.7201 8.06264 9.73185 8.01277 9.74951 7.1173L9.76513 6.32505L9.90501 6.2778C10.3454 6.12905 10.7084 5.71352 10.8081 5.24395C10.8289 5.14598 10.8433 4.75298 10.8433 4.2817C10.8433 3.40583 10.8727 3.16904 11.0279 2.79795C11.2585 2.24639 11.7156 1.78854 12.272 1.55176C12.6346 1.39748 12.8493 1.36801 13.6323 1.36523C14.0233 1.36383 14.3433 1.37092 14.3433 1.38101ZM5.3745 7.11392C5.3745 7.80517 5.37953 7.87502 5.43741 7.98849C5.47791 8.06789 5.54428 8.13427 5.62369 8.17477C5.73716 8.23264 5.807 8.23767 6.49825 8.23767H7.2495V9.24074V10.2438L7.05419 10.2223C6.79957 10.1943 6.32779 10.0936 6.11832 10.0225L5.95263 9.96627L5.937 9.57855C5.91888 9.12861 5.8785 9.02286 5.6876 8.92549C5.53163 8.84589 5.40482 8.84592 5.24869 8.92558C5.03582 9.03417 4.9995 9.15058 4.9995 9.72411C4.9995 10.256 4.96203 10.4725 4.82216 10.7485C4.71288 10.9641 4.45825 11.2085 4.23388 11.3131C4.13075 11.3611 4.01357 11.4161 3.97344 11.4351C3.8215 11.5073 3.78378 11.6165 3.60797 12.4921C3.51394 12.9606 3.437 13.3768 3.437 13.417C3.437 13.5543 3.55403 13.7274 3.71303 13.8252C3.86025 13.9158 3.9995 14.0693 3.9995 14.1409C3.9995 14.1645 3.82881 14.1752 3.45485 14.1752C3.00141 14.1752 2.902 14.167 2.8611 14.1261C2.81841 14.0834 2.812 13.9389 2.812 13.0164V11.9558L3.11669 11.3545L3.42138 10.7533L3.43831 9.23767C3.45472 7.77189 3.45756 7.71595 3.52441 7.53705C3.66225 7.16817 3.84866 6.92067 4.16435 6.68742C4.45047 6.47602 4.77257 6.37245 5.16357 6.36611L5.3745 6.36267V7.11392ZM8.812 6.83142V7.30017H7.562H6.312V6.83142V6.36267H7.562H8.812V6.83142ZM3.07328 6.43298C3.06025 6.45448 3.00485 6.53533 2.9501 6.61267C2.70763 6.9553 2.55694 7.3988 2.50381 7.92608C2.45188 8.44161 2.30128 8.84286 1.99047 9.29392C1.82766 9.5302 1.3691 9.98705 1.35053 9.93142C1.34475 9.91405 1.36128 9.81764 1.38725 9.71717C1.47416 9.38133 1.53391 8.91927 1.56019 8.37995C1.58219 7.92883 1.59888 7.80898 1.66722 7.61252C1.85456 7.07386 2.2676 6.65911 2.80594 6.46908C3.0446 6.38483 3.1076 6.37633 3.07328 6.43298Z" fill="#1A1A1A"/>
</svg>
