<svg width="16" height="15" viewBox="0 0 16 15" fill="none" xmlns="http://www.w3.org/2000/svg">
<path d="M8.5 5.214C8.5 4.93786 8.27614 4.714 8 4.714C7.72386 4.714 7.5 4.93786 7.5 5.214V7.914C7.5 8.19014 7.72386 8.414 8 8.414C8.27614 8.414 8.5 8.19014 8.5 7.914V5.214Z" fill="#1A1A1A"/>
<path d="M8.5 9.714C8.5 9.43786 8.27614 9.214 8 9.214C7.72386 9.214 7.5 9.43786 7.5 9.714V12.7935C7.5 13.0696 7.72386 13.2935 8 13.2935C8.27614 13.2935 8.5 13.0696 8.5 12.7935V9.714Z" fill="#1A1A1A"/>
<path fill-rule="evenodd" clip-rule="evenodd" d="M15.0619 14.6757C15.7219 14.6757 16.1752 14.0207 15.9347 13.4145L10.245 1.39668C10.1044 1.04229 9.75804 0.809082 9.37223 0.809082H6.56056C6.17474 0.809082 5.82835 1.04229 5.68777 1.39668L0.0653302 13.4145C-0.175171 14.0207 0.278086 14.6757 0.938121 14.6757H15.0619ZM8.5 1.80908H9.33402L9.34119 1.82458L14.952 13.6757H1.04712L6.59354 1.82044L6.59877 1.80908H7.5V3.414C7.5 3.69014 7.72386 3.914 8 3.914C8.27614 3.914 8.5 3.69014 8.5 3.414V1.80908Z" fill="#1A1A1A"/>
</svg>
