<svg width="14" height="17" viewBox="0 0 14 17" fill="none" xmlns="http://www.w3.org/2000/svg">
<path fill-rule="evenodd" clip-rule="evenodd" d="M6.59737 0.47338C6.19225 0.549943 5.85556 0.69588 5.53487 0.933912C5.25446 1.14207 1.32524 4.96266 1.14443 5.20297C0.414333 6.17335 0.375021 7.53182 1.04749 8.55316L1.1988 8.78294L1.03796 8.84832C0.598958 9.02675 0.238302 9.41772 0.0754578 9.89175C-0.0254798 10.1856 -0.0251048 10.6683 0.0763016 10.9636C0.166583 11.2265 0.339489 11.4942 0.538177 11.6786C0.862084 11.9793 1.18968 12.111 1.6759 12.1363L2.00446 12.1533L2.06027 12.4959C2.33762 14.1985 3.58884 15.6499 5.24403 16.189C5.75831 16.3565 6.11615 16.4108 6.70675 16.4108C7.07812 16.4108 7.30978 16.3944 7.53487 16.3523C9.45834 15.9927 10.9424 14.5349 11.3299 12.6246C11.3653 12.4501 11.3943 12.2728 11.3943 12.2306C11.3943 12.1551 11.3992 12.1538 11.7302 12.1366C12.09 12.118 12.3247 12.0539 12.5788 11.905C12.9143 11.7084 13.2056 11.3468 13.3372 10.9636C13.439 10.6672 13.439 10.1857 13.3372 9.88922C13.1898 9.45988 12.8583 9.08094 12.4638 8.89069C12.3482 8.83497 12.248 8.78525 12.2411 8.78025C12.2342 8.77522 12.2786 8.69572 12.3398 8.6036C13.0397 7.54938 13.0114 6.18947 12.269 5.20288C12.183 5.08857 11.5568 4.45672 10.8776 3.79885C10.0616 3.00851 9.63672 2.57544 9.62519 2.52235C9.32078 1.12079 7.97844 0.212412 6.59737 0.47338ZM7.45384 1.41204C8.19756 1.58735 8.738 2.28385 8.738 3.06704C8.738 3.5075 8.57009 3.93244 8.27547 4.2376C8.16931 4.34754 6.9514 5.2695 5.26046 6.51994L2.42355 8.61782L2.31749 8.55225C2.17115 8.46182 1.88002 8.14116 1.76793 7.94697C1.3734 7.26347 1.42815 6.36835 1.90152 5.76272C2.12018 5.48297 5.94337 1.78726 6.16884 1.63769C6.53878 1.39229 7.01519 1.30863 7.45384 1.41204ZM10.4972 4.73435C10.9921 5.21247 11.4517 5.67641 11.5185 5.76535C11.7846 6.1195 11.9055 6.49925 11.9031 6.97329C11.9013 7.32482 11.8139 7.65535 11.6456 7.94697C11.5334 8.14122 11.2423 8.46185 11.0958 8.55235L10.9897 8.61797L9.25447 7.33104C8.30009 6.62322 7.51959 6.03519 7.52 6.02432C7.5204 6.01344 7.78834 5.80766 8.11541 5.56704C8.44247 5.32641 8.79556 5.04516 8.90003 4.94204C9.17584 4.66975 9.41494 4.2976 9.51741 3.9811C9.53828 3.91666 9.56481 3.86416 9.57638 3.86447C9.58791 3.86475 10.0023 4.25622 10.4972 4.73435ZM8.61147 8.02016L10.4908 9.41079L10.4787 10.8327C10.4675 12.1378 10.4612 12.2763 10.402 12.5202C10.04 14.0112 8.93541 15.0946 7.45037 15.4152C7.12537 15.4853 6.35509 15.4934 6.03487 15.4299C5.08812 15.2424 4.23846 14.7101 3.65999 13.942C3.47127 13.6915 3.23015 13.2185 3.11334 12.8699C2.94843 12.3778 2.92587 12.1156 2.92568 10.6895L2.92549 9.40575L3.07393 9.29988C3.15559 9.24166 3.48956 8.9961 3.81612 8.75419C4.14268 8.51232 4.84581 7.99179 5.37862 7.59747C5.91143 7.20316 6.42472 6.82116 6.51925 6.74857C6.61378 6.676 6.70034 6.6195 6.71162 6.62307C6.7229 6.62663 7.57784 7.25532 8.61147 8.02016ZM1.98799 10.4264V11.2077H1.79043C1.52149 11.2077 1.31693 11.132 1.15905 10.9741C0.853115 10.6682 0.853334 10.1844 1.15962 9.87816C1.31952 9.71825 1.49999 9.65088 1.77705 9.64763L1.98799 9.64516V10.4264ZM11.9725 9.69691C12.2608 9.79513 12.488 10.1167 12.488 10.4264C12.488 10.7361 12.2608 11.0577 11.9725 11.1559C11.889 11.1844 11.7317 11.2077 11.6231 11.2077H11.4255V10.4264V9.64516H11.6231C11.7317 9.64516 11.889 9.66844 11.9725 9.69691ZM4.60549 9.94175C4.12524 10.0638 3.73799 10.3917 3.73799 10.6764C3.73799 10.8315 3.84852 11.0115 3.98718 11.0823C4.19609 11.1888 4.34203 11.1573 4.63993 10.9415C4.76321 10.8522 4.91474 10.8178 5.06262 10.8456C5.12087 10.8565 5.21578 10.8997 5.27356 10.9415C5.57146 11.1573 5.7174 11.1888 5.92631 11.0823C6.06734 11.0103 6.17578 10.8304 6.175 10.6698C6.17378 10.4297 5.87512 10.1423 5.46875 9.99022C5.23375 9.90232 4.8464 9.88057 4.60549 9.94175ZM8.1055 9.94175C7.62525 10.0638 7.238 10.3917 7.238 10.6764C7.238 10.8315 7.34853 11.0115 7.48719 11.0823C7.69609 11.1888 7.84203 11.1573 8.13994 10.9415C8.26322 10.8522 8.41475 10.8178 8.56262 10.8456C8.62087 10.8565 8.71578 10.8997 8.77356 10.9415C9.07147 11.1573 9.21741 11.1888 9.42631 11.0823C9.56734 11.0103 9.67578 10.8304 9.675 10.6698C9.67378 10.4297 9.37513 10.1423 8.96875 9.99022C8.73375 9.90232 8.34641 9.88057 8.1055 9.94175ZM5.72562 13.0285C5.49718 13.1595 5.42662 13.426 5.55881 13.6586C5.64584 13.8117 5.97109 13.9967 6.2754 14.0661C6.71597 14.1667 7.18506 14.1063 7.56612 13.8999C7.90297 13.7174 8.00334 13.4828 7.86259 13.2068C7.79075 13.0661 7.61125 12.9576 7.45019 12.9577C7.39362 12.9578 7.263 13.0034 7.15987 13.0592C6.99031 13.1508 6.94697 13.1605 6.70675 13.1605C6.46653 13.1605 6.42318 13.1508 6.25362 13.0592C6.03181 12.9393 5.89515 12.9313 5.72562 13.0285Z" fill="#1A1A1A"/>
</svg>
