<svg width="14" height="14" viewBox="0 0 14 14" fill="none" xmlns="http://www.w3.org/2000/svg">
<path fill-rule="evenodd" clip-rule="evenodd" d="M13.2156 2.18373C13.2156 3.2515 12.35 4.11709 11.2823 4.11709C10.7685 4.11709 10.3016 3.91671 9.95532 3.58983L5.81699 6.53117C5.84251 6.67549 5.85582 6.82402 5.85582 6.97566C5.85582 7.12726 5.84251 7.27575 5.81701 7.42002L9.98527 10.3826C10.3283 10.0722 10.7832 9.88306 11.2823 9.88306C12.35 9.88306 13.2156 10.7487 13.2156 11.8164C13.2156 12.8842 12.35 13.7498 11.2823 13.7498C10.2145 13.7498 9.34891 12.8842 9.34891 11.8164C9.34891 11.6094 9.38143 11.4101 9.44165 11.2231L5.43489 8.37528C4.98084 9.05996 4.20319 9.51138 3.3201 9.51138C1.91966 9.51138 0.784378 8.3761 0.784378 6.97566C0.784378 5.57522 1.91966 4.43994 3.3201 4.43994C4.20314 4.43994 4.98077 4.89132 5.43482 5.57594L9.42921 2.73691C9.37696 2.56165 9.34891 2.37597 9.34891 2.18373C9.34891 1.11596 10.2145 0.250366 11.2823 0.250366C12.35 0.250366 13.2156 1.11596 13.2156 2.18373ZM12.2156 2.18373C12.2156 2.69921 11.7978 3.11709 11.2823 3.11709C10.7668 3.11709 10.3489 2.69921 10.3489 2.18373C10.3489 1.66825 10.7668 1.25037 11.2823 1.25037C11.7978 1.25037 12.2156 1.66825 12.2156 2.18373ZM3.3201 8.51138C4.16825 8.51138 4.85582 7.82382 4.85582 6.97566C4.85582 6.12751 4.16825 5.43994 3.3201 5.43994C2.47194 5.43994 1.78438 6.12751 1.78438 6.97566C1.78438 7.82382 2.47194 8.51138 3.3201 8.51138ZM11.2823 12.7498C11.7978 12.7498 12.2156 12.3319 12.2156 11.8164C12.2156 11.3009 11.7978 10.8831 11.2823 10.8831C10.7668 10.8831 10.3489 11.3009 10.3489 11.8164C10.3489 12.3319 10.7668 12.7498 11.2823 12.7498Z" fill="#808080"/>
</svg>
