<svg width="14" height="14" viewBox="0 0 14 14" fill="none" xmlns="http://www.w3.org/2000/svg">
<path fill-rule="evenodd" clip-rule="evenodd" d="M13.2154 2.18373C13.2154 3.2515 12.3498 4.11709 11.2821 4.11709C10.7683 4.11709 10.3014 3.91671 9.95512 3.58983L5.81679 6.53117C5.84231 6.67549 5.85562 6.82402 5.85562 6.97566C5.85562 7.12726 5.84232 7.27575 5.81681 7.42002L9.98508 10.3826C10.3281 10.0722 10.783 9.88306 11.2821 9.88306C12.3498 9.88306 13.2154 10.7487 13.2154 11.8164C13.2154 12.8842 12.3498 13.7498 11.2821 13.7498C10.2143 13.7498 9.34871 12.8842 9.34871 11.8164C9.34871 11.6094 9.38123 11.4101 9.44145 11.2231L5.43469 8.37528C4.98064 9.05996 4.20299 9.51138 3.3199 9.51138C1.91946 9.51138 0.78418 8.3761 0.78418 6.97566C0.78418 5.57522 1.91946 4.43994 3.3199 4.43994C4.20295 4.43994 4.98057 4.89132 5.43462 5.57594L9.42901 2.73691C9.37677 2.56165 9.34871 2.37597 9.34871 2.18373C9.34871 1.11596 10.2143 0.250366 11.2821 0.250366C12.3498 0.250366 13.2154 1.11596 13.2154 2.18373ZM12.2154 2.18373C12.2154 2.69921 11.7976 3.11709 11.2821 3.11709C10.7666 3.11709 10.3487 2.69921 10.3487 2.18373C10.3487 1.66825 10.7666 1.25037 11.2821 1.25037C11.7976 1.25037 12.2154 1.66825 12.2154 2.18373ZM3.3199 8.51138C4.16805 8.51138 4.85562 7.82382 4.85562 6.97566C4.85562 6.12751 4.16805 5.43994 3.3199 5.43994C2.47174 5.43994 1.78418 6.12751 1.78418 6.97566C1.78418 7.82382 2.47174 8.51138 3.3199 8.51138ZM11.2821 12.7498C11.7976 12.7498 12.2154 12.3319 12.2154 11.8164C12.2154 11.3009 11.7976 10.8831 11.2821 10.8831C10.7666 10.8831 10.3487 11.3009 10.3487 11.8164C10.3487 12.3319 10.7666 12.7498 11.2821 12.7498Z" fill="black"/>
</svg>
