<svg width="14" height="16" viewBox="0 0 14 16" fill="none" xmlns="http://www.w3.org/2000/svg">
<path fill-rule="evenodd" clip-rule="evenodd" d="M7.00013 0.833374C7.27627 0.833374 7.50013 1.05723 7.50013 1.33337V2.59486L8.4811 2.20247C8.73749 2.09991 9.02848 2.22462 9.13103 2.48101C9.23359 2.7374 9.10888 3.02839 8.85249 3.13095L7.50013 3.67189V7.15777L10.2073 5.68114L10.5052 3.596C10.5442 3.32263 10.7975 3.13268 11.0708 3.17173C11.3442 3.21079 11.5342 3.46405 11.4951 3.73742L11.3063 5.05871L12.7521 4.23259C12.9918 4.09558 13.2972 4.17888 13.4343 4.41864C13.5713 4.6584 13.488 4.96382 13.2482 5.10083L11.9453 5.84533L13.1375 6.18595C13.403 6.26181 13.5568 6.53855 13.4809 6.80407C13.405 7.06959 13.1283 7.22333 12.8628 7.14747L10.7264 6.53708L8.04429 8.00004L10.7264 9.46301L12.8628 8.85261C13.1283 8.77675 13.405 8.9305 13.4809 9.19601C13.5568 9.46153 13.403 9.73827 13.1375 9.81414L11.9453 10.1548L13.2482 10.8993C13.488 11.0363 13.5713 11.3417 13.4343 11.5814C13.2972 11.8212 12.9918 11.9045 12.7521 11.7675L11.3063 10.9414L11.4951 12.2627C11.5342 12.536 11.3442 12.7893 11.0708 12.8283C10.7975 12.8674 10.5442 12.6775 10.5052 12.4041L10.2073 10.3189L7.50013 8.84231V12.0503L8.92404 12.9046C9.16083 13.0467 9.23762 13.3538 9.09554 13.5906C8.95347 13.8274 8.64634 13.9042 8.40955 13.7621L7.50013 13.2165V14.6667C7.50013 14.9429 7.27627 15.1667 7.00013 15.1667C6.72399 15.1667 6.50013 14.9429 6.50013 14.6667V13.2165L5.59071 13.7621C5.35392 13.9042 5.04679 13.8274 4.90472 13.5906C4.76264 13.3538 4.83942 13.0467 5.07621 12.9046L6.50013 12.0503V8.84231L3.79298 10.3189L3.4951 12.4041C3.45605 12.6775 3.20279 12.8674 2.92942 12.8283C2.65605 12.7893 2.4661 12.536 2.50515 12.2627L2.69391 10.9414L1.2482 11.7675C1.00844 11.9045 0.703012 11.8212 0.566007 11.5814C0.429002 11.3417 0.512301 11.0363 0.752059 10.8993L2.05493 10.1548L0.862768 9.81414C0.597251 9.73827 0.443505 9.46153 0.519367 9.19601C0.595229 8.9305 0.871972 8.77675 1.13749 8.85261L3.27386 9.46301L5.95597 8.00004L3.27386 6.53708L1.13749 7.14747C0.871972 7.22333 0.595229 7.06959 0.519367 6.80407C0.443505 6.53855 0.597251 6.26181 0.862768 6.18595L2.05493 5.84533L0.752059 5.10083C0.512301 4.96382 0.429002 4.6584 0.566007 4.41864C0.703012 4.17888 1.00844 4.09558 1.2482 4.23259L2.69391 5.05871L2.50515 3.73742C2.4661 3.46405 2.65605 3.21079 2.92942 3.17173C3.20279 3.13268 3.45605 3.32263 3.4951 3.596L3.79298 5.68114L6.50013 7.15777V3.67189L5.14777 3.13095C4.89138 3.02839 4.76667 2.7374 4.86922 2.48101C4.97178 2.22462 5.26277 2.09991 5.51916 2.20247L6.50013 2.59486V1.33337C6.50013 1.05723 6.72399 0.833374 7.00013 0.833374Z" fill="#1A1A1A"/>
</svg>
