<svg width="14" height="16" viewBox="0 0 14 16" fill="none" xmlns="http://www.w3.org/2000/svg">
<path fill-rule="evenodd" clip-rule="evenodd" d="M7.00001 0.833374C7.27615 0.833374 7.50001 1.05723 7.50001 1.33337V2.59486L8.48098 2.20247C8.73737 2.09991 9.02836 2.22462 9.13091 2.48101C9.23347 2.7374 9.10876 3.02839 8.85237 3.13095L7.50001 3.67189V7.15777L10.2072 5.68114L10.505 3.596C10.5441 3.32263 10.7974 3.13268 11.0707 3.17173C11.3441 3.21079 11.534 3.46405 11.495 3.73742L11.3062 5.05871L12.7519 4.23259C12.9917 4.09558 13.2971 4.17888 13.4341 4.41864C13.5711 4.6584 13.4878 4.96382 13.2481 5.10083L11.9452 5.84533L13.1374 6.18595C13.4029 6.26181 13.5566 6.53855 13.4808 6.80407C13.4049 7.06959 13.1282 7.22333 12.8626 7.14747L10.7263 6.53708L8.04417 8.00004L10.7263 9.46301L12.8626 8.85261C13.1282 8.77675 13.4049 8.9305 13.4808 9.19601C13.5566 9.46153 13.4029 9.73827 13.1374 9.81414L11.9452 10.1548L13.2481 10.8993C13.4878 11.0363 13.5711 11.3417 13.4341 11.5814C13.2971 11.8212 12.9917 11.9045 12.7519 11.7675L11.3062 10.9414L11.495 12.2627C11.534 12.536 11.3441 12.7893 11.0707 12.8283C10.7974 12.8674 10.5441 12.6775 10.505 12.4041L10.2072 10.3189L7.50001 8.84231V12.0503L8.92392 12.9046C9.16071 13.0467 9.23749 13.3538 9.09542 13.5906C8.95335 13.8274 8.64622 13.9042 8.40943 13.7621L7.50001 13.2165V14.6667C7.50001 14.9429 7.27615 15.1667 7.00001 15.1667C6.72386 15.1667 6.50001 14.9429 6.50001 14.6667V13.2165L5.59059 13.7621C5.3538 13.9042 5.04667 13.8274 4.90459 13.5906C4.76252 13.3538 4.8393 13.0467 5.07609 12.9046L6.50001 12.0503V8.84231L3.79286 10.3189L3.49498 12.4041C3.45593 12.6775 3.20266 12.8674 2.9293 12.8283C2.65593 12.7893 2.46598 12.536 2.50503 12.2627L2.69379 10.9414L1.24808 11.7675C1.00832 11.9045 0.70289 11.8212 0.565885 11.5814C0.42888 11.3417 0.512178 11.0363 0.751937 10.8993L2.05481 10.1548L0.862646 9.81414C0.597129 9.73827 0.443383 9.46153 0.519245 9.19601C0.595107 8.9305 0.87185 8.77675 1.13737 8.85261L3.27374 9.46301L5.95584 8.00004L3.27374 6.53708L1.13737 7.14747C0.87185 7.22333 0.595107 7.06959 0.519245 6.80407C0.443383 6.53855 0.597129 6.26181 0.862646 6.18595L2.05481 5.84533L0.751937 5.10083C0.512178 4.96382 0.42888 4.6584 0.565885 4.41864C0.70289 4.17888 1.00832 4.09558 1.24808 4.23259L2.69379 5.05871L2.50503 3.73742C2.46598 3.46405 2.65593 3.21079 2.9293 3.17173C3.20266 3.13268 3.45593 3.32263 3.49498 3.596L3.79286 5.68114L6.50001 7.15777V3.67189L5.14764 3.13095C4.89125 3.02839 4.76654 2.7374 4.8691 2.48101C4.97166 2.22462 5.26264 2.09991 5.51904 2.20247L6.50001 2.59486V1.33337C6.50001 1.05723 6.72386 0.833374 7.00001 0.833374Z" fill="#808080"/>
</svg>
