<svg width="16" height="17" viewBox="0 0 16 17" fill="none" xmlns="http://www.w3.org/2000/svg">
<path fill-rule="evenodd" clip-rule="evenodd" d="M9.68664 0.459817C9.64367 0.476598 8.92971 1.16829 8.10008 1.99691C6.47036 3.6246 6.48973 3.60122 6.55973 3.85476C6.58527 3.94726 6.78292 4.16194 7.53752 4.91685L8.4833 5.86301L6.96005 7.38626L5.4368 8.90951L4.49064 7.96373C3.73573 7.20913 3.52104 7.01148 3.42854 6.98594C3.17458 6.91582 3.19976 6.89491 1.55598 8.54179C0.233292 9.86701 0.0319794 10.0809 0.0138856 10.1807C-0.0315832 10.4317 -0.0234894 10.4424 0.986605 11.4573L1.93586 12.4112L1.37164 12.9729C1.06132 13.2819 0.787261 13.5727 0.762667 13.6191C0.709886 13.7186 0.70473 13.8859 0.750605 14.0093C0.794136 14.1263 2.26801 15.607 2.39657 15.6629C2.52589 15.7191 2.69823 15.7187 2.80539 15.6618C2.85179 15.6372 3.14258 15.3632 3.45154 15.0529L4.01333 14.4886L4.96717 15.4388C5.78214 16.2505 5.93773 16.3919 6.03576 16.4101C6.29455 16.4581 6.25636 16.49 7.8827 14.8677C9.52967 13.2247 9.50867 13.25 9.43855 12.9959C9.41302 12.9034 9.21536 12.6888 8.46077 11.9339L7.51498 10.9877L9.03824 9.46445L10.5615 7.9412L11.5076 8.88698C12.2626 9.64157 12.4772 9.83923 12.5697 9.86476C12.8237 9.93488 12.7985 9.95579 14.4423 8.30891C15.765 6.98369 15.9663 6.76976 15.9844 6.66998C16.0299 6.41901 16.0218 6.40835 15.0117 5.39338L14.0624 4.43954L14.6266 3.87776C14.937 3.56879 15.211 3.27801 15.2356 3.2316C15.2925 3.12444 15.2929 2.9521 15.2367 2.82279C15.1808 2.69422 13.7001 1.22035 13.5831 1.17682C13.4597 1.13094 13.2924 1.1361 13.1929 1.18888C13.1465 1.21347 12.8556 1.48763 12.5465 1.79807L11.9845 2.3625L11.0465 1.427C10.5306 0.912473 10.0689 0.476629 10.0205 0.458411C9.91389 0.418317 9.79158 0.418848 9.68664 0.459817ZM12.3663 4.0581C13.7284 5.42016 14.8429 6.54848 14.8429 6.56544C14.8429 6.58241 14.6778 6.76182 14.476 6.96416L14.1091 7.33201L11.6012 4.82426L9.0933 2.3165L9.4598 1.94907C9.66136 1.74694 9.84055 1.5816 9.85795 1.5816C9.87536 1.5816 11.0041 2.69601 12.3663 4.0581ZM13.7806 3.40926L13.4054 3.78441L13.0229 3.40191L12.6404 3.01944L13.0146 2.64425L13.3888 2.26907L13.7723 2.65157L14.1557 3.0341L13.7806 3.40926ZM10.9522 5.48782L13.4521 7.98776L13.0693 8.37054L12.6865 8.75329L10.179 6.24579L7.67152 3.73832L8.0458 3.36307C8.25161 3.15669 8.42733 2.98785 8.43624 2.98785C8.44514 2.98785 9.57733 4.11282 10.9522 5.48782ZM9.52208 6.90141C9.71571 7.09448 9.87414 7.26679 9.87414 7.28435C9.87414 7.32519 6.89973 10.3004 6.85889 10.3004C6.8182 10.3004 6.12414 9.60723 6.12414 9.5666C6.12414 9.52573 9.0983 6.55035 9.13914 6.55035C9.15614 6.55035 9.32845 6.70832 9.52208 6.90141ZM5.82723 10.6128L8.32705 13.1128L7.94427 13.4955L7.56152 13.8783L5.05401 11.3708L2.54651 8.86332L2.92079 8.48807C3.12661 8.28169 3.30233 8.11285 3.31123 8.11285C3.32014 8.11285 4.45233 9.23782 5.82723 10.6128ZM6.53848 14.9016C6.33692 15.1038 6.15773 15.2691 6.14033 15.2691C6.09945 15.2691 1.15539 10.3261 1.15539 10.2853C1.15539 10.2683 1.32048 10.0889 1.52229 9.88654L1.8892 9.51869L4.39711 12.0264L6.90498 14.5342L6.53848 14.9016ZM2.98351 13.4566L3.35754 13.8316L2.98348 14.2066L2.60945 14.5816L2.22617 14.1993L1.84289 13.8169L2.20957 13.4493C2.41126 13.247 2.58376 13.0816 2.59289 13.0816C2.60201 13.0816 2.77779 13.2504 2.98351 13.4566Z" fill="#1A1A1A"/>
</svg>
