<svg width="17" height="12" viewBox="0 0 17 12" fill="none" xmlns="http://www.w3.org/2000/svg">
<path d="M4.96094 10.0859L7.83594 3.54688H9.64062V12H8.19531V5.85156L5.46094 12H4.46094L1.67188 5.71875V12H0.226562V3.54688H2.10156L4.96094 10.0859ZM16.2109 6.78906H11.5312V5.94531L13.875 3.74219C14.4427 3.21094 14.7266 2.76562 14.7266 2.40625C14.7266 2.15104 14.6432 1.94531 14.4766 1.78906C14.3099 1.6276 14.0703 1.54688 13.7578 1.54688C13.3672 1.54688 13.0781 1.64583 12.8906 1.84375C12.7083 2.04167 12.6172 2.28906 12.6172 2.58594H11.3906C11.3906 1.99219 11.6068 1.5026 12.0391 1.11719C12.4766 0.731771 13.0391 0.539062 13.7266 0.539062C14.4141 0.539062 14.9583 0.705729 15.3594 1.03906C15.7604 1.36719 15.9609 1.81771 15.9609 2.39062C15.9609 2.93229 15.6823 3.48177 15.125 4.03906L14.4688 4.65625L13.0938 5.78906H16.2109V6.78906Z" fill="#1A1A1A"/>
</svg>
