<svg width="16" height="17" viewBox="0 0 16 17" fill="none" xmlns="http://www.w3.org/2000/svg">
<path fill-rule="evenodd" clip-rule="evenodd" d="M9.75 0.477038C8.69141 0.709195 7.87028 1.48879 7.58975 2.52807C7.53284 2.73894 7.52003 2.88935 7.50781 3.48901L7.49331 4.19994H6.27666C5.11897 4.19994 5.05403 4.20301 4.93669 4.26285C4.85728 4.30335 4.79091 4.36972 4.75041 4.44913C4.68966 4.56822 4.6875 4.63035 4.6875 6.26119V7.94994H2.53C0.429375 7.94994 0.36925 7.9516 0.249187 8.01285C0.169781 8.05335 0.103406 8.11972 0.0629063 8.19913C0.000875 8.32075 0 8.3755 0 12.1843C0 15.9931 0.000875 16.0479 0.0629063 16.1695C0.103406 16.2489 0.169781 16.3153 0.249187 16.3558C0.371781 16.4183 0.41725 16.4187 7.96875 16.4187C15.5203 16.4187 15.5657 16.4183 15.6883 16.3558C15.7677 16.3153 15.8341 16.2489 15.8746 16.1695C15.937 16.0472 15.9375 15.9973 15.9375 10.3093C15.9375 4.62135 15.937 4.57141 15.8746 4.44913C15.8341 4.36972 15.7677 4.30335 15.6883 4.26285C15.571 4.20301 15.506 4.19994 14.3483 4.19994H13.1317L13.1172 3.48901C13.105 2.88935 13.0922 2.73894 13.0352 2.52807C12.7677 1.53698 11.9965 0.766601 11.0156 0.510726C10.6531 0.416132 10.0955 0.401288 9.75 0.477038ZM10.7626 1.41791C11.1156 1.50823 11.3554 1.64694 11.6261 1.91763C11.8967 2.18832 12.0355 2.42807 12.1258 2.78107C12.1765 2.97951 12.1875 3.12716 12.1875 3.61119V4.19994H10.3125H8.4375V3.61119C8.4375 2.94401 8.48263 2.68966 8.66194 2.34638C8.79294 2.09563 9.172 1.71732 9.42819 1.58173C9.83988 1.36382 10.3204 1.30482 10.7626 1.41791ZM7.5 5.88869C7.5 6.57994 7.50503 6.64979 7.56291 6.76325C7.63366 6.90191 7.81369 7.01244 7.96875 7.01244C8.12381 7.01244 8.30384 6.90191 8.37459 6.76325C8.43247 6.64979 8.4375 6.57994 8.4375 5.88869V5.13744H10.3125H12.1875V5.88869C12.1875 6.57994 12.1925 6.64979 12.2504 6.76325C12.3212 6.90191 12.5012 7.01244 12.6562 7.01244C12.8113 7.01244 12.9913 6.90191 13.0621 6.76325C13.12 6.64979 13.125 6.57994 13.125 5.88869V5.13744H14.0625H15V10.3093V15.4812H12.1875H9.375V11.9018C9.375 8.37616 9.37406 8.3206 9.31209 8.19913C9.27159 8.11972 9.20522 8.05335 9.12581 8.01285C9.00672 7.9521 8.94459 7.94994 7.31375 7.94994H5.625V6.54369V5.13744H6.5625H7.5V5.88869ZM8.4375 12.1843V15.4812H4.6875H0.9375V12.1843V8.88744H4.6875H8.4375V12.1843ZM2.58628 9.88938C2.35363 10.0122 2.29466 10.2773 2.3935 10.7559C2.58297 11.6733 3.30791 12.3982 4.22531 12.5877C4.99428 12.7465 5.78334 12.5047 6.34128 11.9393C6.75791 11.5171 6.97559 11.0419 7.02075 10.4561C7.03691 10.2467 7.03031 10.1956 6.97244 10.0822C6.8975 9.93532 6.72162 9.82494 6.5625 9.82494C6.31894 9.82494 6.09375 10.0563 6.09375 10.3065C6.09375 10.6383 5.90238 11.0761 5.657 11.3056C5.09469 11.8316 4.24247 11.8202 3.70175 11.2794C3.43978 11.0175 3.28125 10.6507 3.28125 10.3065C3.28125 10.1396 3.17475 9.96066 3.03206 9.88785C2.87809 9.80932 2.73706 9.80978 2.58628 9.88938Z" fill="#1A1A1A"/>
</svg>
