<svg width="16" height="13" viewBox="0 0 16 13" fill="none" xmlns="http://www.w3.org/2000/svg">
<path fill-rule="evenodd" clip-rule="evenodd" d="M0.773781 0.492088C0.702375 0.529807 0.6325 0.601682 0.594094 0.676963C0.532969 0.796775 0.53125 0.857994 0.53125 2.8964C0.53125 4.93565 0.532969 4.996 0.594156 5.11596C0.705938 5.33509 0.811344 5.36515 1.4675 5.36515H2.03125V6.0214V6.67765L1.66406 6.67947C1.227 6.68159 0.964406 6.74122 0.704969 6.89722C0.370844 7.09809 0.102094 7.4829 0.0314062 7.86159C0.014125 7.95418 0 8.35903 0 8.76128C0 9.43259 0.00515625 9.50278 0.0629063 9.61597C0.169813 9.8255 0.291375 9.86515 0.826875 9.86515H1.28125V11.1789C1.28125 12.4339 1.28406 12.4982 1.34416 12.616C1.38466 12.6954 1.45103 12.7617 1.53044 12.8022C1.64622 12.8613 1.71328 12.8652 2.625 12.8652C3.53672 12.8652 3.60378 12.8613 3.71956 12.8022C3.79897 12.7617 3.86534 12.6954 3.90584 12.616C3.96594 12.4982 3.96875 12.4339 3.96875 11.1789V9.86515H8H12.0312V11.1789C12.0312 12.4339 12.0341 12.4982 12.0942 12.616C12.1347 12.6954 12.201 12.7617 12.2804 12.8022C12.3962 12.8613 12.4633 12.8652 13.375 12.8652C14.2867 12.8652 14.3538 12.8613 14.4696 12.8022C14.549 12.7617 14.6153 12.6954 14.6558 12.616C14.7159 12.4982 14.7188 12.4339 14.7188 11.1789V9.86515H15.1731C15.7086 9.86515 15.8302 9.8255 15.9371 9.61597C15.9948 9.50278 16 9.43259 16 8.76128C16 8.35903 15.9859 7.95418 15.9686 7.86159C15.8907 7.44447 15.572 7.02747 15.1875 6.83968C14.9299 6.7139 14.7333 6.67765 14.3083 6.67765H13.9688V6.0214V5.36515H14.5325C15.1887 5.36515 15.2941 5.33509 15.4058 5.11596C15.467 4.996 15.4688 4.93565 15.4688 2.8964C15.4688 0.857151 15.467 0.796807 15.4058 0.676838C15.3653 0.597432 15.299 0.531057 15.2196 0.490557C15.097 0.428057 15.0518 0.42765 7.99344 0.429025C0.983437 0.4304 0.889094 0.431213 0.773781 0.492088ZM14.5312 2.8964V4.42765H8H1.46875V2.8964V1.36515H8H14.5312V2.8964ZM3.78125 6.0214V6.67765H3.375H2.96875V6.0214V5.36515H3.375H3.78125V6.0214ZM11.2812 6.0214V6.67765H8H4.71875V6.0214V5.36515H8H11.2812V6.0214ZM13.0312 6.0214V6.67765H12.625H12.2188V6.0214V5.36515H12.625H13.0312V6.0214ZM14.7636 7.67718C14.8334 7.71131 14.9258 7.79109 14.9688 7.85443C15.0423 7.9629 15.0475 7.99775 15.0569 8.44865L15.0669 8.92765H8.00219H0.9375V8.49218C0.9375 8.02428 0.957656 7.93028 1.08794 7.79103C1.26122 7.60578 0.789625 7.61772 7.99794 7.61637C14.5578 7.61515 14.638 7.6159 14.7636 7.67718ZM3.03125 10.8964V11.9277H2.625H2.21875V10.8964V9.86515H2.625H3.03125V10.8964ZM13.7812 10.8964V11.9277H13.375H12.9688V10.8964V9.86515H13.375H13.7812V10.8964Z" fill="#1A1A1A"/>
</svg>
