<svg width="16" height="16" viewBox="0 0 16 16" fill="none" xmlns="http://www.w3.org/2000/svg">
<path fill-rule="evenodd" clip-rule="evenodd" d="M8.54926 1.51997C8.54926 1.21621 8.30302 0.969971 7.99926 0.969971C7.69551 0.969971 7.44926 1.21621 7.44926 1.51997V3.31179C7.44926 3.61555 7.69551 3.86179 7.99926 3.86179C8.30302 3.86179 8.54926 3.61555 8.54926 3.31179V1.51997ZM3.80639 3.02891C3.5916 2.81412 3.24336 2.81412 3.02857 3.02891C2.81378 3.24369 2.81378 3.59193 3.02857 3.80672L4.29558 5.07373C4.51037 5.28852 4.85861 5.28852 5.0734 5.07373C5.28819 4.85894 5.28819 4.5107 5.0734 4.29591L3.80639 3.02891ZM12.9701 3.80707C13.1849 3.59228 13.1849 3.24404 12.9701 3.02925C12.7553 2.81447 12.4071 2.81447 12.1923 3.02925L10.9253 4.29626C10.7105 4.51105 10.7105 4.85929 10.9253 5.07408C11.1401 5.28887 11.4883 5.28887 11.7031 5.07408L12.9701 3.80707ZM1.51973 7.45011C1.21597 7.45011 0.969727 7.69635 0.969727 8.00011C0.969727 8.30387 1.21597 8.55011 1.51973 8.55011H3.31155C3.6153 8.55011 3.86155 8.30387 3.86155 8.00011C3.86155 7.69635 3.6153 7.45011 3.31155 7.45011H1.51973ZM12.6881 7.45011C12.3843 7.45011 12.1381 7.69635 12.1381 8.00011C12.1381 8.30387 12.3843 8.55011 12.6881 8.55011H14.4799C14.7837 8.55011 15.0299 8.30387 15.0299 8.00011C15.0299 7.69635 14.7837 7.45011 14.4799 7.45011H12.6881ZM11.7041 10.9267C11.4894 10.7119 11.1411 10.7119 10.9263 10.9267C10.7115 11.1414 10.7115 11.4897 10.9263 11.7045L12.1933 12.9715C12.4081 13.1863 12.7564 13.1863 12.9711 12.9715C13.1859 12.7567 13.1859 12.4085 12.9711 12.1937L11.7041 10.9267ZM5.07237 11.7048C5.28716 11.49 5.28716 11.1418 5.07237 10.927C4.85758 10.7122 4.50934 10.7122 4.29455 10.927L3.02754 12.194C2.81276 12.4088 2.81276 12.757 3.02754 12.9718C3.24233 13.1866 3.59057 13.1866 3.80536 12.9718L5.07237 11.7048ZM8.54926 12.6889C8.54926 12.3851 8.30302 12.1389 7.99926 12.1389C7.69551 12.1389 7.44926 12.3851 7.44926 12.6889V14.4807C7.44926 14.7844 7.69551 15.0307 7.99926 15.0307C8.30302 15.0307 8.54926 14.7844 8.54926 14.4807V12.6889ZM5.84316 8.00019C5.84316 6.80876 6.80901 5.84292 8.00044 5.84292C9.19186 5.84292 10.1577 6.80876 10.1577 8.00019C10.1577 9.19162 9.19186 10.1575 8.00044 10.1575C6.80901 10.1575 5.84316 9.19162 5.84316 8.00019ZM8.00044 4.74292C6.20149 4.74292 4.74316 6.20125 4.74316 8.00019C4.74316 9.79913 6.20149 11.2575 8.00044 11.2575C9.79938 11.2575 11.2577 9.79913 11.2577 8.00019C11.2577 6.20125 9.79938 4.74292 8.00044 4.74292Z" fill="#1A1A1A"/>
</svg>
