<svg width="15" height="17" viewBox="0 0 15 17" fill="none" xmlns="http://www.w3.org/2000/svg">
<path fill-rule="evenodd" clip-rule="evenodd" d="M5.36788 0.448987C3.29607 0.6883 1.50013 1.95452 0.602789 3.80852C0.0116951 5.02977 -0.144524 6.3078 0.133445 7.64815C0.454945 9.19855 1.38045 10.5662 2.6931 11.4306C3.02641 11.6501 3.6722 11.968 4.00038 12.0741C4.17638 12.1311 4.24213 12.1668 4.24251 12.2057C4.24279 12.2351 4.18548 12.7273 4.11516 13.2995C3.97288 14.4574 3.97157 14.6229 4.10132 15.0336C4.28788 15.6242 4.75679 16.0971 5.37316 16.3163C5.57285 16.3873 5.65273 16.398 5.99301 16.3987C6.33829 16.3994 6.41185 16.3897 6.6267 16.3149C7.27438 16.0894 7.78241 15.5457 7.94566 14.9035C8.01738 14.6214 8.0032 14.2421 7.88338 13.2352C7.82338 12.7308 7.77448 12.2808 7.77476 12.2352C7.7752 12.1591 7.7991 12.1436 8.06382 12.0473C9.72632 11.4428 11.086 10.0633 11.6602 8.39861C11.7704 8.0793 11.9084 7.50571 11.9461 7.21068L11.9666 7.0503L12.1237 7.02946C12.21 7.01802 12.3919 6.96805 12.5278 6.91846C13.2833 6.64271 13.8792 5.99018 14.0936 5.20364C14.1948 4.83277 14.1859 4.24571 14.0735 3.87186C13.8664 3.1828 13.4084 2.64099 12.7665 2.32552C12.0994 1.99767 11.2842 1.98355 10.6344 2.28855L10.4461 2.37689L10.1478 2.09174C9.27198 1.25467 8.21251 0.717393 7.02426 0.507737C6.61741 0.435956 5.74779 0.405112 5.36788 0.448987ZM6.8762 1.43311C7.85229 1.60967 8.72951 2.05099 9.47738 2.74174L9.72738 2.97264L9.62985 3.10933C9.47563 3.32546 9.3067 3.68539 9.23763 3.94489C9.14882 4.27871 9.14835 4.84249 9.23663 5.1708C9.45492 5.98258 9.99063 6.59386 10.7499 6.89761C10.8637 6.94314 10.9736 6.98039 10.9941 6.98039C11.0207 6.98039 11.0253 7.02274 11.0099 7.12883C10.9372 7.6334 10.792 8.12505 10.5826 8.57574L10.4527 8.8554H6.00898H1.56529L1.4076 8.51946C0.867726 7.36918 0.789039 6.09711 1.18229 4.8773C1.3091 4.48399 1.63679 3.83839 1.89132 3.48039C2.16163 3.10021 2.70679 2.55508 3.08676 2.28505C3.4381 2.03533 4.0191 1.74124 4.42326 1.60846C4.69451 1.51936 5.22507 1.40517 5.50863 1.37486C5.75654 1.34836 6.60826 1.38464 6.8762 1.43311ZM12.0889 3.06202C12.3711 3.14571 12.5603 3.25996 12.7764 3.47696C13.0119 3.71343 13.1283 3.93255 13.2042 4.28199C13.2473 4.4808 13.2494 4.55524 13.2182 4.77183C13.0996 5.5943 12.3869 6.18111 11.5711 6.12814C10.661 6.06905 9.98082 5.23658 10.1165 4.34771C10.2063 3.75955 10.6126 3.27614 11.1798 3.08277C11.432 2.99677 11.8378 2.98749 12.0889 3.06202ZM9.61695 9.96733C9.10113 10.4941 8.38607 10.9459 7.67426 11.1949C7.3076 11.3232 7.17701 11.3936 7.06095 11.5259C6.79163 11.8326 6.78551 11.9111 6.93282 13.1659C7.07451 14.3725 7.08138 14.5651 6.99148 14.8054C6.9111 15.0202 6.69063 15.2568 6.46176 15.3739C6.31429 15.4493 6.25213 15.462 6.02426 15.4633C5.79563 15.4646 5.73148 15.4522 5.56382 15.3748C5.21991 15.216 4.97479 14.8843 4.94141 14.5327C4.93235 14.4376 4.97838 13.9497 5.05329 13.347C5.19882 12.1757 5.20616 11.9931 5.11576 11.7938C4.97482 11.4831 4.82751 11.3664 4.38363 11.2135C3.70157 10.9785 3.0421 10.5783 2.53654 10.0926L2.22738 9.79558L6.00757 9.79424L9.78776 9.7929L9.61695 9.96733Z" fill="#1A1A1A"/>
</svg>
