<svg width="14" height="12" viewBox="0 0 14 12" fill="none" xmlns="http://www.w3.org/2000/svg">
<path fill-rule="evenodd" clip-rule="evenodd" d="M13.9324 11.2653L7.43279 0.244898C7.33592 0.0811225 7.16874 0 7 0C6.83126 0 6.66252 0.0811225 6.56721 0.244898L0.0675796 11.2653C-0.124597 11.5929 0.116014 12 0.500368 12L13.4996 12C13.884 12 14.1246 11.5929 13.9324 11.2653ZM1.57559 10.9051L6.9996 1.69754L12.4304 10.9051H8.56207V7.67417C8.56207 7.60682 8.50583 7.55172 8.43708 7.55172L5.56224 7.55172C5.4935 7.55172 5.43725 7.60682 5.43725 7.67417L5.43725 10.9051H1.57559ZM6.30921 10.9051H7.69341V8.4062H6.30921V10.9051Z" fill="#1A1A1A"/>
</svg>
