<svg width="16" height="17" viewBox="0 0 16 17" fill="none" xmlns="http://www.w3.org/2000/svg">
<path fill-rule="evenodd" clip-rule="evenodd" d="M2.4224 0.465778C2.29393 0.526466 0.0739683 2.76022 0.0332496 2.86981C-0.0165629 3.00372 -0.00546914 3.11331 0.0713433 3.24734C0.205156 3.48072 0.511593 3.55637 0.728061 3.40947C0.833436 3.33797 0.841936 3.33684 0.888686 3.3885C0.915811 3.41847 0.93803 3.46625 0.93803 3.49466C0.93803 3.52306 0.727093 4.39103 0.46928 5.4235C0.211468 6.45597 0.000530856 7.364 0.000530856 7.44135C0.000530856 7.96056 0.313405 8.49947 0.749936 8.73213C1.75781 9.26931 2.93803 8.58606 2.93803 7.46541C2.93803 7.27784 2.88418 7.01788 2.65553 6.1015C2.50012 5.47881 2.36515 4.94122 2.35559 4.90684C2.346 4.87247 2.64731 5.15197 3.02512 5.52797L3.71206 6.21159L3.63753 6.32141C3.41806 6.64481 3.71237 7.09534 4.10121 7.03122C4.21984 7.01166 4.28253 6.96209 4.65756 6.59144L5.08018 6.17369L6.20434 7.29816L7.32846 8.42263L4.43087 11.3202L1.53325 14.2178L1.11847 13.8073C0.777186 13.4695 0.682686 13.3928 0.585374 13.3747C0.345655 13.3299 0.164343 13.4114 0.063437 13.6092C-0.0719066 13.8745 -0.0160316 13.9915 0.481187 14.484L0.874561 14.8737L0.47203 15.2809C0.155437 15.6011 0.061062 15.7165 0.0300621 15.8209C-0.0742191 16.1722 0.250781 16.4972 0.602093 16.3929C0.70653 16.3619 0.821874 16.2676 1.14209 15.951L1.54931 15.5484L1.93897 15.9418C2.43537 16.4429 2.56312 16.502 2.8254 16.3517C3.02781 16.2356 3.11265 15.9971 3.03021 15.7761C3.01218 15.7277 2.81893 15.5087 2.60078 15.2894L2.20412 14.8908L5.10234 11.9926L8.00052 9.09438L10.8987 11.9926L13.7969 14.8908L13.4003 15.2894C13.1821 15.5087 12.9889 15.7277 12.9708 15.7761C12.8884 15.9971 12.9732 16.2356 13.1756 16.3517C13.4379 16.502 13.5657 16.4429 14.0621 15.9418L14.4517 15.5484L14.859 15.951C15.1792 16.2676 15.2945 16.3619 15.399 16.3929C15.7503 16.4972 16.0753 16.1722 15.971 15.8209C15.94 15.7165 15.8456 15.6011 15.529 15.2809L15.1265 14.8737L15.5199 14.484C16.0171 13.9915 16.073 13.8745 15.9376 13.6092C15.8367 13.4114 15.6554 13.3299 15.4157 13.3747C15.3184 13.3928 15.2239 13.4695 14.8826 13.8073L14.4678 14.2178L11.5702 11.3202L8.67258 8.42263L9.79671 7.29816L10.9209 6.17369L11.3435 6.59144C11.7185 6.96209 11.7812 7.01166 11.8998 7.03122C12.2887 7.09534 12.583 6.64481 12.3635 6.32141L12.289 6.21159L12.9759 5.52797C13.3537 5.15197 13.655 4.87247 13.6455 4.90684C13.6359 4.94122 13.5009 5.47881 13.3455 6.1015C13.0311 7.36144 13.0106 7.52769 13.1244 7.89575C13.3536 8.63741 14.1357 9.07106 14.8898 8.87463C15.545 8.70397 16.0005 8.11372 16.0005 7.43544C16.0005 7.36134 15.7896 6.45597 15.5318 5.4235C15.274 4.39103 15.063 3.52306 15.063 3.49466C15.063 3.46625 15.0852 3.41847 15.1124 3.3885C15.1591 3.33684 15.1676 3.33797 15.273 3.40947C15.4895 3.55637 15.7959 3.48072 15.9297 3.24734C16.0105 3.10641 16.0183 2.99272 15.9569 2.85116C15.9325 2.79478 15.4072 2.2469 14.7616 1.60437C13.7595 0.607091 13.5947 0.455403 13.4929 0.436872C13.0851 0.362653 12.7829 0.810185 13.0125 1.14847L13.0869 1.25819L11.6453 2.69584L10.2036 4.1335L10.0975 4.05925C9.86171 3.89434 9.54086 3.99559 9.42674 4.27094C9.3194 4.53 9.35274 4.59675 9.83077 5.0795L10.2493 5.50212L9.12493 6.62619L8.00052 7.75028L6.87612 6.62619L5.75174 5.50212L6.17027 5.0795C6.6483 4.59675 6.68165 4.53 6.5743 4.27094C6.45993 3.995 6.14155 3.89519 5.89952 4.05944L5.78981 4.13387L4.35215 2.69225L2.9145 1.25059L2.98875 1.1444C3.12231 0.953466 3.06856 0.653654 2.87622 0.516716C2.7534 0.429278 2.54843 0.406278 2.4224 0.465778ZM3.70362 3.35994L5.14087 4.79744L4.75815 5.18016L4.3754 5.56291L2.93043 4.11791L1.48544 2.6729L1.85968 2.29769C2.06553 2.09131 2.24125 1.92247 2.25015 1.92247C2.25909 1.92247 2.91315 2.56934 3.70362 3.35994ZM14.1414 2.29769L14.5156 2.6729L13.0706 4.11791L11.6256 5.56291L11.2429 5.18016L10.8602 4.79744L12.2974 3.35994C13.0879 2.56934 13.742 1.92247 13.7509 1.92247C13.7598 1.92247 13.9355 2.09131 14.1414 2.29769ZM1.99968 7.44691C2.00084 7.63088 1.93443 7.77319 1.7994 7.87619C1.48 8.11981 0.999717 7.92069 0.947936 7.52316C0.937405 7.44206 1.00959 7.09925 1.18637 6.39122C1.32581 5.83263 1.44803 5.3545 1.45794 5.32872C1.48281 5.26406 1.99868 7.281 1.99968 7.44691ZM14.8127 6.38409C14.9978 7.12913 15.0659 7.45503 15.0531 7.53381C15.0076 7.81413 14.7557 8.00544 14.4685 7.97785C14.1949 7.95156 14.0018 7.73928 13.9996 7.46253C13.9985 7.32319 14.5073 5.29087 14.5353 5.32266C14.5458 5.33459 14.6706 5.81222 14.8127 6.38409Z" fill="#1A1A1A"/>
</svg>
