<svg width="16" height="17" viewBox="0 0 16 17" fill="none" xmlns="http://www.w3.org/2000/svg">
<path fill-rule="evenodd" clip-rule="evenodd" d="M7.39034 0.43801C7.33018 0.44501 7.14737 0.465978 6.98409 0.484635C4.51134 0.76701 2.22668 2.31695 0.972932 4.56273C0.515213 5.3826 0.183901 6.39939 0.0419943 7.41976C-0.0202869 7.86754 -0.0116619 9.06545 0.0570568 9.51351C0.335025 11.3259 1.08121 12.8212 2.33196 14.0719C4.38731 16.1273 7.35262 16.9026 10.156 16.1177C13.059 15.3049 15.2995 12.8583 15.8417 9.90879C16.3273 7.2672 15.5192 4.65064 13.6362 2.76764C12.3918 1.52323 10.8892 0.769885 9.10909 0.49801C8.79755 0.450416 7.63343 0.409791 7.39034 0.43801ZM8.64034 1.39029C10.0509 1.51907 11.428 2.09364 12.5153 3.00704C12.8298 3.27123 13.3153 3.75523 13.2906 3.77995C13.2825 3.78804 13.0703 3.75982 12.819 3.71726C11.926 3.56598 11.4774 3.53154 10.406 3.53201C9.3128 3.53251 8.87802 3.56717 7.91105 3.73098C7.31162 3.83251 6.74127 3.96507 6.20715 4.12698C6.01052 4.18657 5.83874 4.2241 5.8254 4.21035C5.78552 4.16935 5.67868 3.55701 5.63834 3.13851C5.59962 2.7366 5.61587 1.80673 5.66246 1.76013C5.67612 1.74648 5.85602 1.68685 6.06224 1.62767C6.88409 1.39182 7.76684 1.31054 8.64034 1.39029ZM4.67162 2.53695C4.67168 3.41789 4.8564 4.46404 5.15581 5.27914C5.33109 5.75632 5.70127 6.4871 5.97899 6.90414C6.33452 7.43804 6.59365 7.75164 7.07002 8.22448L7.48718 8.63857L7.4064 8.97448C7.18737 9.88523 6.76759 10.7808 6.16509 11.6227C6.13802 11.6605 5.99131 11.5219 5.55318 11.0448C4.02102 9.37639 2.88146 7.28654 2.37509 5.21664C2.31624 4.97601 2.25121 4.68551 2.23059 4.5711L2.19312 4.36307L2.40652 4.08673C2.70409 3.70142 3.37731 3.04267 3.75887 2.76351C4.07927 2.52907 4.5964 2.20101 4.64552 2.20101C4.65987 2.20101 4.67159 2.35217 4.67162 2.53695ZM11.3435 4.48295C12.1802 4.54354 13.006 4.68039 13.7854 4.8876L14.1649 4.98851L14.3069 5.27651C14.6904 6.05417 14.9304 6.89311 15.0134 7.74551C15.0444 8.06448 15.0597 8.73226 15.036 8.73226C15.0301 8.73226 14.9071 8.66073 14.7625 8.57332C13.8366 8.01339 12.787 7.64948 11.656 7.49629C11.157 7.42873 10.1888 7.42898 9.68721 7.49686C9.18177 7.56523 8.91743 7.61982 8.44265 7.75386L8.0418 7.86701L7.71359 7.54182C7.32096 7.15282 7.05468 6.83051 6.76068 6.38851C6.55437 6.07832 6.15559 5.31526 6.13446 5.19023C6.12671 5.14445 6.16343 5.12017 6.31221 5.07267C7.27359 4.7656 8.5158 4.54032 9.62471 4.47192C10.011 4.44807 10.9448 4.45407 11.3435 4.48295ZM1.62515 6.03026C2.11509 7.65492 2.87996 9.15732 3.93146 10.5604C4.33424 11.0978 4.62662 11.4382 5.10768 11.9296L5.53031 12.3614L5.3744 12.5006C5.10827 12.7381 4.78974 12.9957 4.57784 13.1446C4.33321 13.3165 3.76412 13.6457 3.56168 13.7325L3.41546 13.7952L3.2984 13.7024C3.23402 13.6515 3.05274 13.4752 2.89559 13.3108C0.991431 11.319 0.412369 8.44773 1.39665 5.87857C1.44815 5.7442 1.49524 5.63926 1.50134 5.64532C1.5074 5.65142 1.56312 5.82464 1.62515 6.03026ZM11.4673 8.42317C11.6214 8.44007 11.7532 8.4597 11.7603 8.46679C11.7844 8.49092 11.6005 9.18436 11.437 9.68539C11.2096 10.3821 10.9961 10.905 10.6715 11.5604C10.0138 12.8878 9.27659 13.9304 8.26615 14.9618L7.7504 15.4882L7.51568 15.4683C6.41774 15.3749 5.48071 15.0994 4.58256 14.6057C4.43902 14.5268 4.32109 14.4493 4.32043 14.4335C4.31977 14.4178 4.43018 14.341 4.56574 14.2629C6.44559 13.1801 7.8744 11.2241 8.3433 9.09164C8.36977 8.97132 8.39834 8.84179 8.40677 8.80382C8.42462 8.72373 8.64843 8.64757 9.2183 8.52773C9.96002 8.37173 10.6897 8.33779 11.4673 8.42317ZM13.4879 8.96804C13.8433 9.11992 14.2106 9.32289 14.5949 9.57989L14.9161 9.79464L14.8716 9.99001C14.323 12.3966 12.5162 14.3731 10.1716 15.1316C9.74974 15.2681 9.20284 15.3964 9.20284 15.3589C9.20284 15.3461 9.23255 15.3089 9.26887 15.2762C9.37571 15.1799 9.8933 14.5547 10.1461 14.2166C11.2357 12.7594 12.1072 10.9443 12.562 9.18539C12.6242 8.94476 12.6808 8.73051 12.6878 8.70929C12.702 8.66629 13.0294 8.7722 13.4879 8.96804Z" fill="#1A1A1A"/>
</svg>
