<svg width="16" height="17" viewBox="0 0 16 17" fill="none" xmlns="http://www.w3.org/2000/svg">
<path fill-rule="evenodd" clip-rule="evenodd" d="M4.10916 0.45365C3.71463 0.539712 3.36226 0.7649 3.11682 1.08777C2.57066 1.80624 2.71573 2.81506 3.44491 3.36937C3.67641 3.54534 3.90126 3.63774 4.20979 3.68371C4.57845 3.73865 5.60463 3.59943 6.5877 3.36112L6.97248 3.26787L7.0877 3.35902C7.20545 3.45221 7.38482 3.55156 7.53967 3.60934L7.62642 3.64171L7.61779 4.1149L7.60917 4.58806L7.3796 4.64765C6.96345 4.75568 6.54116 4.98252 6.2511 5.25384L6.10201 5.3933L4.68726 5.38515L3.27254 5.37702L3.22929 5.20515C3.17229 4.97846 2.98863 4.71387 2.80104 4.58824C2.54138 4.41434 2.41213 4.39265 1.63473 4.39265H0.937288L0.937225 4.24421C0.937069 3.72199 0.297725 3.53465 0.0573184 3.9864C0.00141214 4.0914 -0.000587856 4.22899 0.0072559 7.42943L0.0154121 10.7631L0.0811934 10.8513C0.231787 11.0533 0.539412 11.1248 0.709975 10.9975C0.886819 10.8655 0.920881 10.7845 0.932506 10.4686L0.943319 10.1739H1.67351C2.33116 10.1739 2.42057 10.1676 2.57354 10.1104C2.89201 9.99121 3.15882 9.68387 3.23413 9.3494L3.27013 9.18952L4.63976 9.18137L6.00941 9.17324L6.20163 9.3578C6.54163 9.6843 6.97992 9.92159 7.45826 10.0381C7.76451 10.1128 8.38023 10.1126 8.70292 10.0378C9.18429 9.92621 9.71967 9.63534 10.0297 9.31696L10.169 9.1739H11.2407H12.3123V9.80721C12.3123 10.5153 12.3304 10.5916 12.531 10.7286L12.634 10.7989H14.156H15.678L15.7842 10.728C15.8426 10.689 15.9162 10.6081 15.9477 10.5483C16.0013 10.4466 16.004 10.3618 15.9885 9.25202C15.9716 8.03855 15.9553 7.85762 15.8273 7.46915C15.543 6.60605 14.7986 5.85809 13.9286 5.56137C13.4712 5.40537 13.2982 5.39265 11.6339 5.39265H10.0886L9.91138 5.2399C9.56826 4.94415 9.12485 4.71649 8.73098 4.63387L8.56229 4.59849V4.12018V3.64187L8.73738 3.56443C8.8337 3.52184 8.97898 3.43818 9.06023 3.37852L9.20798 3.27009L9.58045 3.36146C10.2982 3.53752 11.3607 3.70571 11.7489 3.70468C12.1786 3.70352 12.5871 3.52677 12.9106 3.20202C13.2369 2.87427 13.3733 2.53918 13.3733 2.06452C13.3733 1.58724 13.2342 1.24681 12.9042 0.916087C12.5057 0.516618 12.0725 0.382368 11.3984 0.449275C10.9196 0.496775 10.2247 0.616431 9.64913 0.750431L9.20738 0.853275L9.06451 0.751712C8.4496 0.314493 7.65029 0.321775 7.08741 0.769712L6.97191 0.861618L6.66554 0.784868C5.64523 0.529306 4.46398 0.376243 4.10916 0.45365ZM5.42166 1.48656C5.73104 1.53946 6.08963 1.60727 6.21854 1.63727L6.45291 1.69181V2.06452V2.43724L6.21854 2.49177C5.85429 2.57656 4.91929 2.73012 4.62479 2.75352C4.2657 2.78206 4.11904 2.73965 3.93307 2.55343C3.73269 2.35281 3.67519 2.12815 3.75276 1.84881C3.7961 1.69271 4.01063 1.46602 4.17166 1.40618C4.34348 1.34234 4.71938 1.36649 5.42166 1.48656ZM8.45691 1.47309C8.65232 1.59387 8.78104 1.82774 8.78104 2.06196C8.78104 2.43834 8.4646 2.76765 8.10295 2.76765C7.70026 2.76765 7.39323 2.46346 7.39323 2.06452C7.39323 1.51087 7.98545 1.18159 8.45691 1.47309ZM12.0643 1.44734C12.3505 1.59246 12.4892 1.87924 12.4309 2.20515C12.376 2.51243 12.0652 2.76765 11.746 2.76765C11.4511 2.76765 10.2567 2.57481 9.81507 2.4559L9.70292 2.42571V2.06474V1.70377L9.81229 1.67312C10.0024 1.61981 10.8778 1.45434 11.2029 1.41024C11.7111 1.34127 11.8685 1.34806 12.0643 1.44734ZM2.28638 5.38187C2.34054 5.43087 2.34354 5.53099 2.34354 7.28215C2.34354 8.82827 2.33629 9.14062 2.29923 9.19137C2.25823 9.24752 2.2061 9.25274 1.5961 9.26159L0.937288 9.27115V7.30065V5.33015H1.58326C2.14051 5.33015 2.2371 5.33724 2.28638 5.38187ZM8.68498 5.59077C8.9642 5.68787 9.21267 5.84865 9.42529 6.06981C9.68835 6.3434 9.58292 6.33009 11.491 6.33068C13.3801 6.33131 13.4342 6.33624 13.8592 6.5464C14.2731 6.75109 14.6039 7.07602 14.817 7.4874C15.0151 7.86959 15.0404 8.04027 15.0437 9.01605L15.0467 9.87702H14.156H13.2654L13.2492 9.40827C13.2315 8.89893 13.2054 8.8003 13.0297 8.57849C12.9704 8.50349 12.8543 8.41821 12.7254 8.35468L12.5169 8.25202L11.2662 8.24202C10.5783 8.23652 9.95214 8.2414 9.87479 8.2528C9.75148 8.27102 9.70498 8.30352 9.49695 8.51699C9.36648 8.65087 9.18198 8.81202 9.08698 8.87512C8.70645 9.12777 8.17492 9.22699 7.71854 9.13055C7.33301 9.04909 7.05732 8.8923 6.74491 8.5769C6.54926 8.3794 6.44057 8.29405 6.35404 8.27002C6.27707 8.24865 5.70576 8.23668 4.7576 8.23659L3.28104 8.2364V7.28327V6.33015H4.82588C5.8091 6.33015 6.40148 6.31846 6.45529 6.29799C6.50182 6.2803 6.64826 6.16387 6.78076 6.03921C7.20479 5.64034 7.6241 5.47559 8.15748 5.49834C8.37054 5.5074 8.52126 5.53384 8.68498 5.59077ZM13.9812 11.767C13.8339 11.8417 13.4764 12.3102 13.0585 12.976C12.3465 14.1107 12.227 14.7021 12.5665 15.4112C12.7098 15.7107 13.0916 16.0952 13.3827 16.2333C14.3971 16.7146 15.5615 16.2127 15.8949 15.1506C15.9654 14.926 15.974 14.8538 15.9613 14.5881C15.9446 14.2359 15.9036 14.1005 15.6693 13.6229C15.4048 13.084 14.606 11.9011 14.4278 11.7845C14.3028 11.7027 14.1221 11.6956 13.9812 11.767ZM14.4646 13.4005C14.8585 14.0302 15.0113 14.3619 15.026 14.6195C15.0364 14.7997 15.0259 14.8556 14.9549 15.0008C14.766 15.3868 14.314 15.575 13.9035 15.4387C13.5817 15.3318 13.3123 14.9668 13.3123 14.6377C13.3123 14.5191 13.4416 14.1841 13.5987 13.896C13.7591 13.6018 14.1552 12.9864 14.1842 12.9864C14.196 12.9864 14.3222 13.1727 14.4646 13.4005Z" fill="#1A1A1A"/>
</svg>
