<svg width="16" height="17" viewBox="0 0 16 17" fill="none" xmlns="http://www.w3.org/2000/svg">
<path fill-rule="evenodd" clip-rule="evenodd" d="M2 1.42871H14C14.5523 1.42871 15 1.87643 15 2.42871V14.4287C15 14.981 14.5523 15.4287 14 15.4287H2C1.44772 15.4287 1 14.981 1 14.4287V2.42871C1 1.87643 1.44772 1.42871 2 1.42871ZM0 2.42871C0 1.32414 0.895431 0.428711 2 0.428711H14C15.1046 0.428711 16 1.32414 16 2.42871V14.4287C16 15.5333 15.1046 16.4287 14 16.4287H2C0.895431 16.4287 0 15.5333 0 14.4287V2.42871ZM3.45173 5.74567C4.37461 4.97433 5.52345 4.45855 6.73299 4.27252C7.27255 4.18952 8.18783 4.18924 8.75071 4.27189C9.92124 4.44374 11.0191 4.92392 11.9674 5.67883C12.3324 5.96942 12.6103 6.26499 12.6383 6.39239C12.7054 6.6982 12.4941 6.95952 12.1799 6.95914C12.0184 6.95892 11.9664 6.92649 11.588 6.58942C10.8322 5.91627 9.89102 5.45249 8.84237 5.23645C8.52311 5.1707 8.40099 5.16252 7.74861 5.16317C7.10842 5.1638 6.96833 5.17314 6.65633 5.23586C5.57545 5.45317 4.58805 5.95339 3.79536 6.68521C3.53158 6.92871 3.47761 6.9593 3.31161 6.9593C3.00645 6.9593 2.80036 6.70861 2.85704 6.40642C2.88233 6.27167 3.06433 6.06946 3.45173 5.74567ZM5.88799 7.14499C6.28571 6.95089 6.66449 6.82755 7.07674 6.75789C7.63568 6.66346 8.3568 6.71086 8.95268 6.88124C9.72658 7.10249 10.7955 7.81842 10.8592 8.15817C10.9043 8.39808 10.8016 8.6148 10.6037 8.69746C10.3819 8.79017 10.2133 8.73721 9.95174 8.49261C9.50593 8.07574 8.85599 7.76955 8.21943 7.67646C7.73171 7.60514 7.08443 7.67246 6.60633 7.84417C6.26214 7.96783 5.81336 8.24214 5.54549 8.49261C5.28389 8.73721 5.11536 8.79017 4.89348 8.69746C4.69564 8.6148 4.59295 8.39808 4.63798 8.15817C4.68164 7.92533 5.27586 7.44371 5.88799 7.14499ZM7.74903 11.5425C8.0804 11.5425 8.34903 11.2739 8.34903 10.9425C8.34903 10.6111 8.0804 10.3425 7.74903 10.3425C7.41766 10.3425 7.14903 10.6111 7.14903 10.9425C7.14903 11.2739 7.41766 11.5425 7.74903 11.5425ZM7.74903 12.4425C8.57746 12.4425 9.24903 11.7709 9.24903 10.9425C9.24903 10.1141 8.57746 9.4425 7.74903 9.4425C6.9206 9.4425 6.24903 10.1141 6.24903 10.9425C6.24903 11.7709 6.9206 12.4425 7.74903 12.4425Z" fill="#1A1A1A"/>
</svg>
