<svg width="16" height="17" viewBox="0 0 16 17" fill="none" xmlns="http://www.w3.org/2000/svg">
<path fill-rule="evenodd" clip-rule="evenodd" d="M7.50732 0.459995C6.95313 0.56862 6.50054 0.812245 6.13054 1.20118C5.89476 1.449 5.76501 1.63778 5.63088 1.92803C5.45226 2.31465 5.38557 2.62615 5.38597 3.07203C5.38638 3.55518 5.4396 3.78322 5.65576 4.22828C5.80079 4.52684 5.8456 4.58678 6.15341 4.89375C6.46972 5.20919 6.49169 5.23912 6.49169 5.35469V5.47828L6.14013 5.47881C5.51082 5.47978 5.10504 5.62519 4.76632 5.97106C4.66985 6.06956 3.96282 6.97281 3.19513 7.97828L1.79935 9.80641L1.47395 9.82719C0.797791 9.87041 0.37601 10.1217 0.142635 10.6204C-0.190771 11.3329 0.0796351 12.1638 0.752385 12.4937C0.875416 12.554 1.05235 12.6175 1.14557 12.6348C1.23879 12.6521 1.32029 12.6715 1.32673 12.6779C1.33313 12.6843 1.2952 12.7536 1.24238 12.8318C1.00676 13.1809 0.895197 13.5732 0.895634 14.0513C0.896572 15.1206 1.5982 16.0535 2.61941 16.3433C2.80948 16.3972 3.08176 16.4002 7.89794 16.4002C13.5709 16.4002 13.1069 16.4179 13.6011 16.1816C14.3903 15.8042 14.8794 15.0623 14.9196 14.1814C14.9424 13.6814 14.8432 13.2731 14.601 12.8711C14.5409 12.7712 14.4917 12.6862 14.4917 12.6821C14.4917 12.6781 14.5805 12.6665 14.6891 12.6564C15.1092 12.6172 15.5083 12.3828 15.7362 12.0415C16.1185 11.4691 16.0561 10.7702 15.5783 10.2708C15.2647 9.94316 14.9288 9.82203 14.3335 9.82203H14.0306L12.5883 7.9345C11.7951 6.89637 11.0858 5.99147 11.0122 5.92362C10.6972 5.63328 10.3726 5.51028 9.85888 5.48662L9.49169 5.46969V5.34469C9.49169 5.22806 9.50966 5.20287 9.75938 4.96925C10.163 4.59156 10.4118 4.1815 10.5407 3.6814C10.6254 3.35272 10.6192 2.76165 10.5274 2.41787C10.3188 1.6364 9.83731 1.02743 9.17072 0.701839C8.99491 0.615964 8.75966 0.522745 8.64794 0.494713C8.36688 0.424151 7.78116 0.406338 7.50732 0.459995ZM8.53607 1.44512C9.10638 1.64456 9.50553 2.11031 9.63566 2.72828C9.72422 3.14878 9.63738 3.60631 9.40025 3.96859C9.25713 4.18728 9.15135 4.28947 8.87403 4.47687C8.56297 4.68706 8.55429 4.71331 8.55425 5.44231C8.55419 6.11472 8.57385 6.2024 8.75335 6.33047C8.8445 6.39547 8.89303 6.40122 9.47606 6.41578C10.0856 6.43103 10.1046 6.4335 10.2448 6.51587C10.3653 6.58675 10.6382 6.92716 11.9423 8.63341C12.9246 9.91866 13.5292 10.6836 13.5861 10.713C13.654 10.7481 13.7905 10.7595 14.1417 10.7595C14.4062 10.7595 14.6532 10.7749 14.7136 10.795C15.0344 10.9023 15.149 11.2924 14.9346 11.5473C14.7887 11.7207 14.7372 11.7284 13.7349 11.7273L12.8198 11.7263L11.8091 10.3516C11.1238 9.41956 10.768 8.96119 10.7041 8.92809C10.5713 8.85944 10.3569 8.86606 10.234 8.94266C10.031 9.06913 10.0401 8.98853 10.0229 10.8044L10.0073 12.4586L9.01063 12.9997C8.46244 13.2973 7.99838 13.5403 7.97938 13.5397C7.96038 13.5391 7.46669 13.281 6.88232 12.9661L5.81982 12.3936L5.80419 10.7875C5.79316 9.65325 5.77794 9.16303 5.75238 9.11891C5.60254 8.86016 5.25644 8.7965 5.0381 8.98756C4.99482 9.02541 4.51963 9.65406 3.98216 10.3845L3.00495 11.7127L2.16807 11.721C1.39823 11.7287 1.32023 11.7245 1.19467 11.6689C0.861916 11.5218 0.842947 11.0763 1.15935 10.8401C1.2341 10.7843 1.30532 10.7741 1.71992 10.76C2.09366 10.7473 2.21045 10.7328 2.26823 10.6919C2.3086 10.6633 3.03291 9.73575 3.87779 8.63063C5.17901 6.92869 5.43744 6.60681 5.56747 6.52637L5.72094 6.43141L6.42663 6.41578C7.09338 6.40103 7.13769 6.39631 7.23004 6.33047C7.40954 6.2024 7.42919 6.11472 7.42913 5.44231C7.4291 4.71331 7.42041 4.68706 7.10935 4.47687C6.83204 4.28947 6.72625 4.18728 6.58313 3.96859C6.34701 3.60784 6.25904 3.14784 6.34697 2.73365C6.49722 2.02603 6.97885 1.53196 7.66357 1.38312C7.86413 1.33953 8.32841 1.37253 8.53607 1.44512ZM4.8551 11.9378C4.84794 11.945 4.68044 11.9112 4.48288 11.8627L4.12366 11.7747L4.48738 11.2805L4.85107 10.7863L4.8596 11.3556C4.86429 11.6686 4.86229 11.9306 4.8551 11.9378ZM11.7104 11.8033C11.7104 11.8092 11.6565 11.8227 11.5905 11.8332C11.5245 11.8438 11.3558 11.8857 11.2155 11.9263L10.9604 12.0002V11.3895V10.7788L11.3354 11.2856C11.5417 11.5644 11.7104 11.7973 11.7104 11.8033ZM4.11669 12.7416C4.68463 12.8638 4.82779 12.9269 6.16357 13.6429C9.009 15.1681 9.53991 15.4537 9.55228 15.466C9.55981 15.4735 8.06216 15.4758 6.22416 15.4712L2.88232 15.4627L2.66535 15.3599C2.38604 15.2277 2.21538 15.0862 2.06876 14.8652C1.8886 14.5938 1.82826 14.3655 1.8417 14.006C1.85182 13.7352 1.86417 13.683 1.96707 13.4748C2.15307 13.0986 2.47966 12.8229 2.86929 12.7133C3.08401 12.6529 3.77751 12.6687 4.11669 12.7416ZM12.9461 12.7143C13.1753 12.774 13.3658 12.8833 13.5642 13.0688C14.0117 13.4874 14.1196 14.1702 13.8285 14.7416C13.7453 14.905 13.4781 15.184 13.3113 15.2818C13.0288 15.4473 12.8516 15.4783 12.1862 15.4783H11.5738L10.2812 14.7861C9.57025 14.4054 8.99982 14.0842 9.01357 14.0722C9.05522 14.0361 10.2702 13.37 10.55 13.2299C11.473 12.7677 12.3918 12.5699 12.9461 12.7143Z" fill="#1A1A1A"/>
</svg>
