<svg width="28" height="34" viewBox="0 0 28 34" fill="none" xmlns="http://www.w3.org/2000/svg">
<path d="M0.5 13.641C0.5 6.3956 6.53183 0.5 14 0.5C21.4682 0.5 27.5 6.3956 27.5 13.641C27.5 17.6037 25.4404 21.0289 22.6419 24.181C21.2453 25.7541 19.6787 27.2439 18.1159 28.6881C17.794 28.9856 17.4719 29.2815 17.1514 29.5759C16.0566 30.5816 14.9813 31.5693 14 32.5423C13.0187 31.5693 11.9434 30.5816 10.8486 29.5759C10.5282 29.2815 10.206 28.9856 9.88406 28.6881C8.32131 27.2439 6.75469 25.7541 5.35809 24.181C2.55958 21.0289 0.5 17.6037 0.5 13.641Z" fill="#368400" stroke="white"/>
<path d="M21.2519 10.3556L20.389 8L19.526 10.3556L16.999 11.16L19.526 11.9645L20.389 14.3201L21.2519 11.9645L23.7789 11.16L21.2519 10.3556Z" fill="white"/>
<path d="M13.9986 8.45728L7.26953 20.4201H12.8636V16.6759H15.171V20.4201H20.7277L13.9986 8.45728Z" fill="white"/>
</svg>
