<svg width="16" height="14" viewBox="0 0 16 14" fill="none" xmlns="http://www.w3.org/2000/svg">
<path d="M15.1434 1.28677H4.71484C4.63627 1.28677 4.57199 1.35106 4.57199 1.42963V2.42963C4.57199 2.5082 4.63627 2.57248 4.71484 2.57248H15.1434C15.222 2.57248 15.2863 2.5082 15.2863 2.42963V1.42963C15.2863 1.35106 15.222 1.28677 15.1434 1.28677ZM15.1434 6.3582H4.71484C4.63627 6.3582 4.57199 6.42248 4.57199 6.50106V7.50106C4.57199 7.57963 4.63627 7.64391 4.71484 7.64391H15.1434C15.222 7.64391 15.2863 7.57963 15.2863 7.50106V6.50106C15.2863 6.42248 15.222 6.3582 15.1434 6.3582ZM15.1434 11.4296H4.71484C4.63627 11.4296 4.57199 11.4939 4.57199 11.5725V12.5725C4.57199 12.6511 4.63627 12.7153 4.71484 12.7153H15.1434C15.222 12.7153 15.2863 12.6511 15.2863 12.5725V11.5725C15.2863 11.4939 15.222 11.4296 15.1434 11.4296ZM0.714844 1.92963C0.714844 2.06095 0.74071 2.19098 0.790964 2.31231C0.841219 2.43364 0.914878 2.54387 1.00774 2.63673C1.1006 2.72959 1.21083 2.80325 1.33216 2.85351C1.45349 2.90376 1.58352 2.92963 1.71484 2.92963C1.84617 2.92963 1.9762 2.90376 2.09753 2.85351C2.21885 2.80325 2.32909 2.72959 2.42195 2.63673C2.51481 2.54387 2.58847 2.43364 2.63872 2.31231C2.68898 2.19098 2.71484 2.06095 2.71484 1.92963C2.71484 1.7983 2.68898 1.66827 2.63872 1.54694C2.58847 1.42562 2.51481 1.31538 2.42195 1.22252C2.32909 1.12966 2.21885 1.056 2.09753 1.00575C1.9762 0.955492 1.84617 0.929626 1.71484 0.929626C1.58352 0.929626 1.45349 0.955492 1.33216 1.00575C1.21083 1.056 1.1006 1.12966 1.00774 1.22252C0.914878 1.31538 0.841219 1.42562 0.790964 1.54694C0.74071 1.66827 0.714844 1.7983 0.714844 1.92963ZM0.714844 7.00106C0.714844 7.13238 0.74071 7.26241 0.790964 7.38374C0.841219 7.50506 0.914878 7.6153 1.00774 7.70816C1.1006 7.80102 1.21083 7.87468 1.33216 7.92493C1.45349 7.97519 1.58352 8.00106 1.71484 8.00106C1.84617 8.00106 1.9762 7.97519 2.09753 7.92493C2.21885 7.87468 2.32909 7.80102 2.42195 7.70816C2.51481 7.6153 2.58847 7.50506 2.63872 7.38374C2.68898 7.26241 2.71484 7.13238 2.71484 7.00106C2.71484 6.86973 2.68898 6.7397 2.63872 6.61837C2.58847 6.49705 2.51481 6.38681 2.42195 6.29395C2.32909 6.20109 2.21885 6.12743 2.09753 6.07718C1.9762 6.02692 1.84617 6.00106 1.71484 6.00106C1.58352 6.00106 1.45349 6.02692 1.33216 6.07718C1.21083 6.12743 1.1006 6.20109 1.00774 6.29395C0.914878 6.38681 0.841219 6.49705 0.790964 6.61837C0.74071 6.7397 0.714844 6.86973 0.714844 7.00106ZM0.714844 12.0725C0.714844 12.2038 0.74071 12.3338 0.790964 12.4552C0.841219 12.5765 0.914878 12.6867 1.00774 12.7796C1.1006 12.8724 1.21083 12.9461 1.33216 12.9964C1.45349 13.0466 1.58352 13.0725 1.71484 13.0725C1.84617 13.0725 1.9762 13.0466 2.09753 12.9964C2.21885 12.9461 2.32909 12.8724 2.42195 12.7796C2.51481 12.6867 2.58847 12.5765 2.63872 12.4552C2.68898 12.3338 2.71484 12.2038 2.71484 12.0725C2.71484 11.9412 2.68898 11.8111 2.63872 11.6898C2.58847 11.5685 2.51481 11.4582 2.42195 11.3654C2.32909 11.2725 2.21885 11.1989 2.09753 11.1486C1.9762 11.0983 1.84617 11.0725 1.71484 11.0725C1.58352 11.0725 1.45349 11.0983 1.33216 11.1486C1.21083 11.1989 1.1006 11.2725 1.00774 11.3654C0.914878 11.4582 0.841219 11.5685 0.790964 11.6898C0.74071 11.8111 0.714844 11.9412 0.714844 12.0725Z" fill="#1A1A1A"/>
</svg>
