<svg width="45" height="41" viewBox="0 0 45 41" fill="none" xmlns="http://www.w3.org/2000/svg">
<path fill-rule="evenodd" clip-rule="evenodd" d="M22.1984 0L44.1944 40.326H0.202393L22.1984 0ZM17.1195 10.4359L22.1984 19.7472L27.2772 10.4359L22.1984 1.12469L17.1195 10.4359ZM27.584 10.9983L22.5051 20.3095L27.584 29.6208L32.6628 20.3095L27.584 10.9983ZM32.9696 20.8719L27.8907 30.1831L32.9696 39.4943L38.0484 30.1831L32.9696 20.8719ZM38.3552 30.7455L33.4232 39.7874H43.2871L38.3552 30.7455ZM32.5159 39.7874H22.652L27.584 30.7454L32.5159 39.7874ZM27.2772 30.1831L22.1984 20.8719L17.1195 30.1831L22.1984 39.4943L27.2772 30.1831ZM21.7448 39.7874L16.8128 30.7454L11.8808 39.7874H21.7448ZM11.4272 39.4943L16.5061 30.1831L11.4272 20.8719L6.34833 30.1831L11.4272 39.4943ZM6.0416 30.7454L1.10962 39.7874H10.9736L6.0416 30.7454ZM11.7339 20.3095L16.8128 29.6208L21.8916 20.3095L16.8128 10.9983L11.7339 20.3095Z" fill="#AE924E"/>
</svg>
