<svg width="140" height="14" viewBox="0 0 140 14" fill="none" xmlns="http://www.w3.org/2000/svg">
<path d="M84.8994 0.235739C86.609 0.235739 87.9486 0.643998 88.9182 1.46052C89.8878 2.27704 90.3727 3.39975 90.3727 4.82866C90.3727 6.25757 89.8878 7.38028 88.9182 8.1968C87.9486 9.00057 86.609 9.40245 84.8994 9.40245H81.3016V13.6318H79.8855V0.235739H84.8994ZM84.8612 8.15853C86.188 8.15853 87.2023 7.87147 87.904 7.29736C88.6057 6.71048 88.9565 5.88759 88.9565 4.82866C88.9565 3.74422 88.6057 2.91494 87.904 2.34083C87.2023 1.75395 86.188 1.46052 84.8612 1.46052H81.3016V8.15853H84.8612Z" fill="#808080"/>
<path d="M98.2191 0.235739H99.6352V13.6318H98.2191V0.235739Z" fill="#808080"/>
<path d="M119.973 0.235739V13.6318H118.806L110.194 2.76185V13.6318H108.778V0.235739H109.946L118.576 11.1057V0.235739H119.973Z" fill="#808080"/>
<path d="M138.565 6.93375H139.923V12.0434C139.298 12.592 138.558 13.013 137.704 13.3064C136.849 13.5999 135.949 13.7466 135.005 13.7466C133.666 13.7466 132.46 13.4531 131.388 12.8663C130.317 12.2794 129.475 11.4693 128.862 10.4359C128.25 9.38969 127.944 8.22232 127.944 6.93375C127.944 5.64518 128.25 4.48419 128.862 3.45078C129.475 2.40462 130.317 1.5881 131.388 1.00123C132.46 0.414352 133.672 0.120916 135.024 0.120916C136.045 0.120916 136.983 0.286771 137.837 0.618483C138.692 0.937435 139.413 1.41586 140 2.05377L139.12 2.95322C138.061 1.90705 136.715 1.38397 135.082 1.38397C133.997 1.38397 133.015 1.62637 132.135 2.11118C131.267 2.58323 130.585 3.24665 130.087 4.10145C129.589 4.94348 129.341 5.88759 129.341 6.93375C129.341 7.97992 129.589 8.92402 130.087 9.76605C130.585 10.6081 131.267 11.2715 132.135 11.7563C133.002 12.2411 133.978 12.4835 135.063 12.4835C136.44 12.4835 137.608 12.1391 138.565 11.4501V6.93375Z" fill="#808080"/>
<path d="M9.89392 6.71715H12.7262V12.1521C11.999 12.7007 11.157 13.1217 10.2001 13.4152C9.24326 13.7086 8.28002 13.8553 7.3104 13.8553C5.91977 13.8553 4.66947 13.5619 3.55951 12.975C2.44956 12.3754 1.57563 11.5525 0.937722 10.5063C0.312574 9.44739 0 8.2545 0 6.92766C0 5.60081 0.312574 4.41431 0.937722 3.36814C1.57563 2.30922 2.45594 1.48632 3.57865 0.899447C4.70137 0.299816 5.96442 0 7.36781 0C8.54156 0 9.60686 0.197751 10.5637 0.593252C11.5206 0.988754 12.3243 1.56287 12.975 2.3156L10.9847 4.15277C10.0279 3.14488 8.87327 2.64093 7.52091 2.64093C6.66612 2.64093 5.90701 2.81954 5.24359 3.17677C4.58016 3.534 4.06346 4.03794 3.69347 4.68861C3.32349 5.33927 3.1385 6.08562 3.1385 6.92766C3.1385 7.75694 3.32349 8.49691 3.69347 9.14757C4.06346 9.79824 4.57378 10.3086 5.22445 10.6785C5.88787 11.0358 6.6406 11.2144 7.48263 11.2144C8.3757 11.2144 9.17947 11.023 9.89392 10.6403V6.71715Z" fill="#808080"/>
<path d="M20.3904 0.229645H23.4906V11.0996H30.2077V13.6257H20.3904V0.229645Z" fill="#808080"/>
<path d="M45.6586 10.7551H39.439L38.2525 13.6257H35.0757L41.0465 0.229645H44.1085L50.0984 13.6257H46.8451L45.6586 10.7551ZM44.6826 8.40122L42.5584 3.27246L40.4342 8.40122H44.6826Z" fill="#808080"/>
<path d="M68.4629 13.6257L68.4438 5.58806L64.5015 12.2095H63.1045L59.1814 5.76029V13.6257H56.2726V0.229645H58.8369L63.8509 8.55432L68.7883 0.229645H71.3335L71.3718 13.6257H68.4629Z" fill="#808080"/>
</svg>
