<svg width="20" height="20" viewBox="0 0 20 20" fill="none" xmlns="http://www.w3.org/2000/svg">
<rect width="20" height="20" rx="10" fill="#1A1A1A"/>
<path d="M12.9297 14H7.33984V13.2207L10.293 9.93945C10.7305 9.44336 11.0312 9.04102 11.1953 8.73242C11.3633 8.41992 11.4473 8.09766 11.4473 7.76562C11.4473 7.32031 11.3125 6.95508 11.043 6.66992C10.7734 6.38477 10.4141 6.24219 9.96484 6.24219C9.42578 6.24219 9.00586 6.39648 8.70508 6.70508C8.4082 7.00977 8.25977 7.43555 8.25977 7.98242H7.17578C7.17578 7.19727 7.42773 6.5625 7.93164 6.07812C8.43945 5.59375 9.11719 5.35156 9.96484 5.35156C10.7578 5.35156 11.3848 5.56055 11.8457 5.97852C12.3066 6.39258 12.5371 6.94531 12.5371 7.63672C12.5371 8.47656 12.002 9.47656 10.9316 10.6367L8.64648 13.1152H12.9297V14Z" fill="white"/>
</svg>
